<svg xmlns="http://www.w3.org/2000/svg" xmlns:cc="http://web.resource.org/cc/" xmlns:svg="http://www.w3.org/2000/svg" id="svg4046" width="32" height="32" contentScriptType="text/ecmascript" contentStyleType="text/css" preserveAspectRatio="xMidYMid meet" version="1.0" zoomAndPan="magnify"><metadata id="metadata4"/><g id="layer1"><g id="g14551"><path id="path14543" d="M -34.333672,2.7202065 C -34.251883,2.7868588 -34.418594,2.877577 -34.465293,2.881719 C -34.742988,2.906349 -34.85058,2.5551543 -34.800097,2.340102 C -34.680825,1.8320187 -34.060826,1.6845902 -33.626829,1.8528419 C -32.853099,2.1528012 -32.655173,3.1225844 -32.986702,3.8178945 C -33.499307,4.8929763 -34.884436,5.1470423 -35.878041,4.6152983 C -37.287555,3.8609738 -37.602321,2.0042311 -36.838498,0.67894541 C -35.815752,-1.0955879 -33.437113,-1.4751974 -31.749466,-0.45086577 C -29.581401,0.86505897 -29.133053,3.8116093 -30.443813,5.8901741 C -32.076075,8.4785671 -35.63329,8.9993584 -38.129601,7.3781817 C -39.582838,6.434408 -40.569695,4.8812365 -40.865594,3.1795166" transform="matrix(0.305701,-0.606874,0.606874,0.305701,12.50836,-17.25016)" style="fill:none;fill-opacity:.75;fill-rule:evenodd;stroke:#c00;stroke-width:1px;stroke-linecap:butt;stroke-linejoin:miter;stroke-opacity:1"/><path style="fill:none;fill-opacity:.75;fill-rule:evenodd;stroke:#000;stroke-width:1px;stroke-linecap:butt;stroke-linejoin:miter;stroke-opacity:1" id="path14545" d="M -34.333672,2.7202065 C -34.251883,2.7868588 -34.418594,2.877577 -34.465293,2.881719 C -34.742988,2.906349 -34.85058,2.5551543 -34.800097,2.340102 C -34.680825,1.8320187 -34.060826,1.6845902 -33.626829,1.8528419 C -32.853099,2.1528012 -32.655173,3.1225844 -32.986702,3.8178945 C -33.499307,4.8929763 -34.884436,5.1470423 -35.878041,4.6152983 C -37.287555,3.8609738 -37.602321,2.0042311 -36.838498,0.67894541 C -35.815752,-1.0955879 -33.437113,-1.4751974 -31.749466,-0.45086577 C -29.581401,0.86505897 -29.133053,3.8116093 -30.443813,5.8901741 C -32.076075,8.4785671 -35.63329,8.9993584 -38.129601,7.3781817 C -39.582838,6.434408 -40.569695,4.8812365 -40.865594,3.1795166" transform="matrix(-0.305701,-0.606874,-0.606874,0.305701,3.289927,-17.25016)"/><path id="path14547" d="M -34.333672,2.7202065 C -34.251883,2.7868588 -34.418594,2.877577 -34.465293,2.881719 C -34.742988,2.906349 -34.85058,2.5551543 -34.800097,2.340102 C -34.680825,1.8320187 -34.060826,1.6845902 -33.626829,1.8528419 C -32.853099,2.1528012 -32.655173,3.1225844 -32.986702,3.8178945 C -33.499307,4.8929763 -34.884436,5.1470423 -35.878041,4.6152983 C -37.287555,3.8609738 -37.602321,2.0042311 -36.838498,0.67894541 C -35.815752,-1.0955879 -33.437113,-1.4751974 -31.749466,-0.45086577 C -29.581401,0.86505897 -29.133053,3.8116093 -30.443813,5.8901741 C -32.076075,8.4785671 -35.63329,8.9993584 -38.129601,7.3781817 C -39.582838,6.434408 -40.569695,4.8812365 -40.865594,3.1795166" transform="matrix(0.305701,-0.606874,0.606874,0.305701,26.88815,-17.25016)" style="fill:none;fill-opacity:.75;fill-rule:evenodd;stroke:#000;stroke-width:1px;stroke-linecap:butt;stroke-linejoin:miter;stroke-opacity:1"/><path style="fill:none;fill-opacity:.75;fill-rule:evenodd;stroke:#000;stroke-width:1px;stroke-linecap:butt;stroke-linejoin:miter;stroke-opacity:1" id="path14549" d="M -34.333672,2.7202065 C -34.251883,2.7868588 -34.418594,2.877577 -34.465293,2.881719 C -34.742988,2.906349 -34.85058,2.5551543 -34.800097,2.340102 C -34.680825,1.8320187 -34.060826,1.6845902 -33.626829,1.8528419 C -32.853099,2.1528012 -32.655173,3.1225844 -32.986702,3.8178945 C -33.499307,4.8929763 -34.884436,5.1470423 -35.878041,4.6152983 C -37.287555,3.8609738 -37.602321,2.0042311 -36.838498,0.67894541 C -35.815752,-1.0955879 -33.437113,-1.4751974 -31.749466,-0.45086577 C -29.581401,0.86505897 -29.133053,3.8116093 -30.443813,5.8901741 C -32.076075,8.4785671 -35.63329,8.9993584 -38.129601,7.3781817 C -39.582838,6.434408 -40.569695,4.8812365 -40.865594,3.1795166" transform="matrix(-0.305701,-0.606874,-0.606874,0.305701,17.57188,-17.25016)"/></g><path id="path14559" d="M -34.333672,2.7202065 C -34.251883,2.7868588 -34.418594,2.877577 -34.465293,2.881719 C -34.742988,2.906349 -34.85058,2.5551543 -34.800097,2.340102 C -34.680825,1.8320187 -34.060826,1.6845902 -33.626829,1.8528419 C -32.853099,2.1528012 -32.655173,3.1225844 -32.986702,3.8178945 C -33.499307,4.8929763 -34.884436,5.1470423 -35.878041,4.6152983 C -37.287555,3.8609738 -37.602321,2.0042311 -36.838498,0.67894541 C -35.815752,-1.0955879 -33.437113,-1.4751974 -31.749466,-0.45086577 C -29.581401,0.86505897 -29.133053,3.8116093 -30.443813,5.8901741 C -32.076075,8.4785671 -35.63329,8.9993584 -38.129601,7.3781817 C -39.582838,6.434408 -40.569695,4.8812365 -40.865594,3.1795166" transform="matrix(0.305701,0.606874,0.606874,-0.305701,12.50836,35.6997)" style="fill:#fff;fill-opacity:1;fill-rule:evenodd;stroke:#000;stroke-width:1px;stroke-linecap:butt;stroke-linejoin:miter;stroke-opacity:1"/><path style="fill:none;fill-opacity:.75;fill-rule:evenodd;stroke:#000;stroke-width:1px;stroke-linecap:butt;stroke-linejoin:miter;stroke-opacity:1" id="path14561" d="M -34.333672,2.7202065 C -34.251883,2.7868588 -34.418594,2.877577 -34.465293,2.881719 C -34.742988,2.906349 -34.85058,2.5551543 -34.800097,2.340102 C -34.680825,1.8320187 -34.060826,1.6845902 -33.626829,1.8528419 C -32.853099,2.1528012 -32.655173,3.1225844 -32.986702,3.8178945 C -33.499307,4.8929763 -34.884436,5.1470423 -35.878041,4.6152983 C -37.287555,3.8609738 -37.602321,2.0042311 -36.838498,0.67894541 C -35.815752,-1.0955879 -33.437113,-1.4751974 -31.749466,-0.45086577 C -29.581401,0.86505897 -29.133053,3.8116093 -30.443813,5.8901741 C -32.076075,8.4785671 -35.63329,8.9993584 -38.129601,7.3781817 C -39.582838,6.434408 -40.569695,4.8812365 -40.865594,3.1795166" transform="matrix(-0.305701,0.606874,-0.606874,-0.305701,3.289927,35.6997)"/><path id="path14563" d="M -34.333672,2.7202065 C -34.251883,2.7868588 -34.418594,2.877577 -34.465293,2.881719 C -34.742988,2.906349 -34.85058,2.5551543 -34.800097,2.340102 C -34.680825,1.8320187 -34.060826,1.6845902 -33.626829,1.8528419 C -32.853099,2.1528012 -32.655173,3.1225844 -32.986702,3.8178945 C -33.499307,4.8929763 -34.884436,5.1470423 -35.878041,4.6152983 C -37.287555,3.8609738 -37.602321,2.0042311 -36.838498,0.67894541 C -35.815752,-1.0955879 -33.437113,-1.4751974 -31.749466,-0.45086577 C -29.581401,0.86505897 -29.133053,3.8116093 -30.443813,5.8901741 C -32.076075,8.4785671 -35.63329,8.9993584 -38.129601,7.3781817 C -39.582838,6.434408 -40.569695,4.8812365 -40.865594,3.1795166" transform="matrix(0.305701,0.606874,0.606874,-0.305701,26.88815,35.6997)" style="fill:none;fill-opacity:.75;fill-rule:evenodd;stroke:#000;stroke-width:1px;stroke-linecap:butt;stroke-linejoin:miter;stroke-opacity:1"/><path style="fill:none;fill-opacity:.75;fill-rule:evenodd;stroke:#000;stroke-width:1px;stroke-linecap:butt;stroke-linejoin:miter;stroke-opacity:1" id="path14565" d="M -34.333672,2.7202065 C -34.251883,2.7868588 -34.418594,2.877577 -34.465293,2.881719 C -34.742988,2.906349 -34.85058,2.5551543 -34.800097,2.340102 C -34.680825,1.8320187 -34.060826,1.6845902 -33.626829,1.8528419 C -32.853099,2.1528012 -32.655173,3.1225844 -32.986702,3.8178945 C -33.499307,4.8929763 -34.884436,5.1470423 -35.878041,4.6152983 C -37.287555,3.8609738 -37.602321,2.0042311 -36.838498,0.67894541 C -35.815752,-1.0955879 -33.437113,-1.4751974 -31.749466,-0.45086577 C -29.581401,0.86505897 -29.133053,3.8116093 -30.443813,5.8901741 C -32.076075,8.4785671 -35.63329,8.9993584 -38.129601,7.3781817 C -39.582838,6.434408 -40.569695,4.8812365 -40.865594,3.1795166" transform="matrix(-0.305701,0.606874,-0.606874,-0.305701,17.57188,35.6997)"/><path style="fill:#fff;fill-opacity:1;fill-rule:evenodd;stroke:#000;stroke-width:1px;stroke-linecap:butt;stroke-linejoin:miter;stroke-opacity:1" id="path14569" d="M -34.333672,2.7202065 C -34.251883,2.7868588 -34.418594,2.877577 -34.465293,2.881719 C -34.742988,2.906349 -34.85058,2.5551543 -34.800097,2.340102 C -34.680825,1.8320187 -34.060826,1.6845902 -33.626829,1.8528419 C -32.853099,2.1528012 -32.655173,3.1225844 -32.986702,3.8178945 C -33.499307,4.8929763 -34.884436,5.1470423 -35.878041,4.6152983 C -37.287555,3.8609738 -37.602321,2.0042311 -36.838498,0.67894541 C -35.815752,-1.0955879 -33.437113,-1.4751974 -31.749466,-0.45086577 C -29.581401,0.86505897 -29.133053,3.8116093 -30.443813,5.8901741 C -32.076075,8.4785671 -35.63329,8.9993584 -38.129601,7.3781817 C -39.582838,6.434408 -40.569695,4.8812365 -40.865594,3.1795166" transform="matrix(0.305701,-0.606874,0.606874,0.305701,12.50836,-0.67434)"/><path id="path14571" d="M -34.333672,2.7202065 C -34.251883,2.7868588 -34.418594,2.877577 -34.465293,2.881719 C -34.742988,2.906349 -34.85058,2.5551543 -34.800097,2.340102 C -34.680825,1.8320187 -34.060826,1.6845902 -33.626829,1.8528419 C -32.853099,2.1528012 -32.655173,3.1225844 -32.986702,3.8178945 C -33.499307,4.8929763 -34.884436,5.1470423 -35.878041,4.6152983 C -37.287555,3.8609738 -37.602321,2.0042311 -36.838498,0.67894541 C -35.815752,-1.0955879 -33.437113,-1.4751974 -31.749466,-0.45086577 C -29.581401,0.86505897 -29.133053,3.8116093 -30.443813,5.8901741 C -32.076075,8.4785671 -35.63329,8.9993584 -38.129601,7.3781817 C -39.582838,6.434408 -40.569695,4.8812365 -40.865594,3.1795166" transform="matrix(-0.305701,-0.606874,-0.606874,0.305701,3.289927,-0.67434)" style="fill:none;fill-opacity:.75;fill-rule:evenodd;stroke:#000;stroke-width:1px;stroke-linecap:butt;stroke-linejoin:miter;stroke-opacity:1"/><path style="fill:none;fill-opacity:.75;fill-rule:evenodd;stroke:#000;stroke-width:1px;stroke-linecap:butt;stroke-linejoin:miter;stroke-opacity:1" id="path14573" d="M -34.333672,2.7202065 C -34.251883,2.7868588 -34.418594,2.877577 -34.465293,2.881719 C -34.742988,2.906349 -34.85058,2.5551543 -34.800097,2.340102 C -34.680825,1.8320187 -34.060826,1.6845902 -33.626829,1.8528419 C -32.853099,2.1528012 -32.655173,3.1225844 -32.986702,3.8178945 C -33.499307,4.8929763 -34.884436,5.1470423 -35.878041,4.6152983 C -37.287555,3.8609738 -37.602321,2.0042311 -36.838498,0.67894541 C -35.815752,-1.0955879 -33.437113,-1.4751974 -31.749466,-0.45086577 C -29.581401,0.86505897 -29.133053,3.8116093 -30.443813,5.8901741 C -32.076075,8.4785671 -35.63329,8.9993584 -38.129601,7.3781817 C -39.582838,6.434408 -40.569695,4.8812365 -40.865594,3.1795166" transform="matrix(0.305701,-0.606874,0.606874,0.305701,26.88815,-0.67434)"/><path id="path14575" d="M -34.333672,2.7202065 C -34.251883,2.7868588 -34.418594,2.877577 -34.465293,2.881719 C -34.742988,2.906349 -34.85058,2.5551543 -34.800097,2.340102 C -34.680825,1.8320187 -34.060826,1.6845902 -33.626829,1.8528419 C -32.853099,2.1528012 -32.655173,3.1225844 -32.986702,3.8178945 C -33.499307,4.8929763 -34.884436,5.1470423 -35.878041,4.6152983 C -37.287555,3.8609738 -37.602321,2.0042311 -36.838498,0.67894541 C -35.815752,-1.0955879 -33.437113,-1.4751974 -31.749466,-0.45086577 C -29.581401,0.86505897 -29.133053,3.8116093 -30.443813,5.8901741 C -32.076075,8.4785671 -35.63329,8.9993584 -38.129601,7.3781817 C -39.582838,6.434408 -40.569695,4.8812365 -40.865594,3.1795166" transform="matrix(-0.305701,-0.606874,-0.606874,0.305701,17.57188,-0.67434)" style="fill:none;fill-opacity:.75;fill-rule:evenodd;stroke:#000;stroke-width:1px;stroke-linecap:butt;stroke-linejoin:miter;stroke-opacity:1"/></g></svg>