<svg id="svg10039" width="32" height="32" contentScriptType="text/ecmascript" contentStyleType="text/css" preserveAspectRatio="xMidYMid meet" version="1.0" zoomAndPan="magnify"><metadata id="metadata4"><rdf:RDF xmlns:rdf="http://www.w3.org/1999/02/22-rdf-syntax-ns#" id="RDF5"><cc:Work xmlns:cc="http://web.resource.org/cc/" id="Work6"><dc:format xmlns:dc="http://purl.org/dc/elements/1.1/" id="format7">image/svg+xml</dc:format><dc:type xmlns:dc="http://purl.org/dc/elements/1.1/" id="type9" rdf:resource="http://purl.org/dc/dcmitype/StillImage"/></cc:Work></rdf:RDF></metadata><g id="layer1"><g id="g10142" transform="translate(-10.42431,-141.5669)"><path style="fill:#900;fill-opacity:1;fill-rule:evenodd;stroke:#000;stroke-width:1;stroke-linecap:butt;stroke-linejoin:round;stroke-miterlimit:4;stroke-opacity:1;display:block" id="path3118" d="M 5.2370854,8.4983552 L 15.357691,23.703656 L 25.423117,9.3797610 L 5.2370854,8.4983552 z" transform="translate(10.44522,141.5156)"/><path style="fill:none;fill-opacity:.75;fill-rule:evenodd;stroke:#000;stroke-width:1.25;stroke-dasharray:2.5 1.25;stroke-dashoffset:1.625;stroke-opacity:1;marker-start:none" id="path3181" d="M 15.375043,13.719676 L 15.455282,23.094204" transform="translate(10.44522,141.5156)"/><path style="fill:none;fill-opacity:.75;fill-rule:evenodd;stroke:#000;stroke-width:1.25;stroke-dasharray:2.5 1.25;stroke-dashoffset:1.625;stroke-opacity:1;marker-start:none" id="path3182" d="M 5.5406900,8.6049791 L 15.194914,13.893624" transform="translate(10.44522,141.5156)"/><path style="fill:none;fill-opacity:.75;fill-rule:evenodd;stroke:#000;stroke-width:1.25;stroke-dasharray:2.5 1.25;stroke-dashoffset:1.625;stroke-opacity:1;marker-start:none" id="path3183" d="M 25.256093,9.5269698 L 15.387280,13.916963" transform="translate(10.44522,141.5156)"/><path style="fill:#bab5ab;stroke:#000;stroke-linecap:square;stroke-linejoin:bevel;stroke-dashoffset:0" id="path3230" d="M 44.738081,32.591033 L 47.553960,33.754744 L 57.583576,48.768829 L 57.487393,53.433392 L 45.748003,45.479248 L 44.738081,32.591033 z" transform="translate(-31.97079,116.2119)"/><path style="fill:#bab5ab;stroke:#000;stroke-width:1.2125;stroke-linecap:square;stroke-linejoin:bevel;stroke-dashoffset:0" id="path3247" d="M 57.764203,49.131186 L 67.685809,34.691657 L 69.912763,33.621586 L 68.897901,45.643866 L 57.786398,53.910593 L 57.764203,49.131186 z" transform="translate(-31.97079,116.2119)"/><path style="fill:#bab5ab;stroke:#000;stroke-linecap:square;stroke-linejoin:bevel;stroke-dashoffset:0" id="path3270" d="M 13.858366,4.0376482 L 27.783046,8.2234882 L 25.549081,9.5058887 L 5.2791992,8.6177130 L 2.2261013,7.0562682 L 13.858366,4.0376482 z" transform="translate(10.44522,141.5156)"/><path style="fill:#000;fill-opacity:1;fill-rule:nonzero;stroke:#807d74;stroke-width:0;stroke-linecap:square;stroke-linejoin:bevel;stroke-miterlimit:4;stroke-dashoffset:0;stroke-opacity:1" id="path3282" d="M -93.188063 -87.276924 A 3.4174511 3.4174511 0 1 1 -100.02297,-87.276924 A 3.4174511 3.4174511 0 1 1 -93.188063 -87.276924 z" transform="matrix(0.496913,0.000000,0.000000,0.496913,73.72014,198.7891)"/></g></g></svg>