<svg xmlns="http://www.w3.org/2000/svg" xmlns:cc="http://web.resource.org/cc/" xmlns:xlink="http://www.w3.org/1999/xlink" xmlns:xml="http://www.w3.org/XML/1998/namespace" id="svg4571" width="32" height="32"><defs id="defs3"><linearGradient id="linearGradient14316"><stop style="stop-color:#c5d2c8;stop-opacity:1" id="stop14317" offset="0"/><stop style="stop-color:#5d7555;stop-opacity:1" id="stop14318" offset="1"/></linearGradient><radialGradient id="radialGradient5886" cx="152.223" cy="211.298" r="89.523" fx="151.555" fy="209.953" gradientUnits="userSpaceOnUse" xlink:href="#linearGradient14316"/></defs><metadata id="metadata4"/><g id="layer1"><rect style="fill:#bab5ab;fill-opacity:1;fill-rule:evenodd;stroke:#000;stroke-width:.75331992;stroke-linecap:butt;stroke-linejoin:miter;stroke-miterlimit:4;stroke-opacity:1;display:block" id="rect5861" width="13.409" height="13.647" x="-732.226" y="-163.051" transform="translate(735.2345,165.7406)"/><path style="fill:url(#radialGradient5886);fill-opacity:1;fill-rule:evenodd;stroke:#000;stroke-width:4.8813634;stroke-linecap:square;stroke-linejoin:round;stroke-miterlimit:4;stroke-dasharray:4.8813633 14.64409;stroke-dashoffset:0;stroke-opacity:1;display:block" id="path5862" d="M 240.40767 239.52522 A 55.783215 55.783215 0 1 1 128.84124,239.52522 A 55.783215 55.783215 0 1 1 240.40767 239.52522 z" transform="matrix(9.645358e-2,0.000000,0.000000,9.645358e-2,-7.947300,-13.35610)"/><g id="g6589"><path style="fill:#900;fill-opacity:1;fill-rule:evenodd;stroke:none;stroke-width:.25pt;stroke-linecap:butt;stroke-linejoin:miter;stroke-opacity:1" id="path5784" d="M 18.195367,15.210356 L 26.433617,12.000747 L 26.385410,18.567209 L 18.195367,15.210356 z" transform="matrix(-1.000000,-3.140459e-16,-5.872988e-16,1.761677,46.89849,-16.47418)"/><path style="fill:none;fill-opacity:.75;fill-rule:evenodd;stroke:#900;stroke-width:2.5;stroke-linecap:butt;stroke-linejoin:miter;stroke-miterlimit:4;stroke-opacity:1" id="path5785" d="M 25.873269,15.091611 L 34.245208,15.091611" transform="matrix(-1.000000,-3.140459e-16,-5.872988e-16,1.761677,46.89849,-16.47418)"/></g><text xml:space="preserve" style="font-size:13;font-style:normal;font-variant:normal;font-weight:700;font-stretch:normal;fill:#000;fill-opacity:1;stroke:none;stroke-width:3pt;stroke-linecap:butt;stroke-linejoin:miter;stroke-opacity:1;font-family:Verdana;text-anchor:start;writing-mode:lr" id="text5786" x="1.347" y="20.574" transform="translate(3.809125,8.681324)"><tspan id="tspan6598" x="1.347" y="20.574">....</tspan></text></g></svg>