<svg xmlns="http://www.w3.org/2000/svg" xmlns:cc="http://web.resource.org/cc/" xmlns:svg="http://www.w3.org/2000/svg" id="svg4046" width="32" height="32" contentScriptType="text/ecmascript" contentStyleType="text/css" preserveAspectRatio="xMidYMid meet" version="1.0" zoomAndPan="magnify"><metadata id="metadata4"/><g id="layer1"><path style="opacity:1;fill:none;fill-opacity:1;fill-rule:evenodd;stroke:#000;stroke-width:7.5;stroke-linecap:butt;stroke-linejoin:miter;stroke-miterlimit:4;stroke-dasharray:none;stroke-dashoffset:0;stroke-opacity:1" id="path15196" d="M 253.15108 149.89499 A 48.7672 48.7672 0 1 1 155.61668,149.89499 A 48.7672 48.7672 0 1 1 253.15108 149.89499 z" transform="matrix(0.205543,0,0,0.201005,-30.56605,-15.44155)"/><path id="path15198" d="M 253.15108 149.89499 A 48.7672 48.7672 0 1 1 155.61668,149.89499 A 48.7672 48.7672 0 1 1 253.15108 149.89499 z" style="opacity:1;fill:none;fill-opacity:1;fill-rule:evenodd;stroke:#000;stroke-width:7.5;stroke-linecap:butt;stroke-linejoin:miter;stroke-miterlimit:4;stroke-dasharray:none;stroke-dashoffset:0;stroke-opacity:1" transform="matrix(0.205543,0,0,0.201005,-23.16648,-15.44155)"/><path style="font-size:19.88668823px;font-style:normal;font-weight:400;fill:#b70000;fill-opacity:1;stroke:none;stroke-width:1px;stroke-linecap:butt;stroke-linejoin:miter;stroke-opacity:1;font-family:Bitstream Vera Sans" id="text15232" d="M 19.540154,12.822347 L 16.013235,14.684287 L 19.540154,16.555825 L 18.970346,17.496392 L 15.669386,15.548073 L 15.669386,19.166379 L 14.549417,19.166379 L 14.549417,15.548073 L 11.248456,17.496392 L 10.678648,16.555825 L 14.205567,14.684287 L 10.678648,12.822347 L 11.248456,11.872182 L 14.549417,13.8205 L 14.549417,10.202194 L 15.669386,10.202194 L 15.669386,13.8205 L 18.970346,11.872182 L 19.540154,12.822347"/></g></svg>