<svg xmlns="http://www.w3.org/2000/svg" xmlns:cc="http://web.resource.org/cc/" xmlns:svg="http://www.w3.org/2000/svg" id="svg4046" width="32" height="32" contentScriptType="text/ecmascript" contentStyleType="text/css" preserveAspectRatio="xMidYMid meet" version="1.0" zoomAndPan="magnify"><metadata id="metadata4"/><g id="layer1"><path style="opacity:1;fill:none;fill-opacity:1;fill-rule:evenodd;stroke:#000;stroke-width:7.5;stroke-linecap:butt;stroke-linejoin:miter;stroke-miterlimit:4;stroke-dasharray:none;stroke-dashoffset:0;stroke-opacity:1" id="path15196" d="M 253.15108 149.89499 A 48.7672 48.7672 0 1 1 155.61668,149.89499 A 48.7672 48.7672 0 1 1 253.15108 149.89499 z" transform="matrix(0.205543,0,0,0.201005,-30.56605,-15.44155)"/><path id="path15198" d="M 253.15108 149.89499 A 48.7672 48.7672 0 1 1 155.61668,149.89499 A 48.7672 48.7672 0 1 1 253.15108 149.89499 z" style="opacity:1;fill:none;fill-opacity:1;fill-rule:evenodd;stroke:#000;stroke-width:7.5;stroke-linecap:butt;stroke-linejoin:miter;stroke-miterlimit:4;stroke-dasharray:none;stroke-dashoffset:0;stroke-opacity:1" transform="matrix(0.205543,0,0,0.201005,-23.16648,-15.44155)"/><path transform="scale(1.011227,0.988898)" style="font-size:15.22973824px;font-style:normal;font-weight:400;fill:#b70000;fill-opacity:1;stroke:none;stroke-width:1px;stroke-linecap:butt;stroke-linejoin:miter;stroke-opacity:1;font-family:Bitstream Vera Sans" id="text15200" d="M 15.518628,9.8710959 L 15.518628,14.013168 L 19.6607,14.013168 L 19.6607,15.277356 L 15.518628,15.277356 L 15.518628,19.419428 L 14.269313,19.419428 L 14.269313,15.277356 L 10.127241,15.277356 L 10.127241,14.013168 L 14.269313,14.013168 L 14.269313,9.8710959 L 15.518628,9.8710959"/></g></svg>