<svg xmlns="http://www.w3.org/2000/svg" xmlns:svg="http://www.w3.org/2000/svg" id="svg4046" width="32" height="32" contentScriptType="text/ecmascript" contentStyleType="text/css" preserveAspectRatio="xMidYMid meet" version="1.0" zoomAndPan="magnify"><metadata id="metadata4"/><g id="layer1"><path style="opacity:1;fill:none;fill-opacity:1;fill-rule:evenodd;stroke:#000;stroke-width:7.5;stroke-linecap:butt;stroke-linejoin:miter;stroke-miterlimit:4;stroke-dasharray:none;stroke-dashoffset:0;stroke-opacity:1" id="path15196" d="M 253.15108 149.89499 A 48.7672 48.7672 0 1 1 155.61668,149.89499 A 48.7672 48.7672 0 1 1 253.15108 149.89499 z" transform="matrix(0.205543,0,0,0.201005,-30.56605,-15.44155)"/><path id="path15198" d="M 253.15108 149.89499 A 48.7672 48.7672 0 1 1 155.61668,149.89499 A 48.7672 48.7672 0 1 1 253.15108 149.89499 z" style="opacity:1;fill:none;fill-opacity:1;fill-rule:evenodd;stroke:#000;stroke-width:7.5;stroke-linecap:butt;stroke-linejoin:miter;stroke-miterlimit:4;stroke-dasharray:none;stroke-dashoffset:0;stroke-opacity:1" transform="matrix(0.205543,0,0,0.201005,-23.16648,-15.44155)"/><g id="g2665" transform="translate(32.10459,-15.60948)"><path id="text15252" d="M 9.9339955,33.909144 L 8.5141615,33.909144 L 12.141762,27.004672 L 13.436777,27.004672 L 17.064379,33.909144 L 15.644542,33.909144 L 12.797072,28.361869 L 9.9339955,33.909144" style="font-size:58.64286041px;font-style:normal;font-weight:400;fill:#b70000;fill-opacity:1;stroke:none;stroke-width:1px;stroke-linecap:butt;stroke-linejoin:miter;stroke-opacity:1;font-family:Bitstream Vera Sans"/><path id="path1685" d="M 404.38306,206.68594 A 6.5135527,6.5135527 0 1 1 391.35595,206.68594 A 6.5135527,6.5135527 0 1 1 404.38306,206.68594 z" transform="matrix(0.256704,0,0,0.250782,-119.1083,-9.070298)" style="opacity:1;fill:#b70000;fill-opacity:1;fill-rule:evenodd;stroke:none;stroke-width:7.5;stroke-linecap:butt;stroke-linejoin:miter;stroke-miterlimit:4;stroke-dasharray:none;stroke-dashoffset:0;stroke-opacity:1"/><path style="fill:#b70000;fill-opacity:1;fill-rule:evenodd;stroke:#b70000;stroke-width:2.40408444;stroke-linecap:round;stroke-linejoin:miter;stroke-miterlimit:4;stroke-dasharray:none;stroke-opacity:1" id="path2387" d="M -16.993291,35.689348 L -16.993291,25.169375"/></g></g></svg>