<svg id="svg6159" width="32" height="32" contentScriptType="text/ecmascript" contentStyleType="text/css" preserveAspectRatio="xMidYMid meet" version="1.0" zoomAndPan="magnify"><defs id="defs3"><linearGradient id="linearGradient6891" x1="44.796" x2="55.531" y1="7.639" y2="7.639" gradientTransform="matrix(0.460193,0.000000,0.000000,2.173002,355.2436,-189.7157)" gradientUnits="userSpaceOnUse"><stop style="stop-color:#eae8e3;stop-opacity:1" id="stop12427linearGradient6891" offset="0"/><stop style="stop-color:#807d74;stop-opacity:1" id="stop12428linearGradient6891" offset="1"/></linearGradient><linearGradient id="linearGradient6890" x1=".831" x2="14.044" y1="15.888" y2="15.888" gradientTransform="matrix(1.814531,0.000000,0.000000,0.551107,355.2436,-189.7157)" gradientUnits="userSpaceOnUse"><stop style="stop-color:#eae8e3;stop-opacity:1" id="stop12427linearGradient6890" offset="0"/><stop style="stop-color:#807d74;stop-opacity:1" id="stop12428linearGradient6890" offset="1"/></linearGradient><linearGradient id="linearGradient6889" x1="1.558" x2="20.319" y1="20.979" y2="20.979" gradientTransform="matrix(1.069815,0.000000,0.000000,0.934741,355.2436,-189.7157)" gradientUnits="userSpaceOnUse"><stop style="stop-color:#eae8e3;stop-opacity:1" id="stop12427linearGradient6889" offset="0"/><stop style="stop-color:#807d74;stop-opacity:1" id="stop12428linearGradient6889" offset="1"/></linearGradient><linearGradient id="linearGradient3229" x1="44.796" x2="55.531" y1="7.639" y2="7.639" gradientTransform="matrix(0.460193,0.000000,0.000000,2.173002,2.247606,-3.341543)" gradientUnits="userSpaceOnUse"><stop style="stop-color:#eae8e3;stop-opacity:1" id="stop12427linearGradient3229" offset="0"/><stop style="stop-color:#807d74;stop-opacity:1" id="stop12428linearGradient3229" offset="1"/></linearGradient><linearGradient id="linearGradient3228" x1=".831" x2="14.044" y1="15.888" y2="15.888" gradientTransform="matrix(1.814531,0.000000,0.000000,0.551107,2.247606,-3.341543)" gradientUnits="userSpaceOnUse"><stop style="stop-color:#eae8e3;stop-opacity:1" id="stop12427linearGradient3228" offset="0"/><stop style="stop-color:#807d74;stop-opacity:1" id="stop12428linearGradient3228" offset="1"/></linearGradient><linearGradient id="linearGradient12426"><stop style="stop-color:#eae8e3;stop-opacity:1" id="stop12427" offset="0"/><stop style="stop-color:#807d74;stop-opacity:1" id="stop12428" offset="1"/></linearGradient><linearGradient id="linearGradient3227" x1="1.558" x2="20.319" y1="20.979" y2="20.979" gradientTransform="matrix(1.069815,0.000000,0.000000,0.934741,2.247606,-3.341543)" gradientUnits="userSpaceOnUse"><stop style="stop-color:#eae8e3;stop-opacity:1" id="stop12427linearGradient3227" offset="0"/><stop style="stop-color:#807d74;stop-opacity:1" id="stop12428linearGradient3227" offset="1"/></linearGradient></defs><metadata id="metadata4"><rdf:RDF xmlns:rdf="http://www.w3.org/1999/02/22-rdf-syntax-ns#" id="RDF5"><cc:Work xmlns:cc="http://web.resource.org/cc/" id="Work6"><dc:format xmlns:dc="http://purl.org/dc/elements/1.1/" id="format7">image/svg+xml</dc:format><dc:type xmlns:dc="http://purl.org/dc/elements/1.1/" id="type9" rdf:resource="http://purl.org/dc/dcmitype/StillImage"/></cc:Work></rdf:RDF></metadata><g id="layer1"><g id="g6934" transform="translate(0.221693,-0.865176)"><g id="g6916" transform="translate(-1116.939,-240.3967)"><path style="fill:#bab5ab;fill-opacity:1;fill-rule:evenodd;stroke:#000;stroke-width:1;stroke-linecap:butt;stroke-linejoin:round;stroke-miterlimit:4;stroke-opacity:1" id="path6913" d="M 1138.1728,253.58578 C 1137.1289,251.05503 1134.5797,250.37213 1131.3324,251.42907 C 1128.1122,252.47718 1127.8485,258.35085 1128.6038,258.95794 C 1129.3591,259.56503 1132.9053,255.26288 1134.9984,254.68685 C 1137.0915,254.11082 1139.2032,256.08397 1138.1728,253.58578 z"/><path style="fill:#bab5ab;fill-opacity:1;fill-rule:evenodd;stroke:#000;stroke-width:1;stroke-linecap:butt;stroke-linejoin:round;stroke-miterlimit:4;stroke-opacity:1" id="path6914" d="M 1130.3053,255.25654 C 1128.8594,256.32232 1127.4457,259.46706 1129.5648,261.30230 C 1131.7323,263.17937 1134.6290,262.79551 1136.0279,261.20612 C 1137.4737,259.56324 1135.9908,257.71552 1135.3546,255.77329 C 1134.7364,253.88594 1131.7512,254.19076 1130.3053,255.25654 z"/><path style="fill:#bab5ab;fill-opacity:1;fill-rule:evenodd;stroke:#000;stroke-width:1;stroke-linecap:butt;stroke-linejoin:round;stroke-miterlimit:4;stroke-opacity:1" id="path6915" d="M 1138.7601,257.39947 C 1139.4269,255.74224 1139.0424,254.70972 1138.4271,254.28393 C 1137.8118,253.85815 1134.1547,253.38635 1135.1830,255.63758 C 1136.2475,257.96809 1136.8744,260.41946 1135.8546,261.71089 C 1134.9185,262.89636 1138.0933,259.05670 1138.7601,257.39947 z"/></g><path style="fill:none;fill-opacity:.75;fill-rule:evenodd;stroke:#000;stroke-width:1pt;stroke-linecap:butt;stroke-linejoin:miter;stroke-opacity:1" id="path6924" d="M 21.193522,13.345486 L 24.223292,10.315716 M 27.926343,6.6126640 L 25.666039,11.854646 L 22.684361,8.8729686 L 27.926343,6.6126640 z"/><path style="fill:none;fill-opacity:.75;fill-rule:evenodd;stroke:#000;stroke-width:1pt;stroke-linecap:butt;stroke-linejoin:miter;stroke-opacity:1" id="path6925" d="M 20.315683,19.729666 L 22.913691,23.136917 M 26.089034,27.301336 L 21.195869,24.361219 L 24.549037,21.804449 L 26.089034,27.301336 z"/><path style="fill:none;fill-opacity:.75;fill-rule:evenodd;stroke:#000;stroke-width:1pt;stroke-linecap:butt;stroke-linejoin:miter;stroke-opacity:1" id="path6926" d="M 11.963985,16.317906 L 7.7142153,15.771591 M 2.5200516,15.103872 L 7.5128496,17.871419 L 8.0504935,13.689106 L 2.5200516,15.103872 z"/></g></g></svg>