<svg xmlns="http://www.w3.org/2000/svg" xmlns:cc="http://web.resource.org/cc/" xmlns:xlink="http://www.w3.org/1999/xlink" id="svg548" width="32" height="32" x="0" y="0" version="1" viewBox="0 0 256 256"><defs id="defs573"><linearGradient id="linearGradient650" xlink:href="#linearGradient647"/><linearGradient id="linearGradient647"><stop style="stop-color:#505050;stop-opacity:1" id="stop648" offset="0"/><stop style="stop-color:#101010;stop-opacity:1" id="stop649" offset="1"/></linearGradient><linearGradient id="linearGradient651" xlink:href="#linearGradient647"/></defs><metadata id="metadata1115"/><path style="fill:#0fff13;fill-opacity:1;fill-rule:evenodd;stroke:#000;stroke-width:.3698525pt;stroke-linecap:butt;stroke-linejoin:miter;stroke-opacity:1" id="rect3994" d="M 63.672800,30.125780 L 39.158550,82.425234 L 56.483750,82.425234 L 56.483750,194.23231 L 70.861790,194.23231 L 70.861790,82.425234 L 88.187060,82.425234 L 63.672800,30.125780 z"/><path style="fill:#ff1d1c;fill-opacity:1;fill-rule:evenodd;stroke:#000;stroke-width:.3698525pt;stroke-linecap:butt;stroke-linejoin:miter;stroke-opacity:1" id="path3999" d="M 228.10656,197.17475 L 175.80710,172.66048 L 175.80710,189.98574 L 64.000000,189.98574 L 64.000000,204.36375 L 175.80710,204.36375 L 175.80710,221.68902 L 228.10656,197.17475 z"/><path style="fill:#00f;fill-opacity:1;fill-rule:evenodd;stroke:#000;stroke-width:.1828338pt;stroke-linecap:butt;stroke-linejoin:miter;stroke-opacity:1" id="path4000" d="M 158.07321,127.54357 L 128.75627,137.01230 L 132.52062,141.29831 L 60.523770,181.87577 L 74.540160,198.71786 L 136.72979,147.02558 L 143.10943,154.58066 L 158.07321,127.54357 z"/><path style="fill:#7e797d;fill-opacity:1;fill-rule:evenodd;stroke:#000;stroke-width:1pt;stroke-linecap:butt;stroke-linejoin:miter;stroke-opacity:1" id="path5243" d="M 7452.9060 741.23517 A 66.291267 65.407379 0 1 0 7320.3235,741.23517 A 66.291267 65.407379 0 1 0 7452.9060 741.23517 z" transform="matrix(0.369853,0.000000,0.000000,0.369853,-2665.996,-84.49549)"/><path style="fill:#fff;fill-opacity:1;fill-rule:evenodd;stroke:#000;stroke-width:1pt;stroke-linecap:butt;stroke-linejoin:miter;stroke-opacity:1" id="path5244" d="M 7452.9060 741.23517 A 66.291267 65.407379 0 1 0 7320.3235,741.23517 A 66.291267 65.407379 0 1 0 7452.9060 741.23517 z" transform="matrix(0.237949,0.000000,0.000000,0.237949,-1692.004,14.14000)"/><path style="fill:#000;fill-opacity:1;fill-rule:evenodd;stroke:#000;stroke-width:1pt;stroke-linecap:butt;stroke-linejoin:miter;stroke-opacity:1" id="path5245" d="M 7452.9060 741.23517 A 66.291267 65.407379 0 1 0 7320.3235,741.23517 A 66.291267 65.407379 0 1 0 7452.9060 741.23517 z" transform="matrix(6.785980e-2,0.000000,0.000000,6.785980e-2,-436.0067,140.3329)"/></svg>