<svg id="svg8827" width="32" height="32" contentScriptType="text/ecmascript" contentStyleType="text/css" preserveAspectRatio="xMidYMid meet" version="1.0" zoomAndPan="magnify"><metadata id="metadata4"><rdf:RDF xmlns:rdf="http://www.w3.org/1999/02/22-rdf-syntax-ns#" id="RDF5"><cc:Work xmlns:cc="http://web.resource.org/cc/" id="Work6"><dc:format xmlns:dc="http://purl.org/dc/elements/1.1/" id="format7">image/svg+xml</dc:format><dc:type xmlns:dc="http://purl.org/dc/elements/1.1/" id="type9" rdf:resource="http://purl.org/dc/dcmitype/StillImage"/></cc:Work></rdf:RDF></metadata><g id="layer1"><g id="g8881"><g id="g8869" transform="translate(-0.220689,0.102396)"><path style="font-size:180;font-style:normal;font-variant:normal;font-weight:700;font-stretch:normal;fill:#000;fill-opacity:1;stroke:#000;stroke-width:.62629706;stroke-linecap:butt;stroke-linejoin:miter;stroke-miterlimit:4;stroke-opacity:1;display:block;font-family:Bitstream Vera Sans;text-anchor:start;writing-mode:lr" id="path8878" d="M 23.647757,11.812033 L 25.799660,13.983095 L 25.822070,16.033725 L 23.560042,18.226314 L 24.984638,19.696028 L 29.717618,15.108340 L 25.129930,10.375361 L 23.647757,11.812033 z"/><path id="path8879" style="fill:none;fill-opacity:.75;fill-rule:evenodd;stroke:#000;stroke-width:2.5;stroke-linecap:butt;stroke-linejoin:miter;stroke-miterlimit:4;stroke-opacity:1" d="M 0.92602820,4.4881574 C 3.0999729,4.4970433 5.2739177,4.5059293 7.4478624,4.5148152 C 14.845172,4.5148152 16.867063,14.880590 20.273260,14.880590 C 24.257411,14.898361 23.029214,14.916133 27.013365,14.933905 M 0.93751315,25.532670 C 3.1114579,25.523784 5.2854027,25.514898 7.4593474,25.506012 C 14.828058,25.506012 16.875897,14.947336 20.284745,14.947336 C 24.268896,14.929564 23.040699,14.911793 27.024850,14.894021"/><path style="font-size:180;font-style:normal;font-variant:normal;font-weight:700;font-stretch:normal;fill:#000;fill-opacity:1;stroke:#000;stroke-width:.62629706;stroke-linecap:butt;stroke-linejoin:miter;stroke-miterlimit:4;stroke-opacity:1;display:block;font-family:Bitstream Vera Sans;text-anchor:start;writing-mode:lr" id="path8858" d="M 12.593068,13.930174 L 12.593068,15.977014 L 1.4742376,15.977014 L 1.4742376,13.930174 L 12.593068,13.930174 z"/></g><path style="font-size:180;font-style:normal;font-variant:normal;font-weight:700;font-stretch:normal;fill:#000;fill-opacity:1;stroke:#000;stroke-width:.62629706;stroke-linecap:butt;stroke-linejoin:miter;stroke-miterlimit:4;stroke-opacity:1;display:block;font-family:Bitstream Vera Sans;text-anchor:start;writing-mode:lr" id="path6813" d="M 23.647757,11.812033 L 25.799660,13.983095 L 25.822070,16.033725 L 23.560042,18.226314 L 24.984638,19.696028 L 29.717618,15.108340 L 25.129930,10.375361 L 23.647757,11.812033 z" transform="translate(-0.220690,0.102397)"/></g></g></svg>