<svg id="svg8827" width="32" height="32" contentScriptType="text/ecmascript" contentStyleType="text/css" preserveAspectRatio="xMidYMid meet" version="1.0" zoomAndPan="magnify"><metadata id="metadata4"><rdf:RDF xmlns:rdf="http://www.w3.org/1999/02/22-rdf-syntax-ns#" id="RDF5"><cc:Work xmlns:cc="http://web.resource.org/cc/" id="Work6"><dc:format xmlns:dc="http://purl.org/dc/elements/1.1/" id="format7">image/svg+xml</dc:format><dc:type xmlns:dc="http://purl.org/dc/elements/1.1/" id="type9" rdf:resource="http://purl.org/dc/dcmitype/StillImage"/></cc:Work></rdf:RDF></metadata><g id="layer1"><g id="g8923" transform="translate(-0.192783,0.111670)"><path style="font-size:180;font-style:normal;font-variant:normal;font-weight:700;font-stretch:normal;fill:#000;fill-opacity:1;stroke:#000;stroke-width:.62629706;stroke-linecap:butt;stroke-linejoin:miter;stroke-miterlimit:4;stroke-opacity:1;display:block;font-family:Bitstream Vera Sans;text-anchor:start;writing-mode:lr" id="path8848" d="M 13.771847,12.145666 L 9.2085863,14.761626 L 13.733087,17.906136 L 12.443467,19.754826 L 8.3405668,16.812416 L 8.3405668,20.180326 L 6.2937268,20.180326 L 6.3619268,16.880616 L 2.1582668,19.335846 L 1.2716467,17.408066 L 5.6814568,14.748236 L 1.1910567,11.917896 L 2.3613268,10.178777 L 6.3278268,12.599906 L 6.2937268,9.0614966 L 8.3405668,9.0614966 L 8.4087668,12.634006 L 12.663587,10.439546 L 13.771847,12.145666 z"/><path style="font-size:180;font-style:normal;font-variant:normal;font-weight:700;font-stretch:normal;fill:#000;fill-opacity:1;stroke:#000;stroke-width:.62629706;stroke-linecap:butt;stroke-linejoin:miter;stroke-miterlimit:4;stroke-opacity:1;display:block;font-family:Bitstream Vera Sans;text-anchor:start;writing-mode:lr" id="path8933" d="M 23.647757,11.812033 L 25.799660,13.983095 L 25.822070,16.033725 L 23.560042,18.226314 L 24.984638,19.696028 L 29.717618,15.108340 L 25.129930,10.375361 L 23.647757,11.812033 z"/><path id="path8934" style="fill:none;fill-opacity:.75;fill-rule:evenodd;stroke:#000;stroke-width:2.5;stroke-linecap:butt;stroke-linejoin:miter;stroke-miterlimit:4;stroke-opacity:1" d="M 0.92602820,4.4881574 C 3.0999729,4.4970433 5.2739177,4.5059293 7.4478624,4.5148152 C 14.845172,4.5148152 16.867063,14.880590 20.273260,14.880590 C 24.257411,14.898361 23.029214,14.916133 27.013365,14.933905 M 0.93751315,25.532670 C 3.1114579,25.523784 5.2854027,25.514898 7.4593474,25.506012 C 14.828058,25.506012 16.875897,14.947336 20.284745,14.947336 C 24.268896,14.929564 23.040699,14.911793 27.024850,14.894021"/></g></g></svg>