<svg xmlns="http://www.w3.org/2000/svg" xmlns:cc="http://web.resource.org/cc/" xmlns:svg="http://www.w3.org/2000/svg" id="svg4046" width="32" height="32" contentScriptType="text/ecmascript" contentStyleType="text/css" preserveAspectRatio="xMidYMid meet" version="1.0" zoomAndPan="magnify"><metadata id="metadata4"/><g id="layer1"><path style="fill:#000;fill-opacity:1;fill-rule:evenodd;stroke:none;stroke-width:1px;stroke-linecap:round;stroke-linejoin:round;stroke-opacity:1" id="path3552" d="M 1.6180425,1.7344634 C 1.3526025,1.7649359 1.1541792,1.971471 1.1562528,2.2151318 L 1.1562528,24.776507 C 1.1535611,24.949854 1.2535586,25.111092 1.4179545,25.198481 C 1.5823503,25.285869 1.7856746,25.285869 1.9500705,25.198481 C 2.1144664,25.111092 2.2144639,24.949854 2.2117722,24.776507 L 2.2117722,2.6958003 L 15.50472,2.6958003 C 15.695049,2.6982518 15.872084,2.6071769 15.968033,2.4574499 C 16.063983,2.3077228 16.063983,2.1225408 15.968033,1.9728138 C 15.872084,1.8230867 15.695049,1.7320119 15.50472,1.7344634 L 1.6840125,1.7344634 C 1.662044,1.7332105 1.640011,1.7332105 1.6180425,1.7344634 L 1.6180425,1.7344634 z"/><path id="path3705" d="M 25.302894,26.508602 C 25.568334,26.47813 25.766758,26.271594 25.764684,26.027934 L 25.764684,3.466557 C 25.767375,3.2932107 25.667377,3.1319724 25.502982,3.044584 C 25.338586,2.9571956 25.135262,2.9571956 24.970866,3.044584 C 24.80647,3.1319724 24.706473,3.2932107 24.709164,3.466557 L 24.709164,25.547265 L 11.416217,25.547265 C 11.225888,25.544814 11.048853,25.635888 10.952903,25.785615 C 10.856953,25.935342 10.856953,26.120525 10.952903,26.270251 C 11.048853,26.419978 11.225888,26.511053 11.416217,26.508602 L 25.236924,26.508602 C 25.258892,26.509855 25.280925,26.509855 25.302894,26.508602 L 25.302894,26.508602 z" style="fill:#ca0000;fill-opacity:1;fill-rule:evenodd;stroke:none;stroke-width:1px;stroke-linecap:round;stroke-linejoin:round;stroke-opacity:1"/><path style="fill:none;fill-opacity:1;fill-rule:evenodd;stroke:#000;stroke-width:.99999982px;stroke-linecap:round;stroke-linejoin:round;stroke-opacity:1" id="path3712" d="M 24.57558,1.1336279 C 20.102693,3.6864909 23.792286,10.08735 22.596482,14.051594 C 24.118617,21.516366 22.000215,25.665438 13.096811,23.634922 C 8.159047,21.966919 7.4005053,29.445527 12.470097,28.441607 C 17.20143,27.368293 24.239088,30.594812 27.709152,26.879434 C 27.65592,18.737645 28.624172,9.9948113 27.280348,1.9747978 C 26.672612,1.2452567 25.556485,0.87616593 24.57558,1.1336279 z"/><g style="fill:#ca0000;fill-opacity:1;stroke:#ca0000;stroke-opacity:1" id="g3716" transform="matrix(0.624818,0,0,0.569066,17.63359,7.735487)"><path style="fill:#ca0000;fill-opacity:1;fill-rule:evenodd;stroke:#ca0000;stroke-width:.24818132pt;stroke-linecap:butt;stroke-linejoin:miter;stroke-opacity:1" id="path3718" d="M -0.21480011,8.4207544 L -8.4530501,2.76646 L -8.4048431,14.334445 L -0.21480011,8.4207544 z"/><path style="fill:#ca0000;fill-opacity:1;fill-rule:evenodd;stroke:#ca0000;stroke-width:3.29406548;stroke-linecap:butt;stroke-linejoin:miter;stroke-miterlimit:4;stroke-opacity:1" id="path3720" d="M -7.8927021,8.211564 L -16.264641,8.211564"/></g></g></svg>