<svg id="svg10039" width="32" height="32" contentScriptType="text/ecmascript" contentStyleType="text/css" preserveAspectRatio="xMidYMid meet" version="1.0" zoomAndPan="magnify"><metadata id="metadata4"><rdf:RDF xmlns:rdf="http://www.w3.org/1999/02/22-rdf-syntax-ns#" id="RDF5"><cc:Work xmlns:cc="http://web.resource.org/cc/" id="Work6"><dc:format xmlns:dc="http://purl.org/dc/elements/1.1/" id="format7">image/svg+xml</dc:format><dc:type xmlns:dc="http://purl.org/dc/elements/1.1/" id="type9" rdf:resource="http://purl.org/dc/dcmitype/StillImage"/></cc:Work></rdf:RDF></metadata><g id="layer1"><g id="g10119" transform="translate(112.8893,-138.9075)"><path style="fill:#bab5ab;stroke:#000;stroke-linecap:square;stroke-linejoin:bevel;stroke-dashoffset:0" id="path3434" d="M 44.738081,32.591033 L 57.487393,39.727613 L 57.487393,53.433392 L 45.748003,45.479248 L 44.738081,32.591033 z" transform="translate(-155.3155,113.9844)"/><path style="fill:#bab5ab;stroke:#000;stroke-width:1.2125;stroke-linecap:square;stroke-linejoin:bevel;stroke-dashoffset:0" id="path3435" d="M 57.764203,39.801420 L 69.912763,33.621586 L 68.897901,45.643866 L 57.786398,53.910593 L 57.764203,39.801420 z" transform="translate(-155.3155,113.9844)"/><path style="fill:#900;fill-rule:evenodd;stroke:#000;stroke-linejoin:round" id="path3436" d="M 56.479187,28.297650 L 44.582352,29.673751 L 57.877002,35.453103 L 70.443190,30.555158 L 56.479187,28.297650 z" transform="translate(-155.3155,113.9844)"/><path style="fill:#900;fill-rule:evenodd;stroke:#000;stroke-linejoin:round" id="path3437" d="M 44.682419,29.664014 L 44.764766,32.667936 L 57.646520,39.772537 L 58.208828,35.404799 L 44.682419,29.664014 z" transform="translate(-155.3155,113.9844)"/><path style="fill:#900;fill-rule:evenodd;stroke:#000;stroke-linejoin:round" id="path3438" d="M 70.501100,30.366148 L 57.848739,35.451226 L 57.742263,39.886610 L 69.945176,33.640843 L 70.501100,30.366148 z" transform="translate(-155.3155,113.9844)"/></g></g></svg>