<svg xmlns="http://www.w3.org/2000/svg" xmlns:svg="http://www.w3.org/2000/svg" xmlns:xlink="http://www.w3.org/1999/xlink" id="svg4046" width="30" height="30" contentScriptType="text/ecmascript" contentStyleType="text/css" preserveAspectRatio="xMidYMid meet" version="1.0" zoomAndPan="magnify"><defs id="defs3"><linearGradient id="linearGradient3204"><stop id="stop3206" offset="0" style="stop-color:#5c5c5c;stop-opacity:1"/><stop id="stop3208" offset="1" style="stop-color:#bab5ab;stop-opacity:0"/></linearGradient><marker id="Arrow2Lend" orient="auto" refX="0" refY="0" style="overflow:visible"><path id="path3133" style="font-size:12;fill-rule:evenodd;stroke-width:.625;stroke-linejoin:round" d="M 8.7185878,4.0337352 L -2.2072895,0.016013256 L 8.7185884,-4.0017078 C 6.9730900,-1.6296469 6.9831476,1.6157441 8.7185878,4.0337352 z" transform="scale(1.1) rotate(180) translate(-5,0)"/></marker><linearGradient id="linearGradient12426"><stop id="stop12427" offset="0" style="stop-color:#eae8e3;stop-opacity:1"/><stop id="stop12428" offset="1" style="stop-color:#807d74;stop-opacity:1"/></linearGradient><linearGradient id="linearGradient3202" x1="2.836" x2="26.753" y1="3.152" y2="26.597" gradientUnits="userSpaceOnUse" xlink:href="#linearGradient3204"/><linearGradient id="linearGradient3216" x1="2.836" x2="26.753" y1="3.152" y2="26.597" gradientUnits="userSpaceOnUse" xlink:href="#linearGradient3204"/></defs><metadata id="metadata4"/><g id="layer1"><g id="g3178"><g id="g2424" transform="matrix(0.764123,0,0,0.764123,3.6431781,4.3611825)"><g id="g6123" transform="translate(115.9812,-472.5443)"><path style="fill:#bab5ab;stroke:#000;stroke-linecap:square;stroke-linejoin:bevel;stroke-dashoffset:0" id="path6300" d="M -114.00505,478.41079 L -101.25573,485.54737 L -101.25573,499.25315 L -112.99512,491.29901 L -114.00505,478.41079 z"/><path style="fill:gray;fill-opacity:1;stroke:#000;stroke-width:1.21249998;stroke-linecap:square;stroke-linejoin:bevel;stroke-dashoffset:0" id="path6301" d="M -100.97892,485.62118 L -88.830368,479.44134 L -89.84523,491.46362 L -100.95673,499.73035 L -100.97892,485.62118 z"/><path style="fill:silver;fill-opacity:1;stroke:#000;stroke-linecap:square;stroke-linejoin:bevel;stroke-dashoffset:0" id="path6302" d="M -102.48359,475.52909 L -88.558914,479.71493 L -100.94113,485.36659 L -114.11586,478.54771 L -102.48359,475.52909 z"/><path style="fill:#000;fill-opacity:1;fill-rule:nonzero;stroke:#807d74;stroke-width:0;stroke-linecap:square;stroke-linejoin:bevel;stroke-miterlimit:4;stroke-dashoffset:0;stroke-opacity:1" id="path6303" d="M -93.188063,-87.276924 A 3.4174511,3.4174511 0 1 1 -100.02297,-87.276924 A 3.4174511,3.4174511 0 1 1 -93.188063,-87.276924 z" transform="matrix(0.496913,0,0,0.496913,-41.32945,523.1405)"/><path style="fill:#000;fill-opacity:1;fill-rule:nonzero;stroke:#807d74;stroke-width:0;stroke-linecap:square;stroke-linejoin:bevel;stroke-miterlimit:4;stroke-dashoffset:0;stroke-opacity:1" id="path6304" d="M -93.188063,-87.276924 A 3.4174511,3.4174511 0 1 1 -100.02297,-87.276924 A 3.4174511,3.4174511 0 1 1 -93.188063,-87.276924 z" transform="matrix(0.496913,0,0,0.496913,-54.56047,518.7757)"/><path style="fill:#000;fill-opacity:1;fill-rule:nonzero;stroke:#807d74;stroke-width:0;stroke-linecap:square;stroke-linejoin:bevel;stroke-miterlimit:4;stroke-dashoffset:0;stroke-opacity:1" id="path6305" d="M -93.188063,-87.276924 A 3.4174511,3.4174511 0 1 1 -100.02297,-87.276924 A 3.4174511,3.4174511 0 1 1 -93.188063,-87.276924 z" transform="matrix(0.496913,0,0,0.496913,-65.47261,521.7765)"/><path style="fill:#000;fill-opacity:1;fill-rule:nonzero;stroke:#807d74;stroke-width:0;stroke-linecap:square;stroke-linejoin:bevel;stroke-miterlimit:4;stroke-dashoffset:0;stroke-opacity:1" id="path6306" d="M -93.188063,-87.276924 A 3.4174511,3.4174511 0 1 1 -100.02297,-87.276924 A 3.4174511,3.4174511 0 1 1 -93.188063,-87.276924 z" transform="matrix(0.496913,0,0,0.496913,-53.19645,528.733)"/><path style="fill:#000;fill-opacity:1;fill-rule:nonzero;stroke:#807d74;stroke-width:0;stroke-linecap:square;stroke-linejoin:bevel;stroke-miterlimit:4;stroke-dashoffset:0;stroke-opacity:1" id="path6307" d="M -93.188063,-87.276924 A 3.4174511,3.4174511 0 1 1 -100.02297,-87.276924 A 3.4174511,3.4174511 0 1 1 -93.188063,-87.276924 z" transform="matrix(0.496913,0,0,0.496913,-42.01151,534.5983)"/><path style="fill:#000;fill-opacity:1;fill-rule:nonzero;stroke:#807d74;stroke-width:0;stroke-linecap:square;stroke-linejoin:bevel;stroke-miterlimit:4;stroke-dashoffset:0;stroke-opacity:1" id="path6308" d="M -93.188063,-87.276924 A 3.4174511,3.4174511 0 1 1 -100.02297,-87.276924 A 3.4174511,3.4174511 0 1 1 -93.188063,-87.276924 z" transform="matrix(0.496913,0,0,0.496913,-52.78724,542.1004)"/><path style="fill:#000;fill-opacity:1;fill-rule:nonzero;stroke:#807d74;stroke-width:0;stroke-linecap:square;stroke-linejoin:bevel;stroke-miterlimit:4;stroke-dashoffset:0;stroke-opacity:1" id="path6309" d="M -93.188063,-87.276924 A 3.4174511,3.4174511 0 1 1 -100.02297,-87.276924 A 3.4174511,3.4174511 0 1 1 -93.188063,-87.276924 z" transform="matrix(0.496913,0,0,0.496913,-64.79061,534.5983)"/></g><path style="fill:#df421e;fill-opacity:1;fill-rule:nonzero;stroke:#000;stroke-width:.7856797;stroke-linecap:square;stroke-linejoin:bevel;stroke-miterlimit:4;stroke-dasharray:none;stroke-dashoffset:0;stroke-opacity:1" id="path6109" d="M -94.193431,-87.276924 A 2.4120836,2.4120836 0 1 1 -99.017598,-87.276924 A 2.4120836,2.4120836 0 1 1 -94.193431,-87.276924 z" transform="matrix(1.145505,0,0,1.145505,125.6336,112.91729)"/><use id="use3334" width="30" height="30" x="0" y="0" transform="translate(11.804449,-5.3263977)" xlink:href="#path6109"/><use id="use3336" width="30" height="30" x="0" y="0" transform="translate(-12.812146,-6.9818997)" xlink:href="#path6109"/><use id="use3338" width="30" height="30" x="0" y="0" transform="translate(-1.2236319,-9.8610336)" xlink:href="#path6109"/><use id="use3340" width="30" height="30" x="0" y="0" transform="translate(11.228622,5.4703544)" xlink:href="#path6109"/><use id="use3342" width="30" height="30" x="0" y="0" transform="translate(0,13.603908)" xlink:href="#path6109"/></g><path id="path2496" d="M -0.0098039272,27.22837 L -0.0098039272,2.5381915 L 5.223513,2.5381915 L 5.223513,4.502333 L 2.3629835,4.502333 L 2.3629835,25.264229 L 5.223513,25.264229 L 5.223513,27.22837 L -0.0098039272,27.22837" style="font-size:16px;font-style:normal;font-variant:normal;font-weight:400;font-stretch:normal;fill:#000;fill-opacity:1;stroke:none;stroke-width:1px;stroke-linecap:butt;stroke-linejoin:miter;stroke-opacity:1;font-family:Arial;-inkscape-font-specification:Arial"/><path id="path2494" d="M 30.138777,27.22837 L 24.90546,27.22837 L 24.90546,25.264229 L 27.76599,25.264229 L 27.76599,4.502333 L 24.90546,4.502333 L 24.90546,2.5381915 L 30.138777,2.5381915 L 30.138777,27.22837" style="font-size:16px;font-style:normal;font-variant:normal;font-weight:400;font-stretch:normal;fill:#000;fill-opacity:1;stroke:none;stroke-width:1px;stroke-linecap:butt;stroke-linejoin:miter;stroke-opacity:1;font-family:Arial;-inkscape-font-specification:Arial"/></g></g></svg>