<svg id="svg3542" width="32" height="32" contentScriptType="text/ecmascript" contentStyleType="text/css" preserveAspectRatio="xMidYMid meet" version="1.0" zoomAndPan="magnify"><metadata id="metadata4"><rdf:RDF xmlns:rdf="http://www.w3.org/1999/02/22-rdf-syntax-ns#" id="RDF5"><cc:Work xmlns:cc="http://web.resource.org/cc/" id="Work6"><dc:format xmlns:dc="http://purl.org/dc/elements/1.1/" id="format7"/><dc:type xmlns:dc="http://purl.org/dc/elements/1.1/" id="type9" rdf:resource="http://purl.org/dc/dcmitype/StillImage"/></cc:Work></rdf:RDF></metadata><g id="layer1"><g id="g2863" transform="translate(-0.172993,5.001948e-2)"><path style="fill:#bab5ab;fill-opacity:1;fill-rule:nonzero;stroke:#000;stroke-width:.88133764;stroke-linecap:square;stroke-linejoin:bevel;stroke-miterlimit:4;stroke-dashoffset:0;stroke-opacity:1" id="path4561" d="M 5.3253335,5.6943300 L 14.801818,8.8784039 L 22.252839,6.0825397 L 23.934974,8.5854938 L 22.627141,13.113911 L 12.413270,20.152501 L 20.513785,26.820372 L 10.406761,20.598638 L 6.7619292,23.346813 L 7.0642760,19.221279 L 13.457684,9.8669208 L 5.3253335,5.6943300 z" transform="translate(0.414559,0.109330)"/><path style="fill:#000;fill-opacity:1;fill-rule:nonzero;stroke:#807d74;stroke-width:0;stroke-linecap:square;stroke-linejoin:bevel;stroke-miterlimit:4;stroke-dashoffset:0;stroke-opacity:1" id="path4563" d="M -93.188063 -87.276924 A 3.4174511 3.4174511 0 1 1 -100.02297,-87.276924 A 3.4174511 3.4174511 0 1 1 -93.188063 -87.276924 z" transform="matrix(0.496913,0.000000,0.000000,0.496913,54.58803,48.99315)"/><path style="fill:#000;fill-opacity:1;fill-rule:nonzero;stroke:#807d74;stroke-width:0;stroke-linecap:square;stroke-linejoin:bevel;stroke-miterlimit:4;stroke-dashoffset:0;stroke-opacity:1" id="path4564" d="M -93.188063 -87.276924 A 3.4174511 3.4174511 0 1 1 -100.02297,-87.276924 A 3.4174511 3.4174511 0 1 1 -93.188063 -87.276924 z" transform="matrix(0.496913,0.000000,0.000000,0.496913,70.36148,50.18535)"/><path style="fill:#000;fill-opacity:1;fill-rule:nonzero;stroke:#807d74;stroke-width:0;stroke-linecap:square;stroke-linejoin:bevel;stroke-miterlimit:4;stroke-dashoffset:0;stroke-opacity:1" id="path4565" d="M -93.188063 -87.276924 A 3.4174511 3.4174511 0 1 1 -100.02297,-87.276924 A 3.4174511 3.4174511 0 1 1 -93.188063 -87.276924 z" transform="matrix(0.496913,0.000000,0.000000,0.496913,61.47276,53.59924)"/><path style="fill:#000;fill-opacity:1;fill-rule:nonzero;stroke:#807d74;stroke-width:0;stroke-linecap:square;stroke-linejoin:bevel;stroke-miterlimit:4;stroke-dashoffset:0;stroke-opacity:1" id="path4566" d="M -93.188063 -87.276924 A 3.4174511 3.4174511 0 1 1 -100.02297,-87.276924 A 3.4174511 3.4174511 0 1 1 -93.188063 -87.276924 z" transform="matrix(0.496913,0.000000,0.000000,0.496913,71.02474,56.09388)"/><path style="fill:#000;fill-opacity:1;fill-rule:nonzero;stroke:#807d74;stroke-width:0;stroke-linecap:square;stroke-linejoin:bevel;stroke-miterlimit:4;stroke-dashoffset:0;stroke-opacity:1" id="path4567" d="M -93.188063 -87.276924 A 3.4174511 3.4174511 0 1 1 -100.02297,-87.276924 A 3.4174511 3.4174511 0 1 1 -93.188063 -87.276924 z" transform="matrix(0.496913,0.000000,0.000000,0.496913,55.20460,66.35770)"/><path style="fill:#000;fill-opacity:1;fill-rule:nonzero;stroke:#807d74;stroke-width:0;stroke-linecap:square;stroke-linejoin:bevel;stroke-miterlimit:4;stroke-dashoffset:0;stroke-opacity:1" id="path4568" d="M -93.188063 -87.276924 A 3.4174511 3.4174511 0 1 1 -100.02297,-87.276924 A 3.4174511 3.4174511 0 1 1 -93.188063 -87.276924 z" transform="matrix(0.496913,0.000000,0.000000,0.496913,62.15546,63.54720)"/><path style="fill:#000;fill-opacity:1;fill-rule:nonzero;stroke:#807d74;stroke-width:0;stroke-linecap:square;stroke-linejoin:bevel;stroke-miterlimit:4;stroke-dashoffset:0;stroke-opacity:1" id="path4569" d="M -93.188063 -87.276924 A 3.4174511 3.4174511 0 1 1 -100.02297,-87.276924 A 3.4174511 3.4174511 0 1 1 -93.188063 -87.276924 z" transform="matrix(0.496913,0.000000,0.000000,0.496913,55.49220,61.89719)"/><path style="fill:#000;fill-opacity:1;fill-rule:nonzero;stroke:#807d74;stroke-width:0;stroke-linecap:square;stroke-linejoin:bevel;stroke-miterlimit:4;stroke-dashoffset:0;stroke-opacity:1" id="path4570" d="M -93.188063 -87.276924 A 3.4174511 3.4174511 0 1 1 -100.02297,-87.276924 A 3.4174511 3.4174511 0 1 1 -93.188063 -87.276924 z" transform="matrix(0.496913,0.000000,0.000000,0.496913,66.06265,68.01044)"/><path style="fill:#000;fill-opacity:1;fill-rule:nonzero;stroke:#807d74;stroke-width:0;stroke-linecap:square;stroke-linejoin:bevel;stroke-miterlimit:4;stroke-dashoffset:0;stroke-opacity:1" id="path4572" d="M -93.188063 -87.276924 A 3.4174511 3.4174511 0 1 1 -100.02297,-87.276924 A 3.4174511 3.4174511 0 1 1 -93.188063 -87.276924 z" transform="matrix(0.496913,0.000000,0.000000,0.496913,64.83996,56.45785)"/><path style="fill:#000;fill-opacity:1;fill-rule:nonzero;stroke:#807d74;stroke-width:0;stroke-linecap:square;stroke-linejoin:bevel;stroke-miterlimit:4;stroke-dashoffset:0;stroke-opacity:1" id="path4573" d="M -93.188063 -87.276924 A 3.4174511 3.4174511 0 1 1 -100.02297,-87.276924 A 3.4174511 3.4174511 0 1 1 -93.188063 -87.276924 z" transform="matrix(0.496913,0.000000,0.000000,0.496913,58.34064,64.39518)"/><path style="fill:none;fill-opacity:.75;fill-rule:evenodd;stroke:#000;stroke-width:.88133764;stroke-linecap:butt;stroke-linejoin:miter;stroke-miterlimit:4;stroke-opacity:1" id="path4575" d="M 10.009258,21.111435 L 16.731339,13.205156 L 14.926938,9.0622975" transform="translate(0.414559,0.109330)"/><path style="fill:none;fill-opacity:.75;fill-rule:evenodd;stroke:#900;stroke-width:2.5;stroke-linecap:butt;stroke-linejoin:miter;stroke-miterlimit:4;stroke-opacity:1" id="path4577" d="M 5.6608126,29.525834 L 1.8043031,23.795193 L 9.5263895,11.692928 L 2.5244159,7.6198413 L 4.7605215,2.0822859 L 12.687214,1.8495144 L 15.598473,6.5357244 L 24.489672,3.0236319" transform="translate(-0.403141,-0.349480)"/><path style="fill:none;fill-opacity:.75;fill-rule:evenodd;stroke:#900;stroke-width:2.5;stroke-linecap:butt;stroke-linejoin:miter;stroke-miterlimit:4;stroke-opacity:1" id="path4578" d="M 4.7704252,29.114584 L 10.244376,24.330265 L 16.586383,28.322952 L 27.268668,28.650516 L 18.660829,20.972678 L 26.865168,15.621956 L 27.868596,8.3659985 L 24.081537,1.6478752" transform="translate(-0.403141,-0.349480)"/></g></g></svg>