<svg xmlns="http://www.w3.org/2000/svg" xmlns:svg="http://www.w3.org/2000/svg" xmlns:xlink="http://www.w3.org/1999/xlink" id="svg4046" width="30" height="30" contentScriptType="text/ecmascript" contentStyleType="text/css" preserveAspectRatio="xMidYMid meet" version="1.0" zoomAndPan="magnify"><defs id="defs3"><linearGradient id="linearGradient3204"><stop id="stop3206" offset="0" style="stop-color:#5c5c5c;stop-opacity:1"/><stop id="stop3208" offset="1" style="stop-color:#bab5ab;stop-opacity:0"/></linearGradient><marker id="Arrow2Lend" orient="auto" refX="0" refY="0" style="overflow:visible"><path id="path3133" style="font-size:12;fill-rule:evenodd;stroke-width:.625;stroke-linejoin:round" d="M 8.7185878,4.0337352 L -2.2072895,0.016013256 L 8.7185884,-4.0017078 C 6.9730900,-1.6296469 6.9831476,1.6157441 8.7185878,4.0337352 z" transform="scale(1.1) rotate(180) translate(-5,0)"/></marker><linearGradient id="linearGradient12426"><stop id="stop12427" offset="0" style="stop-color:#eae8e3;stop-opacity:1"/><stop id="stop12428" offset="1" style="stop-color:#807d74;stop-opacity:1"/></linearGradient><linearGradient id="linearGradient3202" x1="2.836" x2="26.753" y1="3.152" y2="26.597" gradientUnits="userSpaceOnUse" xlink:href="#linearGradient3204"/><linearGradient id="linearGradient3216" x1="2.836" x2="26.753" y1="3.152" y2="26.597" gradientUnits="userSpaceOnUse" xlink:href="#linearGradient3204"/></defs><metadata id="metadata4"/><g id="layer1"><g id="g4199" transform="matrix(1.9441343e-2,0,0,1.93965e-2,7.9695973,4.8240367)"><rect id="rect3440" width="1543.103" height="1543.103" x="-409.93" y="-248.707" style="opacity:1;fill:#c5c5c5;fill-opacity:1;fill-rule:evenodd;stroke:none;stroke-width:1;stroke-linecap:round;stroke-linejoin:round;stroke-miterlimit:4;stroke-dasharray:none;stroke-opacity:1"/><rect style="opacity:1;fill:#c5c5c5;fill-opacity:1;fill-rule:evenodd;stroke:none;stroke-width:1;stroke-linecap:round;stroke-linejoin:round;stroke-miterlimit:4;stroke-dasharray:none;stroke-opacity:1" id="rect3957" width="385.776" height="385.776" x="362.81" y="-248.469"/><rect id="rect4113" width="385.776" height="385.776" x="747.159" y="-248.469" style="opacity:1;fill:#c5c5c5;fill-opacity:1;fill-rule:evenodd;stroke:none;stroke-width:1;stroke-linecap:round;stroke-linejoin:round;stroke-miterlimit:4;stroke-dasharray:none;stroke-opacity:1"/><rect id="rect4115" width="385.776" height="385.776" x="-21.538" y="-248.469" style="opacity:1;fill:#c5c5c5;fill-opacity:1;fill-rule:evenodd;stroke:none;stroke-width:1;stroke-linecap:round;stroke-linejoin:round;stroke-miterlimit:4;stroke-dasharray:none;stroke-opacity:1"/><rect style="opacity:1;fill:#c5c5c5;fill-opacity:1;fill-rule:evenodd;stroke:none;stroke-width:1;stroke-linecap:round;stroke-linejoin:round;stroke-miterlimit:4;stroke-dasharray:none;stroke-opacity:1" id="rect4117" width="385.776" height="385.776" x="-405.887" y="-248.469"/><rect id="rect4119" width="385.776" height="385.776" x="362.81" y="-248.469" style="opacity:1;fill:gold;fill-opacity:1;fill-rule:evenodd;stroke:none;stroke-width:1;stroke-linecap:round;stroke-linejoin:round;stroke-miterlimit:4;stroke-dasharray:none;stroke-opacity:1"/><rect style="opacity:1;fill:#4169e1;fill-opacity:1;fill-rule:evenodd;stroke:none;stroke-width:1;stroke-linecap:round;stroke-linejoin:round;stroke-miterlimit:4;stroke-dasharray:none;stroke-opacity:1" id="rect4121" width="385.776" height="385.776" x="747.159" y="-248.469"/><rect style="opacity:1;fill:#4169e1;fill-opacity:1;fill-rule:evenodd;stroke:none;stroke-width:1;stroke-linecap:round;stroke-linejoin:round;stroke-miterlimit:4;stroke-dasharray:none;stroke-opacity:1" id="rect4123" width="385.776" height="385.776" x="-21.538" y="-248.469"/><rect id="rect4125" width="385.776" height="385.776" x="-405.887" y="-248.469" style="opacity:1;fill:gold;fill-opacity:1;fill-rule:evenodd;stroke:none;stroke-width:1;stroke-linecap:round;stroke-linejoin:round;stroke-miterlimit:4;stroke-dasharray:none;stroke-opacity:1"/><rect id="rect4151" width="385.776" height="385.776" x="362.81" y="139.685" style="opacity:1;fill:#c5c5c5;fill-opacity:1;fill-rule:evenodd;stroke:none;stroke-width:1;stroke-linecap:round;stroke-linejoin:round;stroke-miterlimit:4;stroke-dasharray:none;stroke-opacity:1"/><rect style="opacity:1;fill:#c5c5c5;fill-opacity:1;fill-rule:evenodd;stroke:none;stroke-width:1;stroke-linecap:round;stroke-linejoin:round;stroke-miterlimit:4;stroke-dasharray:none;stroke-opacity:1" id="rect4153" width="385.776" height="385.776" x="747.159" y="139.685"/><rect style="opacity:1;fill:#c5c5c5;fill-opacity:1;fill-rule:evenodd;stroke:none;stroke-width:1;stroke-linecap:round;stroke-linejoin:round;stroke-miterlimit:4;stroke-dasharray:none;stroke-opacity:1" id="rect4155" width="385.776" height="385.776" x="-21.538" y="139.685"/><rect id="rect4157" width="385.776" height="385.776" x="-405.887" y="139.685" style="opacity:1;fill:#c5c5c5;fill-opacity:1;fill-rule:evenodd;stroke:none;stroke-width:1;stroke-linecap:round;stroke-linejoin:round;stroke-miterlimit:4;stroke-dasharray:none;stroke-opacity:1"/><rect style="opacity:1;fill:#4169e1;fill-opacity:1;fill-rule:evenodd;stroke:none;stroke-width:1;stroke-linecap:round;stroke-linejoin:round;stroke-miterlimit:4;stroke-dasharray:none;stroke-opacity:1" id="rect4159" width="385.776" height="385.776" x="362.81" y="139.685"/><rect id="rect4161" width="385.776" height="385.776" x="747.159" y="139.685" style="opacity:1;fill:gold;fill-opacity:1;fill-rule:evenodd;stroke:none;stroke-width:1;stroke-linecap:round;stroke-linejoin:round;stroke-miterlimit:4;stroke-dasharray:none;stroke-opacity:1"/><rect id="rect4163" width="385.776" height="385.776" x="-21.538" y="139.685" style="opacity:1;fill:gold;fill-opacity:1;fill-rule:evenodd;stroke:none;stroke-width:1;stroke-linecap:round;stroke-linejoin:round;stroke-miterlimit:4;stroke-dasharray:none;stroke-opacity:1"/><rect style="opacity:1;fill:#4169e1;fill-opacity:1;fill-rule:evenodd;stroke:none;stroke-width:1;stroke-linecap:round;stroke-linejoin:round;stroke-miterlimit:4;stroke-dasharray:none;stroke-opacity:1" id="rect4165" width="385.776" height="385.776" x="-405.887" y="139.685"/><rect id="rect4167" width="385.776" height="385.776" x="362.81" y="524.034" style="opacity:1;fill:#c5c5c5;fill-opacity:1;fill-rule:evenodd;stroke:none;stroke-width:1;stroke-linecap:round;stroke-linejoin:round;stroke-miterlimit:4;stroke-dasharray:none;stroke-opacity:1"/><rect style="opacity:1;fill:#c5c5c5;fill-opacity:1;fill-rule:evenodd;stroke:none;stroke-width:1;stroke-linecap:round;stroke-linejoin:round;stroke-miterlimit:4;stroke-dasharray:none;stroke-opacity:1" id="rect4169" width="385.776" height="385.776" x="747.159" y="524.034"/><rect style="opacity:1;fill:#c5c5c5;fill-opacity:1;fill-rule:evenodd;stroke:none;stroke-width:1;stroke-linecap:round;stroke-linejoin:round;stroke-miterlimit:4;stroke-dasharray:none;stroke-opacity:1" id="rect4171" width="385.776" height="385.776" x="-21.538" y="524.034"/><rect id="rect4173" width="385.776" height="385.776" x="-405.887" y="524.034" style="opacity:1;fill:#c5c5c5;fill-opacity:1;fill-rule:evenodd;stroke:none;stroke-width:1;stroke-linecap:round;stroke-linejoin:round;stroke-miterlimit:4;stroke-dasharray:none;stroke-opacity:1"/><rect style="opacity:1;fill:gold;fill-opacity:1;fill-rule:evenodd;stroke:none;stroke-width:1;stroke-linecap:round;stroke-linejoin:round;stroke-miterlimit:4;stroke-dasharray:none;stroke-opacity:1" id="rect4175" width="385.776" height="385.776" x="362.81" y="524.034"/><rect id="rect4177" width="385.776" height="385.776" x="747.159" y="524.034" style="opacity:1;fill:#777;fill-opacity:1;fill-rule:evenodd;stroke:none;stroke-width:1;stroke-linecap:round;stroke-linejoin:round;stroke-miterlimit:4;stroke-dasharray:none;stroke-opacity:1"/><rect id="rect4179" width="385.776" height="385.776" x="-21.538" y="524.034" style="opacity:1;fill:#4169e1;fill-opacity:1;fill-rule:evenodd;stroke:none;stroke-width:1;stroke-linecap:round;stroke-linejoin:round;stroke-miterlimit:4;stroke-dasharray:none;stroke-opacity:1"/><rect style="opacity:1;fill:gold;fill-opacity:1;fill-rule:evenodd;stroke:none;stroke-width:1;stroke-linecap:round;stroke-linejoin:round;stroke-miterlimit:4;stroke-dasharray:none;stroke-opacity:1" id="rect4181" width="385.776" height="385.776" x="-405.887" y="524.034"/><rect style="opacity:1;fill:#c5c5c5;fill-opacity:1;fill-rule:evenodd;stroke:none;stroke-width:1;stroke-linecap:round;stroke-linejoin:round;stroke-miterlimit:4;stroke-dasharray:none;stroke-opacity:1" id="rect4183" width="385.776" height="385.776" x="362.81" y="912.188"/><rect id="rect4185" width="385.776" height="385.776" x="747.159" y="912.188" style="opacity:1;fill:#c5c5c5;fill-opacity:1;fill-rule:evenodd;stroke:none;stroke-width:1;stroke-linecap:round;stroke-linejoin:round;stroke-miterlimit:4;stroke-dasharray:none;stroke-opacity:1"/><rect id="rect4187" width="385.776" height="385.776" x="-21.538" y="912.188" style="opacity:1;fill:#c5c5c5;fill-opacity:1;fill-rule:evenodd;stroke:none;stroke-width:1;stroke-linecap:round;stroke-linejoin:round;stroke-miterlimit:4;stroke-dasharray:none;stroke-opacity:1"/><rect style="opacity:1;fill:#c5c5c5;fill-opacity:1;fill-rule:evenodd;stroke:none;stroke-width:1;stroke-linecap:round;stroke-linejoin:round;stroke-miterlimit:4;stroke-dasharray:none;stroke-opacity:1" id="rect4189" width="385.776" height="385.776" x="-405.887" y="912.188"/><rect id="rect4191" width="385.776" height="385.776" x="362.81" y="912.188" style="opacity:1;fill:#4169e1;fill-opacity:1;fill-rule:evenodd;stroke:none;stroke-width:1;stroke-linecap:round;stroke-linejoin:round;stroke-miterlimit:4;stroke-dasharray:none;stroke-opacity:1"/><rect style="opacity:1;fill:gold;fill-opacity:1;fill-rule:evenodd;stroke:none;stroke-width:1;stroke-linecap:round;stroke-linejoin:round;stroke-miterlimit:4;stroke-dasharray:none;stroke-opacity:1" id="rect4193" width="385.776" height="385.776" x="747.159" y="912.188"/><rect style="opacity:1;fill:gold;fill-opacity:1;fill-rule:evenodd;stroke:none;stroke-width:1;stroke-linecap:round;stroke-linejoin:round;stroke-miterlimit:4;stroke-dasharray:none;stroke-opacity:1" id="rect4195" width="385.776" height="385.776" x="-21.538" y="912.188"/><rect id="rect4197" width="385.776" height="385.776" x="-405.887" y="912.188" style="opacity:1;fill:#4169e1;fill-opacity:1;fill-rule:evenodd;stroke:none;stroke-width:1;stroke-linecap:round;stroke-linejoin:round;stroke-miterlimit:4;stroke-dasharray:none;stroke-opacity:1"/></g><path id="path2391" d="M 11.790646,1.8544613 C 12.550261,1.0948413 13.853932,1.0948413 14.613548,1.8544613 C 15.378964,2.6198687 15.389997,3.9160339 14.621121,4.6849365 C 13.852212,5.4538132 12.556055,5.4427802 11.790646,4.6773701 C 11.031027,3.9177526 11.031027,2.6140757 11.790646,1.8544613 z M 6.1372687,8.2777113 C 6.6827597,7.7322509 7.6466707,7.7189935 8.1978429,8.2701725 C 8.7598169,8.8321243 8.7598169,9.7763326 8.1978429,10.338284 C 7.6466707,10.889462 6.6827247,10.876208 6.1372687,10.330748 C 5.6028437,9.7962926 5.6028137,8.8121602 6.1372687,8.2777113 z M 0.31030575,14.527383 C 0.72405475,14.113628 1.5269097,14.113628 1.9406647,14.527383 C 2.3719497,14.958669 2.3877107,15.725773 1.9482007,16.165276 C 1.5086987,16.604752 0.74159075,16.588997 0.31030575,16.157706 C -0.10344725,15.743984 -0.10342325,14.941106 0.31030575,14.527383 z M 16.862842,6.9266613 C 18.16375,5.6257315 20.317073,5.6257315 21.618011,6.9266613 C 22.251921,7.5605756 22.569634,8.3928272 22.584139,9.2514103 C 22.57937,9.7380396 22.845027,10.162062 23.150239,10.406228 C 23.414443,10.617588 23.863859,10.83065 24.448457,10.693051 C 25.944136,10.407768 27.469895,10.846278 28.62245,11.998833 C 30.459184,13.835571 30.459184,16.84954 28.62245,18.686254 C 27.47305,19.835672 25.88347,20.262161 24.388084,19.976959 C 23.805076,19.839716 23.395811,20.082392 23.150239,20.278857 C 22.833806,20.532022 22.571779,20.984549 22.576602,21.471437 C 22.562096,22.329905 22.254713,23.12175 21.618011,23.758455 C 20.317104,25.059358 18.16375,25.059358 16.862842,23.758455 C 15.561911,22.457526 15.561911,20.304192 16.862842,19.00326 C 17.496753,18.369353 18.329013,18.051634 19.187592,18.037133 C 19.674298,18.041958 20.098276,17.776193 20.342413,17.471059 C 20.553776,17.206833 20.76684,16.757439 20.629229,16.172813 C 20.514801,15.572773 20.52912,15.055983 20.644339,14.451897 C 20.78155,13.868921 20.538876,13.459628 20.342413,13.214058 C 20.089222,12.897543 19.636615,12.635614 19.149842,12.640412 C 18.291388,12.625899 17.49952,12.318503 16.862842,11.681825 C 15.561911,10.380894 15.561911,8.2275631 16.862842,6.9266613 z M 11.790646,13.93109 C 12.550261,13.171474 13.853932,13.171474 14.613548,13.93109 C 15.378964,14.696497 15.389997,15.992657 14.621121,16.761562 C 13.852212,17.530442 12.556055,17.519406 11.790646,16.753999 C 11.031027,15.994382 11.031027,14.690704 11.790646,13.93109 z M 6.1372687,20.354341 C 6.6827247,19.808881 7.6466707,19.795622 8.1978429,20.3468 C 8.7598169,20.90875 8.7598169,21.85296 8.1978429,22.414913 C 7.6466707,22.966095 6.6827247,22.952843 6.1372687,22.407378 C 5.6028137,21.872922 5.6028137,20.888796 6.1372687,20.354341 z M 11.790646,26.007724 C 12.550261,25.2481 13.853932,25.2481 14.613548,26.007724 C 15.378964,26.773132 15.389997,28.069286 14.621121,28.838166 C 13.852212,29.607072 12.556055,29.596036 11.790646,28.83062 C 11.031027,28.071008 11.031027,26.767334 11.790646,26.007724 z" style="fill:#000;stroke:none;stroke-width:.1;stroke-miterlimit:4"/></g></svg>