<svg id="svg10039" width="32" height="32" contentScriptType="text/ecmascript" contentStyleType="text/css" preserveAspectRatio="xMidYMid meet" version="1.0" zoomAndPan="magnify"><metadata id="metadata4"><rdf:RDF xmlns:rdf="http://www.w3.org/1999/02/22-rdf-syntax-ns#" id="RDF5"><cc:Work xmlns:cc="http://web.resource.org/cc/" id="Work6"><dc:format xmlns:dc="http://purl.org/dc/elements/1.1/" id="format7">image/svg+xml</dc:format><dc:type xmlns:dc="http://purl.org/dc/elements/1.1/" id="type9" rdf:resource="http://purl.org/dc/dcmitype/StillImage"/></cc:Work></rdf:RDF></metadata><g id="layer1"><g id="g3077" transform="translate(182.6660,-142.3815)"><path style="fill:#bab5ab;stroke:#000;stroke-width:3.1034405;stroke-linecap:square;stroke-linejoin:bevel;stroke-dashoffset:0" id="path2810" d="M 23.446670 5.0481038 A 9.2335644 2.5899436 0 1 1 4.9795408,5.0481038 A 9.2335644 2.5899436 0 1 1 23.446670 5.0481038 z" transform="matrix(0.349179,0.000000,0.000000,0.297348,-172.3581,152.8276)"/><path style="fill:#bab5ab;stroke:#000;stroke-linecap:square;stroke-linejoin:bevel;stroke-dashoffset:0" id="path2811" d="M 12.403883,12.139277 C 13.403820,12.965741 17.800603,13.003308 18.844654,12.139277 L 18.844654,18.450462 C 17.756488,19.314494 13.447935,19.427195 12.403883,18.450462 L 12.403883,12.139277 z" transform="translate(-183.0339,142.2225)"/><path style="fill:none;fill-opacity:.75;fill-rule:evenodd;stroke:#000" id="path2812" d="M 15.509216,19.105755 L 15.595001,12.796901" transform="translate(-183.0339,142.2225)"/><path style="stroke:#807d74;stroke-width:0;stroke-linecap:square;stroke-linejoin:bevel;stroke-dashoffset:0" id="path2813" d="M -93.188063 -87.276924 A 3.4174511 3.4174511 0 1 1 -100.02297,-87.276924 A 3.4174511 3.4174511 0 1 1 -93.188063 -87.276924 z" transform="matrix(0.223380,0.000000,0.000000,0.147756,-145.8771,174.2579)"/><g id="g2814" transform="translate(-183.1301,143.3767)"><path style="fill:#900;fill-opacity:1;fill-rule:evenodd;stroke:none;stroke-width:.25pt;stroke-linecap:butt;stroke-linejoin:miter;stroke-opacity:1" id="path2815" d="M 18.195367,15.210356 L 26.433617,12.000747 L 26.385410,18.567209 L 18.195367,15.210356 z"/><path style="fill:none;fill-opacity:.75;fill-rule:evenodd;stroke:#900;stroke-width:2.5;stroke-linecap:butt;stroke-linejoin:miter;stroke-miterlimit:4;stroke-opacity:1" id="path2816" d="M 25.873269,15.091611 L 30.201511,15.091611"/></g><g id="g2817" transform="matrix(-1.000000,0.000000,0.000000,1.000000,-152.1509,143.3767)"><path style="fill:#900;fill-opacity:1;fill-rule:evenodd;stroke:none;stroke-width:.25pt;stroke-linecap:butt;stroke-linejoin:miter;stroke-opacity:1" id="path2818" d="M 18.195367,15.210356 L 26.433617,12.000747 L 26.385410,18.567209 L 18.195367,15.210356 z"/><path style="fill:none;fill-opacity:.75;fill-rule:evenodd;stroke:#900;stroke-width:2.5;stroke-linecap:butt;stroke-linejoin:miter;stroke-miterlimit:4;stroke-opacity:1" id="path2819" d="M 25.873269,15.091611 L 30.201511,15.091611"/></g><g id="g2820" transform="matrix(0.000000,1.000000,-1.000000,0.000000,-152.3606,142.8826)"><path style="fill:#900;fill-opacity:1;fill-rule:evenodd;stroke:none;stroke-width:.25pt;stroke-linecap:butt;stroke-linejoin:miter;stroke-opacity:1" id="path2821" d="M 18.195367,15.210356 L 26.433617,12.000747 L 26.385410,18.567209 L 18.195367,15.210356 z"/><path style="fill:none;fill-opacity:.75;fill-rule:evenodd;stroke:#900;stroke-width:2.5;stroke-linecap:butt;stroke-linejoin:miter;stroke-miterlimit:4;stroke-opacity:1" id="path2822" d="M 25.873269,15.091611 L 30.201511,15.091611"/></g><g id="g2823" transform="matrix(0.000000,-1.000000,-1.000000,0.000000,-152.3606,171.6495)"><path style="fill:#900;fill-opacity:1;fill-rule:evenodd;stroke:none;stroke-width:.25pt;stroke-linecap:butt;stroke-linejoin:miter;stroke-opacity:1" id="path2824" d="M 18.195367,15.210356 L 26.433617,12.000747 L 26.385410,18.567209 L 18.195367,15.210356 z"/><path style="fill:none;fill-opacity:.75;fill-rule:evenodd;stroke:#900;stroke-width:2.5;stroke-linecap:butt;stroke-linejoin:miter;stroke-miterlimit:4;stroke-opacity:1" id="path2825" d="M 25.873269,15.091611 L 30.201511,15.091611"/></g></g></g></svg>