<svg id="svg9404" width="32" height="32" contentScriptType="text/ecmascript" contentStyleType="text/css" preserveAspectRatio="xMidYMid meet" version="1.0" zoomAndPan="magnify"><defs id="defs3"><linearGradient id="linearGradient12426"><stop style="stop-color:#eae8e3;stop-opacity:1" id="stop12427" offset="0"/><stop style="stop-color:#807d74;stop-opacity:1" id="stop12428" offset="1"/></linearGradient><radialGradient id="radialGradient9392" cx="105.968" cy="-33.376" r="13.189" fx="100.869" fy="-40.098" gradientTransform="matrix(0.479736,0.000000,0.000000,0.479736,-508.7098,-45.57899)" gradientUnits="userSpaceOnUse"><stop style="stop-color:#eae8e3;stop-opacity:1" id="stop12427radialGradient9392" offset="0"/><stop style="stop-color:#807d74;stop-opacity:1" id="stop12428radialGradient9392" offset="1"/></radialGradient></defs><metadata id="metadata4"><rdf:RDF xmlns:rdf="http://www.w3.org/1999/02/22-rdf-syntax-ns#" id="RDF5"><cc:Work xmlns:cc="http://web.resource.org/cc/" id="Work6"><dc:format xmlns:dc="http://purl.org/dc/elements/1.1/" id="format7">image/svg+xml</dc:format><dc:type xmlns:dc="http://purl.org/dc/elements/1.1/" id="type9" rdf:resource="http://purl.org/dc/dcmitype/StillImage"/></cc:Work></rdf:RDF></metadata><g id="layer1"><g id="g9557" transform="translate(-0.334266,-0.786263)"><path style="fill:#bab5ab;stroke:#000;stroke-width:1.649139;stroke-linecap:square;stroke-linejoin:bevel;stroke-miterlimit:4;stroke-dashoffset:0" id="path9430" d="M 44.738081,32.591033 L 57.487393,39.727613 L 57.487393,53.433392 L 45.748003,45.479248 L 44.738081,32.591033 z" transform="matrix(0.606377,0.000000,0.000000,0.606377,-18.51734,-5.836387)"/><path style="fill:#bab5ab;stroke:#000;stroke-width:1.649139;stroke-linecap:square;stroke-linejoin:bevel;stroke-miterlimit:4;stroke-dashoffset:0" id="path9431" d="M 57.764203,39.801420 L 69.912763,33.621586 L 68.897901,45.643866 L 57.786398,53.910593 L 57.764203,39.801420 z" transform="matrix(0.606377,0.000000,0.000000,0.606377,-18.51734,-5.836387)"/><path style="fill:#bab5ab;stroke:#000;stroke-width:1.649139;stroke-linecap:square;stroke-linejoin:bevel;stroke-miterlimit:4;stroke-dashoffset:0" id="path9432" d="M -76.639263,201.91183 L -62.714583,206.09767 L -75.096800,211.74933 L -88.271528,204.93045 L -76.639263,201.91183 z" transform="matrix(0.606377,0.000000,0.000000,0.606377,62.06944,-110.2559)"/><path style="fill:#000;fill-opacity:1;fill-rule:evenodd;stroke:#000;stroke-width:.78756344;stroke-linecap:butt;stroke-linejoin:miter;stroke-miterlimit:4;stroke-opacity:1" id="path9433" d="M 15.234635,12.112907 L 15.234635,7.8281658 M 15.234634,2.5912601 L 17.342999,7.8961775 L 13.126270,7.8961775 L 15.234634,2.5912601 z" transform="matrix(1.269739,0.000000,0.000000,1.269739,-2.789339,-0.675660)"/><path style="fill:#000;fill-opacity:1;fill-rule:evenodd;stroke:#000;stroke-width:.78756344;stroke-linecap:butt;stroke-linejoin:miter;stroke-miterlimit:4;stroke-opacity:1" id="path9434" d="M 18.017851,16.628492 L 21.409195,19.247230 M 25.554172,22.447910 L 20.066779,20.874420 L 22.643950,17.536906 L 25.554172,22.447910 z" transform="matrix(1.269739,0.000000,0.000000,1.269739,-2.789339,-0.675660)"/><path style="fill:#000;fill-opacity:1;fill-rule:evenodd;stroke:#000;stroke-width:.78756344;stroke-linecap:butt;stroke-linejoin:miter;stroke-miterlimit:4;stroke-opacity:1" id="path9435" d="M 12.328462,16.510144 L 8.9371184,19.128882 M 4.7921414,22.329562 L 10.279534,20.756072 L 7.7023634,17.418558 L 4.7921414,22.329562 z" transform="matrix(1.269739,0.000000,0.000000,1.269739,-2.789339,-0.675660)"/><rect style="opacity:.49765256;fill:#bab5ab;fill-opacity:1;fill-rule:nonzero;stroke:#000;stroke-width:1.9701949;stroke-linecap:square;stroke-linejoin:miter;stroke-miterlimit:4;stroke-dashoffset:0;stroke-opacity:1" id="rect9450" width="18.821" height="16.287" x="357.535" y="-178.25" ry="0" transform="matrix(0.507564,0.000000,0.000000,0.507564,-180.4076,95.33557)"/><path style="opacity:.49765256;fill:#bab5ab;fill-opacity:1;fill-rule:nonzero;stroke:#000;stroke-width:1;stroke-linecap:square;stroke-linejoin:bevel;stroke-miterlimit:4;stroke-dashoffset:0;stroke-opacity:1" id="path9451" d="M 3.9706519,2.9818390 L 9.1587681,2.9643737 L 10.680704,4.7933451 L 1.0617011,4.7137083 L 3.9706519,2.9818390 z"/></g></g></svg>