<svg id="svg10039" width="32" height="32" contentScriptType="text/ecmascript" contentStyleType="text/css" preserveAspectRatio="xMidYMid meet" version="1.0" zoomAndPan="magnify"><metadata id="metadata4"><rdf:RDF xmlns:rdf="http://www.w3.org/1999/02/22-rdf-syntax-ns#" id="RDF5"><cc:Work xmlns:cc="http://web.resource.org/cc/" id="Work6"><dc:format xmlns:dc="http://purl.org/dc/elements/1.1/" id="format7">image/svg+xml</dc:format><dc:type xmlns:dc="http://purl.org/dc/elements/1.1/" id="type9" rdf:resource="http://purl.org/dc/dcmitype/StillImage"/></cc:Work></rdf:RDF></metadata><g id="layer1"><g id="g3374" transform="translate(-0.150962,-2.191088e-2)"><path style="fill:#900;stroke:#000;stroke-width:2.1161976;stroke-linecap:square;stroke-linejoin:bevel;stroke-dashoffset:0" id="path3299" d="M 23.446670 5.0481038 A 9.2335644 2.5899436 0 1 1 4.9795408,5.0481038 A 9.2335644 2.5899436 0 1 1 23.446670 5.0481038 z" transform="matrix(0.416472,0.000000,0.000000,0.536169,-0.544527,6.556371)"/><path style="fill:#900;stroke:#000;stroke-width:1.8650836;stroke-linecap:square;stroke-linejoin:bevel;stroke-dashoffset:0" id="path3303" d="M -208.39929,135.18852 C -206.17491,137.96797 -196.39419,138.09431 -194.07168,135.18852 L -194.07168,156.41342 C -196.49232,159.31921 -206.07678,159.69823 -208.39929,156.41342 L -208.39929,135.18852 z" transform="matrix(0.536169,0.000000,0.000000,0.536169,113.2538,-63.16120)"/><path style="fill:#bab5ab;stroke:#000;stroke-width:2.1161976;stroke-linecap:square;stroke-linejoin:bevel;stroke-dashoffset:0" id="path3325" d="M 23.446670 5.0481038 A 9.2335644 2.5899436 0 1 1 4.9795408,5.0481038 A 9.2335644 2.5899436 0 1 1 23.446670 5.0481038 z" transform="matrix(0.416472,0.000000,0.000000,0.536169,9.321642,6.546234)"/><path style="fill:#bab5ab;stroke:#000;stroke-width:1.8650836;stroke-linecap:square;stroke-linejoin:bevel;stroke-dashoffset:0" id="path3326" d="M -208.39929,135.18852 C -206.17491,137.96797 -196.39419,138.09431 -194.07168,135.18852 L -194.07168,156.41342 C -196.49232,159.31921 -206.07678,159.69823 -208.39929,156.41342 L -208.39929,135.18852 z" transform="matrix(0.536169,0.000000,0.000000,0.536169,123.1200,-63.17134)"/><path style="fill:#bab5ab;stroke:#000;stroke-width:2.1161976;stroke-linecap:square;stroke-linejoin:bevel;stroke-dashoffset:0" id="path3329" d="M 23.446670 5.0481038 A 9.2335644 2.5899436 0 1 1 4.9795408,5.0481038 A 9.2335644 2.5899436 0 1 1 23.446670 5.0481038 z" transform="matrix(0.416472,0.000000,0.000000,0.536169,19.25138,6.546234)"/><path style="fill:#bab5ab;stroke:#000;stroke-width:1.8650836;stroke-linecap:square;stroke-linejoin:bevel;stroke-dashoffset:0" id="path3330" d="M -208.39929,135.18852 C -206.17491,137.96797 -196.39419,138.09431 -194.07168,135.18852 L -194.07168,156.41342 C -196.49232,159.31921 -206.07678,159.69823 -208.39929,156.41342 L -208.39929,135.18852 z" transform="matrix(0.536169,0.000000,0.000000,0.536169,133.0497,-63.17134)"/></g></g></svg>