<svg id="svg10503" width="32" height="32" contentScriptType="text/ecmascript" contentStyleType="text/css" preserveAspectRatio="xMidYMid meet" version="1.0" zoomAndPan="magnify"><defs id="defs3"><radialGradient id="radialGradient10450" cx="13.958" cy="13.695" r="16.335" fx="14.228" fy="13.575" gradientTransform="matrix(0.675182,0.000000,0.000000,-0.765610,11.04306,31.43901)" gradientUnits="userSpaceOnUse" spreadMethod="reflect"><stop style="stop-color:#eae8e3;stop-opacity:1" id="stop12427radialGradient10450" offset="0"/><stop style="stop-color:#807d74;stop-opacity:1" id="stop12428radialGradient10450" offset="1"/></radialGradient><radialGradient id="radialGradient10449" cx="10.225" cy="39.915" r="5.259" fx="10.207" fy="39.915" gradientTransform="scale(1.657817,0.603203)" gradientUnits="userSpaceOnUse"><stop style="stop-color:#eae8e3;stop-opacity:1" id="stop12427radialGradient10449" offset="0"/><stop style="stop-color:#807d74;stop-opacity:1" id="stop12428radialGradient10449" offset="1"/></radialGradient><linearGradient id="linearGradient10448" x1="-.212" x2="11.281" y1="12.855" y2="12.855" gradientTransform="matrix(-0.531044,0.000000,0.000000,0.973417,14.38078,2.028413)" gradientUnits="userSpaceOnUse"><stop style="stop-color:#eae8e3;stop-opacity:1" id="stop12427linearGradient10448" offset="0"/><stop style="stop-color:#807d74;stop-opacity:1" id="stop12428linearGradient10448" offset="1"/></linearGradient><radialGradient id="radialGradient10447" cx="13.958" cy="13.695" r="16.335" fx="14.228" fy="13.575" gradientTransform="matrix(0.675182,0.000000,0.000000,0.765610,-1.720829,1.555977)" gradientUnits="userSpaceOnUse" spreadMethod="reflect"><stop style="stop-color:#eae8e3;stop-opacity:1" id="stop12427radialGradient10447" offset="0"/><stop style="stop-color:#807d74;stop-opacity:1" id="stop12428radialGradient10447" offset="1"/></radialGradient><linearGradient id="linearGradient10446" x1="-.212" x2="11.281" y1="12.855" y2="12.855" gradientTransform="matrix(0.372252,0.000000,0.000000,0.973417,0.300231,1.555977)" gradientUnits="userSpaceOnUse"><stop style="stop-color:#eae8e3;stop-opacity:1" id="stop12427linearGradient10446" offset="0"/><stop style="stop-color:#807d74;stop-opacity:1" id="stop12428linearGradient10446" offset="1"/></linearGradient><linearGradient id="linearGradient12426"><stop style="stop-color:#eae8e3;stop-opacity:1" id="stop12427" offset="0"/><stop style="stop-color:#807d74;stop-opacity:1" id="stop12428" offset="1"/></linearGradient><linearGradient id="linearGradient10445" x1="2.401" x2="13.47" y1="9.041" y2="9.041" gradientTransform="matrix(0.326662,0.000000,0.000000,0.401424,5.185513,3.560114)" gradientUnits="userSpaceOnUse"><stop style="stop-color:#eae8e3;stop-opacity:1" id="stop12427linearGradient10445" offset="0"/><stop style="stop-color:#807d74;stop-opacity:1" id="stop12428linearGradient10445" offset="1"/></linearGradient></defs><metadata id="metadata4"><rdf:RDF xmlns:rdf="http://www.w3.org/1999/02/22-rdf-syntax-ns#" id="RDF5"><cc:Work xmlns:cc="http://web.resource.org/cc/" id="Work6"><dc:format xmlns:dc="http://purl.org/dc/elements/1.1/" id="format7">image/svg+xml</dc:format><dc:type xmlns:dc="http://purl.org/dc/elements/1.1/" id="type9" rdf:resource="http://purl.org/dc/dcmitype/StillImage"/></cc:Work></rdf:RDF></metadata><g id="layer1"><g id="g10436" transform="translate(4.815979e-2,-1.810515)"><path style="fill:url(#linearGradient10445);fill-opacity:1;fill-rule:nonzero;stroke:#000;stroke-width:.75;stroke-linecap:square;stroke-linejoin:bevel;stroke-miterlimit:4;stroke-dashoffset:0;stroke-opacity:1" id="path10410" d="M 10.494506,5.5015566 C 9.6604227,5.9733855 9.0670537,7.6615514 7.8572053,7.6615514 C 6.6572713,7.6615514 6.4511710,5.8244422 5.4582155,5.5015566 C 5.4582155,4.4736729 6.5004870,4.0465602 7.8572053,4.0465602 C 9.2337807,4.0465602 10.494506,4.4736729 10.494506,5.5015566 z"/><path style="fill:url(#linearGradient10446);fill-opacity:1;fill-rule:evenodd;stroke:#000;stroke-width:.75;stroke-linecap:butt;stroke-linejoin:miter;stroke-miterlimit:4;stroke-opacity:1" id="path10411" d="M 4.4208141,8.8267118 C 3.7990148,8.6413602 0.70465374,6.9695933 0.55616424,8.7569122 C 0.40767474,10.544232 3.0565671,18.173730 3.5298776,19.550628 C 4.0031873,20.927525 3.4685637,17.183113 3.0416569,15.501710 C 2.6147497,13.820305 1.5483677,10.990769 1.6968572,9.7992236 C 1.8453466,8.6076767 3.3965717,10.143448 3.9719676,10.037533 C 4.5473647,9.9316174 5.0426134,9.0120632 4.4208141,8.8267118 z"/><path id="path10413" style="fill:url(#radialGradient10447);fill-opacity:1;fill-rule:nonzero;stroke:#000;stroke-width:.75;stroke-linecap:square;stroke-linejoin:bevel;stroke-miterlimit:4;stroke-dashoffset:0;stroke-opacity:1" d="M 12.435104,20.966233 C 10.998229,22.659330 5.2598123,22.565106 3.7037828,20.921874 C 1.6384362,17.264995 1.1220995,12.932907 5.3322292,7.7270171 C 6.8353014,7.1063123 9.4227407,7.2799717 10.806657,7.7713767 C 15.016787,12.977266 14.500451,17.309354 12.435104,20.966233 z"/><path style="fill:url(#linearGradient10448);fill-opacity:1;fill-rule:evenodd;stroke:#000;stroke-width:.75;stroke-linecap:butt;stroke-linejoin:miter;stroke-miterlimit:4;stroke-opacity:1" id="path10412" d="M 14.745875,11.195299 C 14.185379,12.468593 14.367256,19.358775 10.896860,18.674983 L 11.480999,15.749466 C 12.641615,14.267466 12.774789,11.593527 13.680299,9.8222999 C 14.597160,8.0288665 16.423182,7.6388731 16.276379,8.7125282 C 16.137113,9.7310725 15.327010,9.8751215 14.745875,11.195299 z"/><path style="fill:#fff;fill-opacity:1;fill-rule:evenodd;stroke:none;stroke-width:.75;stroke-linecap:butt;stroke-linejoin:miter;stroke-miterlimit:4;stroke-opacity:1" id="path10414" d="M 6.0695556,8.8256830 C 5.8644834,10.556936 4.7587302,11.387859 5.0186524,14.903702 C 5.0480722,16.793583 4.1643036,17.670703 5.6191953,20.857445 C 4.3159113,19.726451 3.7052148,17.374372 3.6594274,14.663585 C 3.7133657,12.675001 4.8201290,10.890441 6.0695556,8.8256830 z"/><path style="fill:url(#radialGradient10449);fill-opacity:1;fill-rule:nonzero;stroke:#000;stroke-width:.75;stroke-linecap:square;stroke-linejoin:bevel;stroke-miterlimit:4;stroke-dashoffset:0;stroke-opacity:1" id="path10428" d="M 28.260032 25.273920 A 8.3429785 2.7970679 0 1 1 11.574075,25.273920 A 8.3429785 2.7970679 0 1 1 28.260032 25.273920 z" transform="translate(0.964506,0.192901)"/><path id="path10433" style="fill:url(#radialGradient10450);fill-opacity:1;fill-rule:nonzero;stroke:#000;stroke-width:.75;stroke-linecap:square;stroke-linejoin:bevel;stroke-miterlimit:4;stroke-dashoffset:0;stroke-opacity:1" d="M 26.163500,16.851282 C 24.726625,15.158185 17.059196,15.252409 15.503167,16.895641 C 16.813592,20.456069 16.297255,23.148497 18.096119,25.267967 C 19.599191,25.888672 22.186631,25.715012 23.570547,25.223607 C 25.562313,22.718335 25.045977,20.701062 26.163500,16.851282 z"/><path style="fill:#bab5ab;fill-opacity:1;fill-rule:nonzero;stroke:#000;stroke-width:.75;stroke-linecap:square;stroke-linejoin:bevel;stroke-miterlimit:4;stroke-dashoffset:0;stroke-opacity:1" id="path10435" d="M 25.655864 16.496914 A 5.4012346 1.4467592 0 1 1 14.853395,16.496914 A 5.4012346 1.4467592 0 1 1 25.655864 16.496914 z" transform="translate(0.578704,0.385802)"/></g></g></svg>