<svg id="svg8858" width="32" height="32" contentScriptType="text/ecmascript" contentStyleType="text/css" preserveAspectRatio="xMidYMid meet" version="1.0" zoomAndPan="magnify"><defs id="defs3"><radialGradient id="radialGradient1160" cx="105.968" cy="-33.376" r="13.189" fx="100.869" fy="-40.098" gradientTransform="translate(91.42676,1.488652)" gradientUnits="userSpaceOnUse"><stop style="stop-color:#eae8e3;stop-opacity:1" id="stop12427radialGradient1160" offset="0"/><stop style="stop-color:#807d74;stop-opacity:1" id="stop12428radialGradient1160" offset="1"/></radialGradient><radialGradient id="radialGradient1796" cx="105.968" cy="-33.376" r="13.189" fx="100.869" fy="-40.098" gradientTransform="translate(-34.06886,-55.01197)" gradientUnits="userSpaceOnUse"><stop style="stop-color:#eae8e3;stop-opacity:1" id="stop12427radialGradient1796" offset="0"/><stop style="stop-color:#807d74;stop-opacity:1" id="stop12428radialGradient1796" offset="1"/></radialGradient><radialGradient id="radialGradient1740" cx="3.24" cy="2.04" r="17.311" fx="3.071" fy="2.209" gradientTransform="translate(474.2676,-204.8575)" gradientUnits="userSpaceOnUse"><stop style="stop-color:#eae8e3;stop-opacity:1" id="stop12427radialGradient1740" offset="0"/><stop style="stop-color:#807d74;stop-opacity:1" id="stop12428radialGradient1740" offset="1"/></radialGradient><linearGradient id="linearGradient12426"><stop style="stop-color:#eae8e3;stop-opacity:1" id="stop12427" offset="0"/><stop style="stop-color:#807d74;stop-opacity:1" id="stop12428" offset="1"/></linearGradient><radialGradient id="radialGradient1736" cx="3.24" cy="2.04" r="17.311" fx="3.071" fy="2.209" gradientTransform="translate(-62.60346,-88.08295)" gradientUnits="userSpaceOnUse"><stop style="stop-color:#eae8e3;stop-opacity:1" id="stop12427radialGradient1736" offset="0"/><stop style="stop-color:#807d74;stop-opacity:1" id="stop12428radialGradient1736" offset="1"/></radialGradient></defs><metadata id="metadata4"><rdf:RDF xmlns:rdf="http://www.w3.org/1999/02/22-rdf-syntax-ns#" id="RDF5"><cc:Work xmlns:cc="http://web.resource.org/cc/" id="Work6"><dc:format xmlns:dc="http://purl.org/dc/elements/1.1/" id="format7">image/svg+xml</dc:format><dc:type xmlns:dc="http://purl.org/dc/elements/1.1/" id="type9" rdf:resource="http://purl.org/dc/dcmitype/StillImage"/></cc:Work></rdf:RDF></metadata><g id="layer1"><path id="path1159" style="fill:url(#radialGradient1160);fill-opacity:1;fill-rule:evenodd;stroke:#000;stroke-width:1.25;stroke-linecap:square;stroke-linejoin:round;stroke-miterlimit:4;stroke-dashoffset:0;stroke-opacity:1" d="M 218.04578,-26.757748 C 218.04578,-18.998298 211.74826,-12.700768 203.98881,-12.700768 C 196.22936,-12.700768 189.93183,-18.998298 189.93183,-26.757748 C 189.93183,-34.517198 196.22936,-40.814718 203.98881,-40.814718 C 211.74826,-40.814718 218.04578,-34.517198 218.04578,-26.757748 z" transform="translate(-189.0414,41.73227)"/><path style="fill:#fff;fill-opacity:1;fill-rule:evenodd;stroke:#000;stroke-width:0;stroke-linecap:butt;stroke-linejoin:miter;stroke-miterlimit:4;stroke-opacity:1" id="path1662" d="M 201.14067,-38.688128 C 198.35478,-38.275348 195.66843,-36.017758 194.30970,-33.612838 C 193.82133,-32.782398 193.48311,-31.874818 193.19307,-30.961198 C 192.76434,-29.931578 192.38197,-28.851838 192.30562,-27.732018 C 192.40119,-27.084138 192.43115,-28.165858 192.53577,-28.374158 C 193.11723,-30.634798 194.90476,-32.363598 196.84956,-33.533798 C 198.43816,-34.565718 200.08187,-36.146968 201.67628,-37.166398 C 203.53275,-38.173298 209.20229,-37.721078 209.89321,-37.379458 C 207.30633,-38.852168 204.12617,-38.964458 201.14067,-38.688128 z" transform="translate(-189.0414,41.73227)"/><path style="fill:#fff;fill-opacity:1;fill-rule:evenodd;stroke:#000;stroke-width:0;stroke-linecap:butt;stroke-linejoin:miter;stroke-miterlimit:4;stroke-opacity:1" id="path1663" d="M 216.16457,-29.552818 C 215.48190,-21.896048 209.11482,-15.823998 202.72349,-14.216558 C 210.42409,-14.693248 216.70931,-22.599218 216.16457,-29.552818 z" transform="translate(-189.0414,41.73227)"/><path style="fill:#565248;fill-opacity:1;fill-rule:evenodd;stroke:#807d74;stroke-width:0;stroke-linecap:butt;stroke-linejoin:miter;stroke-miterlimit:4;stroke-opacity:1" id="path2507" d="M 29.385444,7.3069000 L 26.664964,0.78933000 C 26.411694,1.1724200 24.260204,7.2703100 24.260204,7.2703100 L 25.729094,7.2941300 L 25.825134,23.029324 L 24.262804,23.068484 L 27.139074,29.491534 C 27.383184,29.102555 29.387414,22.980084 29.387414,22.980084 L 28.012604,23.018274 L 27.916544,7.2830800 L 29.385444,7.3069000 z"/><path style="fill:#000;fill-opacity:1;fill-rule:nonzero;stroke:#807d74;stroke-width:0;stroke-linecap:square;stroke-linejoin:bevel;stroke-miterlimit:4;stroke-dashoffset:0;stroke-opacity:1" id="path2508" d="M -93.188063 -87.276924 A 3.4174511 3.4174511 0 1 1 -100.02297,-87.276924 A 3.4174511 3.4174511 0 1 1 -93.188063 -87.276924 z" transform="translate(123.3335,102.3272)"/></g></svg>