<svg id="svg9760" width="32" height="32" contentScriptType="text/ecmascript" contentStyleType="text/css" preserveAspectRatio="xMidYMid meet" version="1.0" zoomAndPan="magnify"><defs id="defs3"><linearGradient id="linearGradient1904"><stop style="stop-color:#b8b7b3;stop-opacity:1" id="stop1905" offset="0"/><stop style="stop-color:#807d74;stop-opacity:1" id="stop1906" offset="1"/></linearGradient><linearGradient id="linearGradient9741" x1="1.558" x2="20.319" y1="20.979" y2="20.979" gradientTransform="matrix(1.069815,0.000000,0.000000,0.934741,2.444282,-4.300117)" gradientUnits="userSpaceOnUse"><stop style="stop-color:#b8b7b3;stop-opacity:1" id="stop1905linearGradient9741" offset="0"/><stop style="stop-color:#807d74;stop-opacity:1" id="stop1906linearGradient9741" offset="1"/></linearGradient></defs><metadata id="metadata4"><rdf:RDF xmlns:rdf="http://www.w3.org/1999/02/22-rdf-syntax-ns#" id="RDF5"><cc:Work xmlns:cc="http://web.resource.org/cc/" id="Work6"><dc:format xmlns:dc="http://purl.org/dc/elements/1.1/" id="format7">image/svg+xml</dc:format><dc:type xmlns:dc="http://purl.org/dc/elements/1.1/" id="type9" rdf:resource="http://purl.org/dc/dcmitype/StillImage"/></cc:Work></rdf:RDF></metadata><g id="layer1"><g id="g9734" transform="translate(0.509889,-0.664317)"><g id="g9711" transform="translate(-2.034423,3.378174)"><path style="fill:url(#linearGradient9741);fill-opacity:1;fill-rule:nonzero;stroke:#000;stroke-width:1;stroke-linecap:square;stroke-linejoin:miter;stroke-miterlimit:4;stroke-dashoffset:0;stroke-opacity:1" id="rect9712" d="M 7.0589204,5.2673835 C 15.100898,5.2673835 20.551242,1.1753303 28.593219,1.1753303 C 26.547192,10.552370 24.910371,15.837356 26.956398,24.395985 C 16.595591,13.347442 13.600478,29.033646 9.2413487,22.213557 C 13.060598,10.654089 1.8756531,10.415969 7.0589204,5.2673835 z"/><path style="fill:none;fill-opacity:.75;fill-rule:evenodd;stroke:#000;stroke-width:1;stroke-linecap:butt;stroke-linejoin:miter;stroke-miterlimit:4;stroke-opacity:1" id="path9713" d="M 12.109120,4.9754538 C 9.1990895,7.9999479 18.019611,11.706451 12.927152,23.460658 M 20.951027,19.913833 C 20.860345,11.797763 18.587234,10.365380 20.542578,2.9313185"/><path style="fill:none;fill-opacity:.75;fill-rule:evenodd;stroke:#000;stroke-width:1;stroke-linecap:butt;stroke-linejoin:miter;stroke-miterlimit:4;stroke-opacity:1" id="path9714" d="M 10.256445,17.532112 C 10.325689,21.090514 18.851843,11.827150 26.013979,18.659194 M 26.758200,9.9545328 C 17.959675,8.4855107 15.299230,12.608961 7.7283215,11.276341"/></g><path style="fill:#565248;fill-opacity:1;fill-rule:evenodd;stroke:#807d74;stroke-width:0;stroke-linecap:butt;stroke-linejoin:miter;stroke-miterlimit:4;stroke-opacity:1" id="path9732" d="M 6.8690738,8.3342832 L 2.0050372,3.2136502 C 1.9048740,3.6618366 2.0671185,10.126111 2.0671185,10.126111 L 3.4481057,9.6250333 L 9.1439687,24.293458 L 7.6981115,24.886675 L 12.674039,29.863484 C 12.763546,29.413060 12.454947,22.978282 12.454947,22.978282 L 11.183959,23.503783 L 5.4880772,8.8353653 L 6.8690738,8.3342832 z"/><path style="fill:#000;fill-opacity:1;fill-rule:nonzero;stroke:#807d74;stroke-width:0;stroke-linecap:square;stroke-linejoin:bevel;stroke-miterlimit:4;stroke-dashoffset:0;stroke-opacity:1" id="path9733" d="M -93.188063 -87.276924 A 3.4174511 3.4174511 0 1 1 -100.02297,-87.276924 A 3.4174511 3.4174511 0 1 1 -93.188063 -87.276924 z" transform="matrix(0.934379,-0.356279,0.356279,0.934379,128.4218,63.67961)"/></g></g></svg>