<svg xmlns="http://www.w3.org/2000/svg" xmlns:cc="http://web.resource.org/cc/" xmlns:svg="http://www.w3.org/2000/svg" id="svg4046" width="32" height="32" contentScriptType="text/ecmascript" contentStyleType="text/css" preserveAspectRatio="xMidYMid meet" version="1.0" zoomAndPan="magnify"><metadata id="metadata4"/><g id="layer1"><g id="g3768" transform="matrix(1.062646,0,0,1.062646,-0.949414,-0.950311)"><g id="g3716" transform="matrix(0.442521,0.441104,-0.401745,0.403035,18.42914,11.66416)" style="fill:#ca0000;fill-opacity:1;stroke:#ca0000;stroke-opacity:1"><path id="path3718" d="M -0.21480011,8.4207544 L -8.4530501,2.76646 L -8.4048431,14.334445 L -0.21480011,8.4207544 z" style="fill:#ca0000;fill-opacity:1;fill-rule:evenodd;stroke:#ca0000;stroke-width:.23355033pt;stroke-linecap:butt;stroke-linejoin:miter;stroke-opacity:1"/><path id="path3720" d="M -7.8927021,8.211564 L -16.264641,8.211564" style="fill:#ca0000;fill-opacity:1;fill-rule:evenodd;stroke:#ca0000;stroke-width:3.09987092;stroke-linecap:butt;stroke-linejoin:miter;stroke-miterlimit:4;stroke-opacity:1"/></g><path id="path3722" d="M 4.8225492 3.1520765 A 1.7274803 1.7274803 0 1 1 1.3675886,3.1520765 A 1.7274803 1.7274803 0 1 1 4.8225492 3.1520765 z" style="opacity:1;fill:#000;fill-opacity:1;fill-rule:evenodd;stroke:none;stroke-width:1;stroke-linecap:round;stroke-linejoin:round;stroke-miterlimit:4;stroke-dasharray:none;stroke-dashoffset:0;stroke-opacity:1"/><path transform="translate(6.909921,0)" style="opacity:1;fill:#000;fill-opacity:1;fill-rule:evenodd;stroke:none;stroke-width:1;stroke-linecap:round;stroke-linejoin:round;stroke-miterlimit:4;stroke-dasharray:none;stroke-dashoffset:0;stroke-opacity:1" id="path3724" d="M 4.8225492 3.1520765 A 1.7274803 1.7274803 0 1 1 1.3675886,3.1520765 A 1.7274803 1.7274803 0 1 1 4.8225492 3.1520765 z"/><path transform="translate(0,6.622008)" style="opacity:1;fill:#000;fill-opacity:1;fill-rule:evenodd;stroke:none;stroke-width:1;stroke-linecap:round;stroke-linejoin:round;stroke-miterlimit:4;stroke-dasharray:none;stroke-dashoffset:0;stroke-opacity:1" id="path3726" d="M 4.8225492 3.1520765 A 1.7274803 1.7274803 0 1 1 1.3675886,3.1520765 A 1.7274803 1.7274803 0 1 1 4.8225492 3.1520765 z"/><path transform="matrix(-1,0,0,-1,25.9122,25.73831)" style="fill:#af0000;fill-opacity:1;fill-rule:evenodd;stroke:none;stroke-width:1;stroke-linecap:round;stroke-linejoin:round;stroke-miterlimit:4;stroke-dasharray:none;stroke-dashoffset:0;stroke-opacity:1" id="path3728" d="M 4.8225492 3.1520765 A 1.7274803 1.7274803 0 1 1 1.3675886,3.1520765 A 1.7274803 1.7274803 0 1 1 4.8225492 3.1520765 z"/><path id="path3730" d="M 4.8225492 3.1520765 A 1.7274803 1.7274803 0 1 1 1.3675886,3.1520765 A 1.7274803 1.7274803 0 1 1 4.8225492 3.1520765 z" transform="matrix(-1,0,0,-1,19.00228,25.73831)" style="fill:#af0000;fill-opacity:1;fill-rule:evenodd;stroke:none;stroke-width:1;stroke-linecap:round;stroke-linejoin:round;stroke-miterlimit:4;stroke-dasharray:none;stroke-dashoffset:0;stroke-opacity:1"/><path id="path3732" d="M 4.8225492 3.1520765 A 1.7274803 1.7274803 0 1 1 1.3675886,3.1520765 A 1.7274803 1.7274803 0 1 1 4.8225492 3.1520765 z" transform="matrix(-1,0,0,-1,25.9122,19.1163)" style="fill:#af0000;fill-opacity:1;fill-rule:evenodd;stroke:none;stroke-width:1;stroke-linecap:round;stroke-linejoin:round;stroke-miterlimit:4;stroke-dasharray:none;stroke-dashoffset:0;stroke-opacity:1"/><path id="path3751" d="M 22.838583,12.124646 C 22.249886,12.141398 21.599602,12.357848 20.932333,12.780896 C 18.160597,14.323206 18.79289,18.027313 21.088583,19.280896 C 21.039352,19.30981 20.981902,19.374469 20.932333,19.405896 C 20.025258,19.91063 19.486789,20.629598 19.244833,21.437146 C 18.541064,19.406094 16.485445,17.846664 14.026083,19.405896 C 10.464562,21.387676 12.488914,26.95502 16.494833,26.280896 C 18.163377,26.052053 19.056978,25.088903 19.369833,23.937146 C 19.959453,25.443635 21.441938,26.610585 23.401083,26.280896 C 27.427837,25.728621 26.992206,20.957174 24.651083,19.312146 C 27.9885,17.7331 26.202566,12.028917 22.838583,12.124646 z" style="fill:none;fill-opacity:1;fill-rule:evenodd;stroke:#000;stroke-width:.94104713;stroke-linecap:round;stroke-linejoin:round;stroke-miterlimit:4;stroke-dasharray:none;stroke-dashoffset:0;stroke-opacity:1"/><path id="path3764" d="M 22.557333,10.155896 C 18.948208,10.107339 16.712551,14.424396 16.901083,16.874646 C 10.359388,15.545659 7.5442696,25.614387 13.713583,27.905896 C 16.678304,29.527972 19.219517,26.113789 21.838583,28.280896 C 27.076128,29.407321 29.962726,23.151459 27.619833,19.249646 C 29.941041,15.650497 27.04359,9.7640078 22.557333,10.155896 z" style="fill:none;fill-opacity:1;fill-rule:evenodd;stroke:#000;stroke-width:.94104713;stroke-linecap:round;stroke-linejoin:round;stroke-miterlimit:4;stroke-dasharray:none;stroke-dashoffset:0;stroke-opacity:1"/></g></g></svg>