<svg id="svg5517" width="32" height="32" contentScriptType="text/ecmascript" contentStyleType="text/css" preserveAspectRatio="xMidYMid meet" version="1.0" zoomAndPan="magnify"><metadata id="metadata4"><rdf:RDF xmlns:rdf="http://www.w3.org/1999/02/22-rdf-syntax-ns#" id="RDF5"><cc:Work xmlns:cc="http://web.resource.org/cc/" id="Work6"><dc:format xmlns:dc="http://purl.org/dc/elements/1.1/" id="format7">image/svg+xml</dc:format><dc:type xmlns:dc="http://purl.org/dc/elements/1.1/" id="type9" rdf:resource="http://purl.org/dc/dcmitype/StillImage"/></cc:Work></rdf:RDF></metadata><g id="layer1"><g id="g5507" transform="translate(0.106844,-0.457092)"><path style="fill:#bab5ab;fill-opacity:1;fill-rule:nonzero;stroke:#000;stroke-width:1;stroke-linecap:square;stroke-linejoin:bevel;stroke-miterlimit:4;stroke-dashoffset:0;stroke-opacity:1" id="path5417" d="M 14.910163,5.8740210 C 13.192967,3.4876051 12.620168,7.1683734 10.080713,5.6868495 C 7.9508229,4.4442662 10.785326,1.8012423 8.3318242,2.0477659 C 5.4065297,2.3416945 8.3236745,4.6661279 5.7709085,6.1245983 C 3.6298555,7.3478460 2.7643653,3.5805870 1.7511091,5.8286435 C 0.54301115,8.5089882 3.9967013,7.1457489 3.9833916,10.085743 C 3.9722273,12.551573 0.27223387,11.427336 1.7124799,13.428870 C 3.4296771,15.815287 3.9878023,12.112941 6.5272564,13.594465 C 8.6571458,14.837045 5.8226437,17.480070 8.2761434,17.233546 C 11.201439,16.939618 8.2989688,14.636764 10.851733,13.178294 C 12.992787,11.955047 13.858277,15.722304 14.871532,13.474250 C 16.079631,10.793905 12.625940,12.157144 12.639251,9.2171494 C 12.650416,6.7513194 16.350408,7.8755537 14.910163,5.8740210 z M 10.638388,8.0847247 C 11.538425,9.4082282 11.195508,11.208814 9.8720032,12.108853 C 8.5485003,13.008888 6.7479158,12.665974 5.8478780,11.342468 C 4.9478395,10.018964 5.2907558,8.2183796 6.6142610,7.3183421 C 7.9377650,6.4183027 9.7383515,6.7612201 10.638388,8.0847247 z"/><rect style="fill:#bab5ab;fill-opacity:1;fill-rule:nonzero;stroke:none;stroke-width:.75;stroke-linecap:square;stroke-linejoin:bevel;stroke-miterlimit:4;stroke-dashoffset:0;stroke-opacity:1" id="rect5421" width="10.866" height="2.728" x="16.846" y="4.015" transform="translate(0.000000,-3.086420)"/><rect style="fill:#bab5ab;fill-opacity:1;fill-rule:nonzero;stroke:none;stroke-width:.75;stroke-linecap:square;stroke-linejoin:bevel;stroke-miterlimit:4;stroke-dashoffset:0;stroke-opacity:1" id="rect5422" width="10.397" height="2.728" x="16.846" y="7.903" transform="translate(0.000000,-3.086420)"/><rect style="fill:#bab5ab;fill-opacity:1;fill-rule:nonzero;stroke:none;stroke-width:.75;stroke-linecap:square;stroke-linejoin:bevel;stroke-miterlimit:4;stroke-dashoffset:0;stroke-opacity:1" id="rect5423" width="8.507" height="2.728" x="16.846" y="11.927" transform="translate(0.000000,-3.086420)"/><rect style="fill:#bab5ab;fill-opacity:1;fill-rule:nonzero;stroke:none;stroke-width:.75;stroke-linecap:square;stroke-linejoin:bevel;stroke-miterlimit:4;stroke-dashoffset:0;stroke-opacity:1" id="rect5424" width="10.823" height="2.728" x="16.846" y="15.951" transform="translate(0.000000,-3.086420)"/><rect style="fill:#bab5ab;fill-opacity:1;fill-rule:nonzero;stroke:none;stroke-width:.75;stroke-linecap:square;stroke-linejoin:bevel;stroke-miterlimit:4;stroke-dashoffset:0;stroke-opacity:1" id="rect5425" width="12.344" height="2.728" x="16.846" y="19.974" transform="translate(0.000000,-3.086420)"/><text xml:space="preserve" style="font-size:12;font-style:normal;font-variant:normal;font-weight:700;font-stretch:normal;fill:#000;fill-opacity:1;stroke:none;stroke-width:3pt;stroke-linecap:butt;stroke-linejoin:miter;stroke-opacity:1;font-family:Verdana;text-anchor:start;writing-mode:lr" id="text5447" x="1.347" y="20.574" transform="translate(5.768290,6.968165)"><tspan id="tspan5448" x="1.347" y="20.574">Py</tspan></text></g></g></svg>