<svg xmlns="http://www.w3.org/2000/svg" xmlns:cc="http://web.resource.org/cc/" xmlns:svg="http://www.w3.org/2000/svg" id="svg4046" width="32" height="32" contentScriptType="text/ecmascript" contentStyleType="text/css" preserveAspectRatio="xMidYMid meet" version="1.0" zoomAndPan="magnify"><metadata id="metadata4"/><g id="layer1"><g id="g4029" transform="translate(-1.282861e-3,-5.966138e-3)"><path style="fill:#807d74;fill-opacity:1;fill-rule:nonzero;stroke:#000;stroke-width:1;stroke-linecap:square;stroke-linejoin:bevel;stroke-miterlimit:4;stroke-dashoffset:0;stroke-opacity:1" id="path3347" d="M 27.391975 15.725308 A 12.345679 12.345679 0 1 1 2.7006168,15.725308 A 12.345679 12.345679 0 1 1 27.391975 15.725308 z" transform="matrix(0.899124,0.000000,0.000000,0.899124,1.449605,4.109735)"/><path style="fill:#bab5ab;fill-opacity:1;fill-rule:nonzero;stroke:#000;stroke-width:1.2656482;stroke-linecap:square;stroke-linejoin:bevel;stroke-miterlimit:4;stroke-dashoffset:0;stroke-opacity:1" id="path3969" d="M 27.391975 15.725308 A 12.345679 12.345679 0 1 1 2.7006168,15.725308 A 12.345679 12.345679 0 1 1 27.391975 15.725308 z" transform="matrix(0.790109,0.000000,0.000000,0.790109,3.061633,5.795782)"/><path style="fill:#fff;fill-opacity:1;fill-rule:evenodd;stroke:none;stroke-width:.25pt;stroke-linecap:butt;stroke-linejoin:miter;stroke-opacity:1" id="path4028" d="M 17.175048,11.665133 C 7.2782629,9.9959814 5.0733391,20.375687 11.805680,24.456377 C 9.1193689,20.732419 10.980965,18.417010 12.152840,16.880552 C 12.361173,15.109719 13.270332,12.565487 17.175048,11.665133 z"/><path style="fill:none;fill-opacity:.75;fill-rule:evenodd;stroke:#000;stroke-width:1pt;stroke-linecap:butt;stroke-linejoin:miter;stroke-opacity:1" id="path3976" d="M 14.996142,8.7283801 L 14.996142,12.007701"/><path style="fill:none;fill-opacity:.75;fill-rule:evenodd;stroke:#000;stroke-width:1pt;stroke-linecap:butt;stroke-linejoin:miter;stroke-opacity:1" id="path3985" d="M 14.996142,24.449831 L 14.996142,27.729152"/><path style="fill:none;fill-opacity:.75;fill-rule:evenodd;stroke:#000;stroke-width:1pt;stroke-linecap:butt;stroke-linejoin:miter;stroke-opacity:1" id="path3987" d="M 24.643133,18.276992 L 21.363812,18.276992"/><path style="fill:none;fill-opacity:.75;fill-rule:evenodd;stroke:#000;stroke-width:1pt;stroke-linecap:butt;stroke-linejoin:miter;stroke-opacity:1" id="path3988" d="M 8.9216819,18.276992 L 5.6423606,18.276992"/><path id="path4002" style="fill:#bab5ab;fill-opacity:1;fill-rule:evenodd;stroke:#000;stroke-width:1;stroke-linecap:butt;stroke-linejoin:miter;stroke-miterlimit:4;stroke-opacity:1" d="M 12.226735,7.3061552 L 18.039134,7.3232055 L 18.039134,5.4476812 C 18.562008,5.4476812 19.084881,5.4476812 19.607755,5.4476812 C 20.661042,4.3943939 20.727401,2.1206291 19.607755,1.0009835 C 18.084602,1.0009835 16.561448,1.0009835 15.132935,0.99245836 C 13.704421,0.98393316 12.181267,0.98393316 10.658114,0.98393316 C 9.5384677,2.1035788 9.6048267,4.3773436 10.658114,5.4306309 C 11.180988,5.4306309 11.703861,5.4306309 12.226735,5.4306309 L 12.226735,7.3061552 z"/><path style="fill:none;fill-opacity:.75;fill-rule:evenodd;stroke:#000;stroke-width:1pt;stroke-linecap:butt;stroke-linejoin:miter;stroke-opacity:1" id="path4014" d="M 19.544137,26.335525 L 18.645514,24.779064"/><path style="fill:none;fill-opacity:.75;fill-rule:evenodd;stroke:#000;stroke-width:1pt;stroke-linecap:butt;stroke-linejoin:miter;stroke-opacity:1" id="path4015" d="M 10.978085,11.498688 L 10.043751,9.8803730"/><path style="fill:none;fill-opacity:.75;fill-rule:evenodd;stroke:#000;stroke-width:1pt;stroke-linecap:butt;stroke-linejoin:miter;stroke-opacity:1" id="path4016" d="M 23.188514,22.914256 L 21.632053,22.015633"/><path style="fill:none;fill-opacity:.75;fill-rule:evenodd;stroke:#000;stroke-width:1pt;stroke-linecap:butt;stroke-linejoin:miter;stroke-opacity:1" id="path4017" d="M 8.2735517,14.387267 L 6.6552369,13.452932"/><path style="fill:none;fill-opacity:.75;fill-rule:evenodd;stroke:#000;stroke-width:1pt;stroke-linecap:butt;stroke-linejoin:miter;stroke-opacity:1" id="path4019" d="M 6.8505492,22.914255 L 8.4070102,22.015632"/><path style="fill:none;fill-opacity:.75;fill-rule:evenodd;stroke:#000;stroke-width:1pt;stroke-linecap:butt;stroke-linejoin:miter;stroke-opacity:1" id="path4020" d="M 21.531136,14.465392 L 23.149451,13.531057"/><path style="fill:none;fill-opacity:.75;fill-rule:evenodd;stroke:#000;stroke-width:1pt;stroke-linecap:butt;stroke-linejoin:miter;stroke-opacity:1" id="path4021" d="M 10.288870,26.508826 L 11.187493,24.952365"/><path style="fill:none;fill-opacity:.75;fill-rule:evenodd;stroke:#000;stroke-width:1pt;stroke-linecap:butt;stroke-linejoin:miter;stroke-opacity:1" id="path4022" d="M 18.737734,11.828239 L 19.672068,10.209924"/></g><g id="g14533" transform="matrix(1.761407,0,0,1.761407,69.12506,-0.70742)"><path id="path13644" d="M -27.639684 8.9103441 A 3.0230906 10.076968 0 1 1 -33.685866,8.9103441 A 3.0230906 10.076968 0 1 1 -27.639684 8.9103441 z" transform="matrix(0.707107,0.707107,-0.707107,0.707107,-2.680354,24.29164)" style="opacity:1;fill:none;fill-opacity:1;fill-rule:evenodd;stroke:#ff0909;stroke-width:1;stroke-linecap:butt;stroke-linejoin:miter;stroke-miterlimit:4;stroke-dasharray:none;stroke-dashoffset:0;stroke-opacity:1"/><path style="opacity:1;fill:none;fill-opacity:1;fill-rule:evenodd;stroke:#ff0909;stroke-width:1;stroke-linecap:butt;stroke-linejoin:miter;stroke-miterlimit:4;stroke-dasharray:none;stroke-dashoffset:0;stroke-opacity:1" id="path14519" d="M -27.639684 8.9103441 A 3.0230906 10.076968 0 1 1 -33.685866,8.9103441 A 3.0230906 10.076968 0 1 1 -27.639684 8.9103441 z" transform="matrix(-0.707107,0.707107,-0.707107,-0.707107,-46.04408,36.89277)"/><path id="path14521" d="M -34.981477 6.3191237 A 1.2236319 1.2956103 0 1 1 -37.428741,6.3191237 A 1.2236319 1.2956103 0 1 1 -34.981477 6.3191237 z" transform="translate(-0.43187,1.662282e-7)" style="opacity:1;fill:#0021ca;fill-opacity:1;fill-rule:evenodd;stroke:none;stroke-width:1;stroke-linecap:butt;stroke-linejoin:miter;stroke-miterlimit:4;stroke-dasharray:none;stroke-dashoffset:0;stroke-opacity:1"/><path style="opacity:1;fill:#0021ca;fill-opacity:1;fill-rule:evenodd;stroke:none;stroke-width:1;stroke-linecap:butt;stroke-linejoin:miter;stroke-miterlimit:4;stroke-dasharray:none;stroke-dashoffset:0;stroke-opacity:1" id="path14523" d="M -34.981477 6.3191237 A 1.2236319 1.2956103 0 1 1 -37.428741,6.3191237 A 1.2236319 1.2956103 0 1 1 -34.981477 6.3191237 z" transform="translate(7.917618,4.462658)"/></g></g></svg>