<svg id="svg10039" width="32" height="32" contentScriptType="text/ecmascript" contentStyleType="text/css" preserveAspectRatio="xMidYMid meet" version="1.0" zoomAndPan="magnify"><metadata id="metadata4"><rdf:RDF xmlns:rdf="http://www.w3.org/1999/02/22-rdf-syntax-ns#" id="RDF5"><cc:Work xmlns:cc="http://web.resource.org/cc/" id="Work6"><dc:format xmlns:dc="http://purl.org/dc/elements/1.1/" id="format7">image/svg+xml</dc:format><dc:type xmlns:dc="http://purl.org/dc/elements/1.1/" id="type9" rdf:resource="http://purl.org/dc/dcmitype/StillImage"/></cc:Work></rdf:RDF></metadata><g id="layer1"><rect style="fill:#fff;fill-rule:evenodd;stroke:#000;stroke-width:1;stroke-miterlimit:4;stroke-dasharray:1 2;stroke-dashoffset:0;fill-opacity:1" id="rect2725" width="20.55" height="22.89" x="8.775" y="6.408" rx="5.966" ry="5.429"/><text xml:space="preserve" style="font-size:6;fill:#bab5ab;fill-opacity:1;stroke-width:1pt;font-family:Bitstream Vera Sans" id="text2726" x="981.096" y="421.075" transform="matrix(0.935861,0.000000,0.000000,0.983655,-907.8145,-400.2224)"><tspan id="tspan2727">x=b*c</tspan> <tspan id="tspan2729" x="981.096" y="427.075">y=2e</tspan> <tspan id="tspan2731" x="981.096" y="433.075">z=-e*f</tspan></text><path style="fill:#fff;fill-opacity:1;fill-rule:evenodd;stroke:#000;stroke-width:1;stroke-linecap:square;stroke-linejoin:round;stroke-dashoffset:0;stroke-opacity:1" id="path2722" d="M 4.9837094,7.6323141 L 4.9837094,9.6667831 C 5.0121284,11.594882 1.9612384,12.652361 1.8057854,16.866121 C 1.8057854,19.955250 4.3986614,22.470789 7.6165054,22.470788 C 10.834348,22.470788 13.427239,19.955250 13.427225,16.866121 C 13.427225,13.292639 10.643513,11.448461 10.418838,9.7904151 L 10.341111,7.6323141 L 4.9837094,7.6323141 z"/><rect style="fill:#807d74;fill-opacity:1;fill-rule:evenodd;stroke:#000;stroke-width:1;stroke-linecap:square;stroke-linejoin:round;stroke-miterlimit:4;stroke-dashoffset:0" id="rect2723" width="4.819" height="4.119" x="5.206" y="3.351"/><path style="fill:#eae8e3;fill-opacity:1;fill-rule:evenodd;stroke:#000;stroke-width:0" id="path2724" d="M 7.5239314,11.305298 C 4.2721834,12.558550 2.7775934,15.284473 3.2794264,17.449893 C 3.3295034,18.903009 5.9534104,21.464907 7.8638184,21.133211 C 6.1611434,20.598976 5.9451914,18.818658 6.1024544,17.472142 C 6.3562794,15.479200 7.2455944,13.333179 7.5239314,11.305298 z"/></g></svg>