<svg id="svg6188" width="32" height="32" contentScriptType="text/ecmascript" contentStyleType="text/css" preserveAspectRatio="xMidYMid meet" version="1.0" zoomAndPan="magnify"><metadata id="metadata4"><rdf:RDF xmlns:rdf="http://www.w3.org/1999/02/22-rdf-syntax-ns#" id="RDF5"><cc:Work xmlns:cc="http://web.resource.org/cc/" id="Work6"><dc:format xmlns:dc="http://purl.org/dc/elements/1.1/" id="format7">image/svg+xml</dc:format><dc:type xmlns:dc="http://purl.org/dc/elements/1.1/" id="type9" rdf:resource="http://purl.org/dc/dcmitype/StillImage"/></cc:Work></rdf:RDF></metadata><g id="layer1"><g id="g6170" transform="translate(9.231655e-2,0.260710)"><rect style="fill:#fff;fill-opacity:1;fill-rule:evenodd;stroke:#000;stroke-width:1;stroke-miterlimit:4;stroke-dasharray:1 2;stroke-dashoffset:0" id="rect6029" width="20.55" height="22.89" x="8.629" y="6.058" rx="5.966" ry="5.429"/><text xml:space="preserve" style="font-size:6;fill:#bab5ab;fill-opacity:1;stroke-width:1pt;font-family:Bitstream Vera Sans" id="text6030" x="981.096" y="421.075" transform="matrix(0.935861,0.000000,0.000000,0.983655,-907.9609,-400.5722)"><tspan id="tspan6031">x=b*c</tspan> <tspan id="tspan6033" x="981.096" y="427.075">y=2e</tspan> <tspan id="tspan6035" x="981.096" y="433.075">z=-e*f</tspan></text><path style="fill:#bab5ab;fill-opacity:1;fill-rule:nonzero;stroke:#000;stroke-width:.88133764;stroke-linecap:square;stroke-linejoin:bevel;stroke-miterlimit:4;stroke-dashoffset:0;stroke-opacity:1" id="path6110" d="M 0.44807472,8.4611475 C 2.5509647,5.5886815 4.0935794,11.917926 6.4160994,9.0121365 L 8.8027020,13.830496 L 8.9955920,21.156036 L 6.1325282,26.160831 C 4.5040448,26.961257 1.3838202,27.068012 0.56373472,26.706976 L 0.44807472,8.4611475 z"/><path style="fill:#bab5ab;fill-opacity:1;fill-rule:nonzero;stroke:#000;stroke-width:.88133764;stroke-linecap:square;stroke-linejoin:bevel;stroke-miterlimit:4;stroke-dashoffset:0;stroke-opacity:1" id="path6111" d="M 6.1912672,9.0923103 C 6.1912672,10.096033 3.7106410,10.910649 0.65415431,10.910649 C 0.66670824,10.910649 0.66670824,7.3421725 0.65415431,7.2739716 C 3.7106410,7.2739716 6.1912672,8.0885873 6.1912672,9.0923103 z"/><path style="fill:none;fill-opacity:.75;fill-rule:evenodd;stroke:#000;stroke-width:.88133764;stroke-linecap:butt;stroke-linejoin:miter;stroke-miterlimit:4;stroke-opacity:1" id="path6112" d="M 0.46250472,27.279386 L 0.65333472,9.9685715"/><g id="g6164" transform="matrix(0.992540,-0.121916,0.121916,0.992540,40.75273,-7.890158)"><path style="fill:none;fill-opacity:.75;fill-rule:evenodd;stroke:#000;stroke-width:2.5;stroke-linecap:butt;stroke-linejoin:miter;stroke-miterlimit:4;stroke-opacity:1" id="path6165" d="M 18.675543,12.018944 L 27.013365,12.117937" transform="translate(-51.95468,4.610731)"/><path style="font-size:180;font-style:normal;font-variant:normal;font-weight:700;font-stretch:normal;fill:#000;fill-opacity:1;stroke:#000;stroke-width:.62629706;stroke-linecap:butt;stroke-linejoin:miter;stroke-miterlimit:4;stroke-opacity:1;display:block;font-family:Bitstream Vera Sans;text-anchor:start;writing-mode:lr" id="path6166" d="M 23.647757,8.9960645 L 25.799660,11.167127 L 25.822070,13.217757 L 23.560042,15.410346 L 24.984638,16.880060 L 29.717618,12.292372 L 25.129930,7.5593925 L 23.647757,8.9960645 z" transform="translate(-51.95468,4.610731)"/></g><g id="g6167" transform="matrix(0.994936,0.100507,-0.100507,0.994936,44.75457,8.068165)"><path style="fill:none;fill-opacity:.75;fill-rule:evenodd;stroke:#000;stroke-width:2.5;stroke-linecap:butt;stroke-linejoin:miter;stroke-miterlimit:4;stroke-opacity:1" id="path6168" d="M 18.675543,12.018944 L 27.013365,12.117937" transform="translate(-51.95468,4.610731)"/><path style="font-size:180;font-style:normal;font-variant:normal;font-weight:700;font-stretch:normal;fill:#000;fill-opacity:1;stroke:#000;stroke-width:.62629706;stroke-linecap:butt;stroke-linejoin:miter;stroke-miterlimit:4;stroke-opacity:1;display:block;font-family:Bitstream Vera Sans;text-anchor:start;writing-mode:lr" id="path6169" d="M 23.647757,8.9960645 L 25.799660,11.167127 L 25.822070,13.217757 L 23.560042,15.410346 L 24.984638,16.880060 L 29.717618,12.292372 L 25.129930,7.5593925 L 23.647757,8.9960645 z" transform="translate(-51.95468,4.610731)"/></g></g></g></svg>