<svg id="svg4628" width="32" height="32" contentScriptType="text/ecmascript" contentStyleType="text/css" preserveAspectRatio="xMidYMid meet" version="1.0" zoomAndPan="magnify"><metadata id="metadata4"><rdf:RDF xmlns:rdf="http://www.w3.org/1999/02/22-rdf-syntax-ns#" id="RDF5"><cc:Work xmlns:cc="http://web.resource.org/cc/" id="Work6"><dc:format xmlns:dc="http://purl.org/dc/elements/1.1/" id="format7">image/svg+xml</dc:format><dc:type xmlns:dc="http://purl.org/dc/elements/1.1/" id="type9" rdf:resource="http://purl.org/dc/dcmitype/StillImage"/></cc:Work></rdf:RDF></metadata><g id="layer1"><g id="g3059" transform="translate(0.219560,-0.111273)"><path style="fill:#900;stroke:#000;stroke-width:2.1161976;stroke-linecap:square;stroke-linejoin:bevel;stroke-dashoffset:0" id="path3020" d="M 23.446670 5.0481038 A 9.2335644 2.5899436 0 1 1 4.9795408,5.0481038 A 9.2335644 2.5899436 0 1 1 23.446670 5.0481038 z" transform="matrix(0.416472,0.000000,0.000000,0.536169,-0.789493,-0.432250)"/><path style="fill:#900;stroke:#000;stroke-width:1;stroke-linecap:square;stroke-linejoin:bevel;stroke-dashoffset:0" id="path3021" d="M 1.2716049,2.3340697 C 2.4642485,3.8243246 7.7083674,3.8920642 8.9536253,2.3340697 L 8.9536253,8.2165179 C 7.6557531,9.7745117 2.5168628,9.9777307 1.2716049,8.2165179 L 1.2716049,2.3340697 z"/><path style="fill:#bab5ab;stroke:#000;stroke-width:2.1161976;stroke-linecap:square;stroke-linejoin:bevel;stroke-dashoffset:0" id="path3024" d="M 23.446670 5.0481038 A 9.2335644 2.5899436 0 1 1 4.9795408,5.0481038 A 9.2335644 2.5899436 0 1 1 23.446670 5.0481038 z" transform="matrix(0.416472,0.000000,0.000000,0.536169,9.124901,-0.432248)"/><path style="fill:#bab5ab;stroke:#000;stroke-width:1;stroke-linecap:square;stroke-linejoin:bevel;stroke-dashoffset:0" id="path3025" d="M 11.186030,2.3340688 C 12.378673,3.8243237 17.622792,3.8920633 18.868050,2.3340688 L 18.868050,8.2165174 C 17.570178,9.7745117 12.431288,9.9777307 11.186030,8.2165174 L 11.186030,2.3340688 z"/><path style="fill:#bab5ab;stroke:#000;stroke-width:2.1161976;stroke-linecap:square;stroke-linejoin:bevel;stroke-dashoffset:0" id="path3038" d="M 23.446670 5.0481038 A 9.2335644 2.5899436 0 1 1 4.9795408,5.0481038 A 9.2335644 2.5899436 0 1 1 23.446670 5.0481038 z" transform="matrix(0.416472,0.000000,0.000000,0.536169,19.11519,-0.432248)"/><path style="fill:#bab5ab;stroke:#000;stroke-width:1;stroke-linecap:square;stroke-linejoin:bevel;stroke-dashoffset:0" id="path3039" d="M 21.176318,2.3340687 C 22.368961,3.8243237 27.613080,3.8920633 28.858338,2.3340687 L 28.858338,8.2165173 C 27.560466,9.7745117 22.421576,9.9777307 21.176318,8.2165173 L 21.176318,2.3340687 z"/><path style="fill:#bab5ab;stroke:#000;stroke-width:2.1161976;stroke-linecap:square;stroke-linejoin:bevel;stroke-dashoffset:0" id="path3042" d="M 23.446670 5.0481038 A 9.2335644 2.5899436 0 1 1 4.9795408,5.0481038 A 9.2335644 2.5899436 0 1 1 23.446670 5.0481038 z" transform="matrix(0.416472,0.000000,0.000000,0.536169,9.124906,9.626654)"/><path style="fill:#bab5ab;stroke:#000;stroke-width:1;stroke-linecap:square;stroke-linejoin:bevel;stroke-dashoffset:0" id="path3044" d="M 11.186030,12.392966 C 12.378673,13.883221 17.622792,13.950960 18.868050,12.392966 L 18.868050,18.275415 C 17.570178,19.833409 12.431288,20.036628 11.186030,18.275415 L 11.186030,12.392966 z"/><path style="fill:#bab5ab;stroke:#000;stroke-width:2.1161976;stroke-linecap:square;stroke-linejoin:bevel;stroke-dashoffset:0" id="path3045" d="M 23.446670 5.0481038 A 9.2335644 2.5899436 0 1 1 4.9795408,5.0481038 A 9.2335644 2.5899436 0 1 1 23.446670 5.0481038 z" transform="matrix(0.416472,0.000000,0.000000,0.536169,19.11518,9.626654)"/><path style="fill:#bab5ab;stroke:#000;stroke-width:1;stroke-linecap:square;stroke-linejoin:bevel;stroke-dashoffset:0" id="path3046" d="M 21.176318,12.392966 C 22.368961,13.883221 27.613080,13.950960 28.858338,12.392966 L 28.858338,18.275414 C 27.560466,19.833409 22.421576,20.036628 21.176318,18.275414 L 21.176318,12.392966 z"/><path style="fill:#bab5ab;stroke:#000;stroke-width:2.1161976;stroke-linecap:square;stroke-linejoin:bevel;stroke-dashoffset:0" id="path3050" d="M 23.446670 5.0481038 A 9.2335644 2.5899436 0 1 1 4.9795408,5.0481038 A 9.2335644 2.5899436 0 1 1 23.446670 5.0481038 z" transform="matrix(0.416472,0.000000,0.000000,0.536169,9.112161,19.57117)"/><path style="fill:#bab5ab;stroke:#000;stroke-width:1;stroke-linecap:square;stroke-linejoin:bevel;stroke-dashoffset:0" id="path3051" d="M 11.173290,22.337478 C 12.365933,23.827733 17.610052,23.895472 18.855310,22.337478 L 18.855310,28.219927 C 17.557438,29.777921 12.418548,29.981140 11.173290,28.219927 L 11.173290,22.337478 z"/><path style="fill:#bab5ab;stroke:#000;stroke-width:2.1161976;stroke-linecap:square;stroke-linejoin:bevel;stroke-dashoffset:0" id="path3052" d="M 23.446670 5.0481038 A 9.2335644 2.5899436 0 1 1 4.9795408,5.0481038 A 9.2335644 2.5899436 0 1 1 23.446670 5.0481038 z" transform="matrix(0.416472,0.000000,0.000000,0.536169,19.10244,19.57117)"/><path style="fill:#bab5ab;stroke:#000;stroke-width:1;stroke-linecap:square;stroke-linejoin:bevel;stroke-dashoffset:0" id="path3053" d="M 21.163578,22.337478 C 22.356221,23.827733 27.600340,23.895472 28.845598,22.337478 L 28.845598,28.219926 C 27.547726,29.777921 22.408836,29.981140 21.163578,28.219926 L 21.163578,22.337478 z"/><path style="fill:#bab5ab;stroke:#000;stroke-width:2.1161976;stroke-linecap:square;stroke-linejoin:bevel;stroke-dashoffset:0" id="path3055" d="M 23.446670 5.0481038 A 9.2335644 2.5899436 0 1 1 4.9795408,5.0481038 A 9.2335644 2.5899436 0 1 1 23.446670 5.0481038 z" transform="matrix(0.416472,0.000000,0.000000,0.536169,-0.789519,9.588521)"/><path style="fill:#bab5ab;stroke:#000;stroke-width:1;stroke-linecap:square;stroke-linejoin:bevel;stroke-dashoffset:0" id="path3056" d="M 1.2716049,12.354834 C 2.4642479,13.845089 7.7083669,13.912828 8.9536249,12.354834 L 8.9536249,18.237282 C 7.6557529,19.795276 2.5168629,19.998495 1.2716049,18.237282 L 1.2716049,12.354834 z"/><path style="fill:#bab5ab;stroke:#000;stroke-width:2.1161976;stroke-linecap:square;stroke-linejoin:bevel;stroke-dashoffset:0" id="path3057" d="M 23.446670 5.0481038 A 9.2335644 2.5899436 0 1 1 4.9795408,5.0481038 A 9.2335644 2.5899436 0 1 1 23.446670 5.0481038 z" transform="matrix(0.416472,0.000000,0.000000,0.536169,-0.789519,19.57116)"/><path style="fill:#bab5ab;stroke:#000;stroke-width:1;stroke-linecap:square;stroke-linejoin:bevel;stroke-dashoffset:0" id="path3058" d="M 1.2716049,22.337474 C 2.4642479,23.827729 7.7083674,23.895468 8.9536254,22.337474 L 8.9536254,28.219922 C 7.6557534,29.777916 2.5168629,29.981135 1.2716049,28.219922 L 1.2716049,22.337474 z"/></g></g></svg>