<svg xmlns="http://www.w3.org/2000/svg" xmlns:xlink="http://www.w3.org/1999/xlink" id="svg1" width="32" height="32"><defs id="defs3"><linearGradient id="linearGradient609"><stop style="stop-color:#fff;stop-opacity:1" id="stop610" offset="0"/><stop style="stop-color:red;stop-opacity:1" id="stop611" offset="1"/></linearGradient><radialGradient id="radialGradient612" cx=".391" cy=".305" r=".305" fx=".391" fy=".305" xlink:href="#linearGradient609"/></defs><path style="font-size:12;font-weight:700;fill:red;stroke:none;stroke-width:.375;font-family:Luxi Sans;stroke-dasharray:none;fill-opacity:1" id="path613" d="M 28.04499 26.254877 C 27.07782 26.725736 26.187006 26.942077 25.20711 26.942077 C 22.967348 26.942077 21.847468 25.758566 21.847468 23.391545 C 21.847468 21.049976 22.916445 19.866466 25.028947 19.866466 C 25.868858 19.866466 26.73422 20.044629 27.968635 20.464584 L 27.968635 18.962926 C 26.899657 18.721133 25.945213 18.6066 24.914414 18.6066 C 21.554771 18.6066 19.811321 20.248243 19.811321 23.429723 C 19.811321 26.560299 21.567497 28.265572 24.774429 28.265572 C 26.059747 28.265572 27.090546 28.074683 28.04499 27.667454 L 28.04499 26.254877 z M 11.895799 28.036506 L 18.933232 28.036506 L 18.933232 26.725736 L 13.804687 26.725736 L 13.804687 23.900582 L 17.953336 23.900582 L 17.953336 22.666168 L 13.804687 22.666168 L 13.804687 20.095532 L 18.640536 20.095532 L 18.640536 18.835666 L 11.895799 18.835666 L 11.895799 28.036506 z M 2.7076853 28.036506 L 4.5147658 28.036506 L 4.5147658 24.269634 L 6.0164242 24.269634 L 8.5997861 28.036506 L 10.750466 28.036506 L 7.7344236 23.735145 C 8.9942896 23.124301 9.5287782 22.34802 9.5287782 21.113606 C 9.5287782 19.599221 8.5870602 18.835666 6.7163501 18.835666 L 2.7076853 18.835666 L 2.7076853 28.036506 z M 4.5147658 23.009768 L 4.5147658 20.095532 L 5.7491799 20.095532 C 7.0090463 20.095532 7.6071645 20.502762 7.6071645 21.368124 C 7.6071645 22.437101 6.8817871 23.009768 5.5201133 23.009768 L 4.5147658 23.009768 z"/><path style="font-size:12;fill:url(#radialGradient612);fill-rule:evenodd;stroke:#000;stroke-width:.330891;stroke-opacity:1;stroke-dasharray:none" id="path575" d="M 14.835165 11.538462 A 4.038462 4.038462 0 1 0 6.758242,11.538462 A 4.03846 4.03846 0 1 0 14.8352 11.5385 L 10.796703 11.538462 z" transform="matrix(1.775510,0.000000,0.000000,1.775510,-3.793312,-11.17347)"/></svg>