<svg id="svg5525" width="32" height="32" contentScriptType="text/ecmascript" contentStyleType="text/css" preserveAspectRatio="xMidYMid meet" version="1.0" zoomAndPan="magnify"><metadata id="metadata4"><rdf:RDF xmlns:rdf="http://www.w3.org/1999/02/22-rdf-syntax-ns#" id="RDF5"><cc:Work xmlns:cc="http://web.resource.org/cc/" id="Work6"><dc:format xmlns:dc="http://purl.org/dc/elements/1.1/" id="format7">image/svg+xml</dc:format><dc:type xmlns:dc="http://purl.org/dc/elements/1.1/" id="type9" rdf:resource="http://purl.org/dc/dcmitype/StillImage"/></cc:Work></rdf:RDF></metadata><g id="layer1"><g id="g6700" transform="translate(121.0234,-429.7203)"><g id="g6869" transform="matrix(0.707107,-0.707107,0.707107,0.707107,-120.9049,439.2447)" style="opacity:.40000001"><path style="fill:#bab5ab;fill-opacity:1;fill-rule:nonzero;stroke:#000;stroke-width:1.4454792;stroke-linecap:square;stroke-linejoin:bevel;stroke-miterlimit:4;stroke-dashoffset:0;stroke-opacity:1" id="path6870" d="M 23.446670 5.0481038 A 9.2335644 2.5899436 0 1 1 4.9795408,5.0481038 A 9.2335644 2.5899436 0 1 1 23.446670 5.0481038 z" transform="matrix(0.609720,0.000000,0.000000,0.784957,-2.147814,2.119215)"/><path style="fill:#bab5ab;fill-opacity:1;fill-rule:nonzero;stroke:#000;stroke-width:1.2739551;stroke-linecap:square;stroke-linejoin:bevel;stroke-miterlimit:4;stroke-dashoffset:0;stroke-opacity:1" id="path6871" d="M -145.42693,95.018750 C -143.20255,97.798200 -133.42183,97.924540 -131.09932,95.018750 L -131.09932,116.24365 C -133.51996,119.14944 -143.10442,119.52846 -145.42693,116.24365 L -145.42693,95.018750 z" transform="matrix(0.784957,0.000000,0.000000,0.784957,115.0235,-68.41639)"/><path style="fill:none;fill-opacity:.75;fill-rule:evenodd;stroke:#000;stroke-width:1.2739551;stroke-linecap:butt;stroke-linejoin:miter;stroke-miterlimit:4;stroke-opacity:1" id="path6872" d="M -138.51906,118.44744 L -138.32823,97.230380" transform="matrix(0.784957,0.000000,0.000000,0.784957,115.0235,-68.41639)"/></g><path style="fill:#000;fill-opacity:1;fill-rule:evenodd;stroke:none;stroke-width:.25pt;stroke-linecap:butt;stroke-linejoin:miter;stroke-opacity:1" id="path6873" d="M -200.10033,212.74028 L -210.90536,217.55143 L -204.46466,223.04925 L -200.10033,212.74028 z" transform="translate(89.80430,223.3481)"/><g id="g6874" transform="matrix(0.707107,0.707107,-0.707107,0.707107,-99.81239,429.9265)" style="opacity:.40000001"><path style="fill:#bab5ab;fill-opacity:1;fill-rule:nonzero;stroke:#000;stroke-width:1.4454792;stroke-linecap:square;stroke-linejoin:bevel;stroke-miterlimit:4;stroke-dashoffset:0;stroke-opacity:1" id="path6875" d="M 23.446670 5.0481038 A 9.2335644 2.5899436 0 1 1 4.9795408,5.0481038 A 9.2335644 2.5899436 0 1 1 23.446670 5.0481038 z" transform="matrix(0.609720,0.000000,0.000000,0.784957,-2.147814,2.119215)"/><path style="fill:#bab5ab;fill-opacity:1;fill-rule:nonzero;stroke:#000;stroke-width:1.2739551;stroke-linecap:square;stroke-linejoin:bevel;stroke-miterlimit:4;stroke-dashoffset:0;stroke-opacity:1" id="path6876" d="M -145.42693,95.018750 C -143.20255,97.798200 -133.42183,97.924540 -131.09932,95.018750 L -131.09932,116.24365 C -133.51996,119.14944 -143.10442,119.52846 -145.42693,116.24365 L -145.42693,95.018750 z" transform="matrix(0.784957,0.000000,0.000000,0.784957,115.0235,-68.41639)"/><path style="fill:none;fill-opacity:.75;fill-rule:evenodd;stroke:#000;stroke-width:1.2739551;stroke-linecap:butt;stroke-linejoin:miter;stroke-miterlimit:4;stroke-opacity:1" id="path6877" d="M -138.51906,118.44744 L -138.32823,97.230380" transform="matrix(0.784957,0.000000,0.000000,0.784957,115.0235,-68.41639)"/></g><path style="fill:#000;fill-opacity:1;fill-rule:evenodd;stroke:none;stroke-width:.25pt;stroke-linecap:butt;stroke-linejoin:miter;stroke-opacity:1" id="path6878" d="M -101.46733,443.24829 L -90.662303,448.05944 L -97.103003,453.55726 L -101.46733,443.24829 z" transform="translate(0.000000,-6.944444)"/><path style="fill:#000;fill-opacity:1;fill-rule:nonzero;stroke:none;stroke-width:2.5;stroke-linecap:square;stroke-linejoin:miter;stroke-miterlimit:4;stroke-dashoffset:0;stroke-opacity:1" id="path6879" d="M -186.41228,218.45907 L -186.47574,220.10947 C -186.48451,220.05921 -183.85979,220.50703 -183.85979,221.70992 C -183.85979,224.04097 -188.30259,224.59179 -195.78261,224.59179 C -203.26265,224.59179 -207.86284,223.97751 -207.86284,221.64646 C -207.86284,220.53087 -205.53738,220.09092 -205.61502,220.15576 L -205.55156,218.51681 C -207.79261,218.82240 -210.35834,220.20519 -210.35834,222.00483 C -210.35834,225.40891 -206.46440,230.38980 -195.82166,230.38980 C -185.11556,230.38980 -181.52496,225.40891 -181.52496,222.00483 C -181.52496,220.16918 -182.92424,219.02087 -186.41228,218.45907 z" transform="translate(89.80430,223.3481)"/></g></g></svg>