<svg xmlns="http://www.w3.org/2000/svg" xmlns:cc="http://web.resource.org/cc/" xmlns:svg="http://www.w3.org/2000/svg" id="svg4046" width="32" height="32" contentScriptType="text/ecmascript" contentStyleType="text/css" preserveAspectRatio="xMidYMid meet" version="1.0" zoomAndPan="magnify"><metadata id="metadata4"/><g id="layer1"><g id="g14825" transform="matrix(1.020897,0,0,1.020897,-0.171112,-0.469241)"><path transform="translate(-0.575826,-1.727481)" style="opacity:1;fill:none;fill-opacity:1;fill-rule:evenodd;stroke:#ec0000;stroke-width:1;stroke-linecap:butt;stroke-linejoin:miter;stroke-miterlimit:4;stroke-dasharray:none;stroke-dashoffset:0;stroke-opacity:1" id="path14805" d="M 10.148947 7.9026475 A 3.8868308 3.8868308 0 1 1 2.3752856,7.9026475 A 3.8868308 3.8868308 0 1 1 10.148947 7.9026475 z"/><path id="path14815" d="M 5.9742028,4.3037301 L 5.8302461,7.7586907 L 8.8533367,6.0312104 L 5.9742028,4.3037301 z" style="fill:none;fill-opacity:1;fill-rule:evenodd;stroke:#e70000;stroke-width:1px;stroke-linecap:butt;stroke-linejoin:miter;stroke-opacity:1"/></g><g id="g14829" transform="matrix(2.337284e-2,1.02063,-1.02063,2.337284e-2,21.35638,-0.112958)" style="stroke:#000;stroke-opacity:1"><path id="path14831" d="M 10.148947 7.9026475 A 3.8868308 3.8868308 0 1 1 2.3752856,7.9026475 A 3.8868308 3.8868308 0 1 1 10.148947 7.9026475 z" style="opacity:1;fill:none;fill-opacity:1;fill-rule:evenodd;stroke:#000;stroke-width:1;stroke-linecap:butt;stroke-linejoin:miter;stroke-miterlimit:4;stroke-dasharray:none;stroke-dashoffset:0;stroke-opacity:1" transform="translate(-0.575826,-1.727481)"/><path style="fill:none;fill-opacity:1;fill-rule:evenodd;stroke:#000;stroke-width:1px;stroke-linecap:butt;stroke-linejoin:miter;stroke-opacity:1" id="path14833" d="M 5.9742028,4.3037301 L 5.8302461,7.7586907 L 8.8533367,6.0312104 L 5.9742028,4.3037301 z"/></g><g style="stroke:#000;stroke-opacity:1" id="g14835" transform="matrix(-1.020499,-2.852663e-2,2.852663e-2,-1.020499,30.43454,12.29893)"><path transform="translate(-0.575826,-1.727481)" style="opacity:1;fill:none;fill-opacity:1;fill-rule:evenodd;stroke:#000;stroke-width:1;stroke-linecap:butt;stroke-linejoin:miter;stroke-miterlimit:4;stroke-dasharray:none;stroke-dashoffset:0;stroke-opacity:1" id="path14837" d="M 10.148947 7.9026475 A 3.8868308 3.8868308 0 1 1 2.3752856,7.9026475 A 3.8868308 3.8868308 0 1 1 10.148947 7.9026475 z"/><path id="path14839" d="M 5.9742028,4.3037301 L 5.8302461,7.7586907 L 8.8533367,6.0312104 L 5.9742028,4.3037301 z" style="fill:none;fill-opacity:1;fill-rule:evenodd;stroke:#000;stroke-width:1px;stroke-linecap:butt;stroke-linejoin:miter;stroke-opacity:1"/></g></g></svg>