<svg xmlns="http://www.w3.org/2000/svg" xmlns:cc="http://web.resource.org/cc/" xmlns:svg="http://www.w3.org/2000/svg" id="svg4046" width="32" height="32" contentScriptType="text/ecmascript" contentStyleType="text/css" preserveAspectRatio="xMidYMid meet" version="1.0" zoomAndPan="magnify"><metadata id="metadata4"/><g id="layer1"><g id="g14934" transform="matrix(0.880669,0,0,0.880669,-0.437944,3.711654)"><g id="g14914" transform="translate(38.43644,-4.030788)"><g id="g14841" transform="matrix(3.318876e-2,1.020357,-1.020357,3.318876e-2,11.74616,9.760985)" style="stroke:#707070;stroke-opacity:1"><path transform="translate(-1.648518,31.25143)" style="opacity:1;fill:none;fill-opacity:1;fill-rule:evenodd;stroke:#707070;stroke-width:1;stroke-linecap:butt;stroke-linejoin:miter;stroke-miterlimit:4;stroke-dasharray:none;stroke-dashoffset:0;stroke-opacity:1" id="path14877" d="M 10.148947 7.9026475 A 3.8868308 3.8868308 0 1 1 2.3752856,7.9026475 A 3.8868308 3.8868308 0 1 1 10.148947 7.9026475 z"/><path id="path14879" d="M 4.9015104,37.282644 L 4.7575537,40.737604 L 7.7806443,39.010124 L 4.9015104,37.282644 z" style="fill:none;fill-opacity:1;fill-rule:evenodd;stroke:#707070;stroke-width:1px;stroke-linecap:butt;stroke-linejoin:miter;stroke-opacity:1"/></g><g id="g14859" transform="matrix(1.020897,0,0,1.020897,-33.85698,-0.469241)" style="stroke:#707070;stroke-opacity:1"><path id="path14861" d="M 10.148947 7.9026475 A 3.8868308 3.8868308 0 1 1 2.3752856,7.9026475 A 3.8868308 3.8868308 0 1 1 10.148947 7.9026475 z" style="opacity:1;fill:none;fill-opacity:1;fill-rule:evenodd;stroke:#707070;stroke-width:1;stroke-linecap:butt;stroke-linejoin:miter;stroke-miterlimit:4;stroke-dasharray:none;stroke-dashoffset:0;stroke-opacity:1" transform="translate(-0.575826,-1.727481)"/><path style="fill:none;fill-opacity:1;fill-rule:evenodd;stroke:#707070;stroke-width:1px;stroke-linecap:butt;stroke-linejoin:miter;stroke-opacity:1" id="path14863" d="M 5.9742028,4.3037301 L 5.8302461,7.7586907 L 8.8533367,6.0312104 L 5.9742028,4.3037301 z"/></g><g style="stroke:#707070;stroke-opacity:1" id="g14865" transform="matrix(2.337284e-2,1.02063,-1.02063,2.337284e-2,-12.32949,-0.112958)"><path transform="translate(-0.575826,-1.727481)" style="opacity:1;fill:none;fill-opacity:1;fill-rule:evenodd;stroke:#707070;stroke-width:1;stroke-linecap:butt;stroke-linejoin:miter;stroke-miterlimit:4;stroke-dasharray:none;stroke-dashoffset:0;stroke-opacity:1" id="path14867" d="M 10.148947 7.9026475 A 3.8868308 3.8868308 0 1 1 2.3752856,7.9026475 A 3.8868308 3.8868308 0 1 1 10.148947 7.9026475 z"/><path id="path14869" d="M 5.9742028,4.3037301 L 5.8302461,7.7586907 L 8.8533367,6.0312104 L 5.9742028,4.3037301 z" style="fill:none;fill-opacity:1;fill-rule:evenodd;stroke:#707070;stroke-width:1px;stroke-linecap:butt;stroke-linejoin:miter;stroke-opacity:1"/></g><g id="g14871" transform="matrix(-1.020499,-2.852663e-2,2.852663e-2,-1.020499,-3.251326,12.29893)" style="stroke:#707070;stroke-opacity:1"><path id="path14873" d="M 10.148947 7.9026475 A 3.8868308 3.8868308 0 1 1 2.3752856,7.9026475 A 3.8868308 3.8868308 0 1 1 10.148947 7.9026475 z" style="opacity:1;fill:none;fill-opacity:1;fill-rule:evenodd;stroke:#707070;stroke-width:1;stroke-linecap:butt;stroke-linejoin:miter;stroke-miterlimit:4;stroke-dasharray:none;stroke-dashoffset:0;stroke-opacity:1" transform="translate(-0.575826,-1.727481)"/><path style="fill:none;fill-opacity:1;fill-rule:evenodd;stroke:#707070;stroke-width:1px;stroke-linecap:butt;stroke-linejoin:miter;stroke-opacity:1" id="path14875" d="M 5.9742028,4.3037301 L 5.8302461,7.7586907 L 8.8533367,6.0312104 L 5.9742028,4.3037301 z"/></g><g id="g14881" transform="matrix(-1.019067,6.110177e-2,-6.110177e-2,-1.019067,-12.32712,21.71345)" style="stroke:#707070;stroke-opacity:1"><path id="path14883" d="M 10.148947 7.9026475 A 3.8868308 3.8868308 0 1 1 2.3752856,7.9026475 A 3.8868308 3.8868308 0 1 1 10.148947 7.9026475 z" style="opacity:1;fill:none;fill-opacity:1;fill-rule:evenodd;stroke:#707070;stroke-width:1;stroke-linecap:butt;stroke-linejoin:miter;stroke-miterlimit:4;stroke-dasharray:none;stroke-dashoffset:0;stroke-opacity:1" transform="translate(-0.575826,-1.727481)"/><path style="fill:none;fill-opacity:1;fill-rule:evenodd;stroke:#707070;stroke-width:1px;stroke-linecap:butt;stroke-linejoin:miter;stroke-opacity:1" id="path14885" d="M 5.9742028,4.3037301 L 5.8302461,7.7586907 L 8.8533367,6.0312104 L 5.9742028,4.3037301 z"/></g><g style="stroke:#707070;stroke-opacity:1" id="g14887" transform="matrix(-6.084423e-2,-1.019083,1.019083,-6.084423e-2,-14.82505,21.93852)"><path transform="translate(-0.575826,-1.727481)" style="opacity:1;fill:none;fill-opacity:1;fill-rule:evenodd;stroke:#707070;stroke-width:1;stroke-linecap:butt;stroke-linejoin:miter;stroke-miterlimit:4;stroke-dasharray:none;stroke-dashoffset:0;stroke-opacity:1" id="path14889" d="M 10.148947 7.9026475 A 3.8868308 3.8868308 0 1 1 2.3752856,7.9026475 A 3.8868308 3.8868308 0 1 1 10.148947 7.9026475 z"/><path id="path14891" d="M 5.9742028,4.3037301 L 5.8302461,7.7586907 L 8.8533367,6.0312104 L 5.9742028,4.3037301 z" style="fill:none;fill-opacity:1;fill-rule:evenodd;stroke:#707070;stroke-width:1px;stroke-linecap:butt;stroke-linejoin:miter;stroke-opacity:1"/></g></g><g id="g14895"><g id="g14825" transform="matrix(1.020897,0,0,1.020897,-0.171112,-0.469241)"><path transform="translate(-0.575826,-1.727481)" style="opacity:1;fill:none;fill-opacity:1;fill-rule:evenodd;stroke:#ec0000;stroke-width:1;stroke-linecap:butt;stroke-linejoin:miter;stroke-miterlimit:4;stroke-dasharray:none;stroke-dashoffset:0;stroke-opacity:1" id="path14805" d="M 10.148947 7.9026475 A 3.8868308 3.8868308 0 1 1 2.3752856,7.9026475 A 3.8868308 3.8868308 0 1 1 10.148947 7.9026475 z"/><path id="path14815" d="M 5.9742028,4.3037301 L 5.8302461,7.7586907 L 8.8533367,6.0312104 L 5.9742028,4.3037301 z" style="fill:none;fill-opacity:1;fill-rule:evenodd;stroke:#e70000;stroke-width:1px;stroke-linecap:butt;stroke-linejoin:miter;stroke-opacity:1"/></g><g id="g14829" transform="matrix(2.337284e-2,1.02063,-1.02063,2.337284e-2,21.35638,-0.112958)" style="stroke:#000;stroke-opacity:1"><path id="path14831" d="M 10.148947 7.9026475 A 3.8868308 3.8868308 0 1 1 2.3752856,7.9026475 A 3.8868308 3.8868308 0 1 1 10.148947 7.9026475 z" style="opacity:1;fill:none;fill-opacity:1;fill-rule:evenodd;stroke:#000;stroke-width:1;stroke-linecap:butt;stroke-linejoin:miter;stroke-miterlimit:4;stroke-dasharray:none;stroke-dashoffset:0;stroke-opacity:1" transform="translate(-0.575826,-1.727481)"/><path style="fill:none;fill-opacity:1;fill-rule:evenodd;stroke:#000;stroke-width:1px;stroke-linecap:butt;stroke-linejoin:miter;stroke-opacity:1" id="path14833" d="M 5.9742028,4.3037301 L 5.8302461,7.7586907 L 8.8533367,6.0312104 L 5.9742028,4.3037301 z"/></g><g style="stroke:#000;stroke-opacity:1" id="g14835" transform="matrix(-1.020499,-2.852663e-2,2.852663e-2,-1.020499,30.43454,12.29893)"><path transform="translate(-0.575826,-1.727481)" style="opacity:1;fill:none;fill-opacity:1;fill-rule:evenodd;stroke:#000;stroke-width:1;stroke-linecap:butt;stroke-linejoin:miter;stroke-miterlimit:4;stroke-dasharray:none;stroke-dashoffset:0;stroke-opacity:1" id="path14837" d="M 10.148947 7.9026475 A 3.8868308 3.8868308 0 1 1 2.3752856,7.9026475 A 3.8868308 3.8868308 0 1 1 10.148947 7.9026475 z"/><path id="path14839" d="M 5.9742028,4.3037301 L 5.8302461,7.7586907 L 8.8533367,6.0312104 L 5.9742028,4.3037301 z" style="fill:none;fill-opacity:1;fill-rule:evenodd;stroke:#000;stroke-width:1px;stroke-linecap:butt;stroke-linejoin:miter;stroke-opacity:1"/></g><path id="path14843" d="M 10.148947 7.9026475 A 3.8868308 3.8868308 0 1 1 2.3752856,7.9026475 A 3.8868308 3.8868308 0 1 1 10.148947 7.9026475 z" style="opacity:1;fill:none;fill-opacity:1;fill-rule:evenodd;stroke:#000;stroke-width:1;stroke-linecap:butt;stroke-linejoin:miter;stroke-miterlimit:4;stroke-dasharray:none;stroke-dashoffset:0;stroke-opacity:1" transform="matrix(3.318876e-2,1.020357,-1.020357,3.318876e-2,13.4897,9.116104)"/><path transform="matrix(3.318876e-2,1.020357,-1.020357,3.318876e-2,11.74616,9.760985)" style="fill:none;fill-opacity:1;fill-rule:evenodd;stroke:#000;stroke-width:1px;stroke-linecap:butt;stroke-linejoin:miter;stroke-opacity:1" id="path14845" d="M 5.9742028,4.3037301 L 5.8302461,7.7586907 L 8.8533367,6.0312104 L 5.9742028,4.3037301 z"/><g style="stroke:#000;stroke-opacity:1" id="g14847" transform="matrix(-1.019067,6.110177e-2,-6.110177e-2,-1.019067,21.35875,21.71345)"><path transform="translate(-0.575826,-1.727481)" style="opacity:1;fill:none;fill-opacity:1;fill-rule:evenodd;stroke:#000;stroke-width:1;stroke-linecap:butt;stroke-linejoin:miter;stroke-miterlimit:4;stroke-dasharray:none;stroke-dashoffset:0;stroke-opacity:1" id="path14849" d="M 10.148947 7.9026475 A 3.8868308 3.8868308 0 1 1 2.3752856,7.9026475 A 3.8868308 3.8868308 0 1 1 10.148947 7.9026475 z"/><path id="path14851" d="M 5.9742028,4.3037301 L 5.8302461,7.7586907 L 8.8533367,6.0312104 L 5.9742028,4.3037301 z" style="fill:none;fill-opacity:1;fill-rule:evenodd;stroke:#000;stroke-width:1px;stroke-linecap:butt;stroke-linejoin:miter;stroke-opacity:1"/></g><g id="g14853" transform="matrix(-6.084423e-2,-1.019083,1.019083,-6.084423e-2,18.86082,21.93852)" style="stroke:#000;stroke-opacity:1"><path id="path14855" d="M 10.148947 7.9026475 A 3.8868308 3.8868308 0 1 1 2.3752856,7.9026475 A 3.8868308 3.8868308 0 1 1 10.148947 7.9026475 z" style="opacity:1;fill:none;fill-opacity:1;fill-rule:evenodd;stroke:#000;stroke-width:1;stroke-linecap:butt;stroke-linejoin:miter;stroke-miterlimit:4;stroke-dasharray:none;stroke-dashoffset:0;stroke-opacity:1" transform="translate(-0.575826,-1.727481)"/><path style="fill:none;fill-opacity:1;fill-rule:evenodd;stroke:#000;stroke-width:1px;stroke-linecap:butt;stroke-linejoin:miter;stroke-opacity:1" id="path14857" d="M 5.9742028,4.3037301 L 5.8302461,7.7586907 L 8.8533367,6.0312104 L 5.9742028,4.3037301 z"/></g></g></g></g></svg>