<svg id="svg6547" width="32" height="32" contentScriptType="text/ecmascript" contentStyleType="text/css" preserveAspectRatio="xMidYMid meet" version="1.0" zoomAndPan="magnify"><defs id="defs3"><radialGradient id="radialGradient6939" cx="10.317" cy="13.584" r="13.58" fx="10.082" fy="13.417" gradientTransform="matrix(1.131036,0.000000,0.000000,0.884145,-2.073689,-1.398533)" gradientUnits="userSpaceOnUse"><stop style="stop-color:#eae8e3;stop-opacity:1" id="stop12427radialGradient6939" offset="0"/><stop style="stop-color:#807d74;stop-opacity:1" id="stop12428radialGradient6939" offset="1"/></radialGradient><radialGradient id="radialGradient6538" cx="10.317" cy="13.584" r="13.58" fx="10.082" fy="13.417" gradientTransform="scale(1.131036,0.884145)" gradientUnits="userSpaceOnUse"><stop style="stop-color:#eae8e3;stop-opacity:1" id="stop12427radialGradient6538" offset="0"/><stop style="stop-color:#807d74;stop-opacity:1" id="stop12428radialGradient6538" offset="1"/></radialGradient><linearGradient id="linearGradient12426"><stop style="stop-color:#eae8e3;stop-opacity:1" id="stop12427" offset="0"/><stop style="stop-color:#807d74;stop-opacity:1" id="stop12428" offset="1"/></linearGradient><radialGradient id="radialGradient6416" cx="12.018" cy="15.762" r="9.668" fx="11.882" fy="15.762" gradientTransform="scale(1.131036,0.884145)" gradientUnits="userSpaceOnUse"><stop style="stop-color:#eae8e3;stop-opacity:1" id="stop12427radialGradient6416" offset="0"/><stop style="stop-color:#807d74;stop-opacity:1" id="stop12428radialGradient6416" offset="1"/></radialGradient></defs><metadata id="metadata4"><rdf:RDF xmlns:rdf="http://www.w3.org/1999/02/22-rdf-syntax-ns#" id="RDF5"><cc:Work xmlns:cc="http://web.resource.org/cc/" id="Work6"><dc:format xmlns:dc="http://purl.org/dc/elements/1.1/" id="format7">image/svg+xml</dc:format><dc:type xmlns:dc="http://purl.org/dc/elements/1.1/" id="type9" rdf:resource="http://purl.org/dc/dcmitype/StillImage"/></cc:Work></rdf:RDF></metadata><g id="layer1"><g id="g6935" transform="translate(0.474828,-0.841241)"><path style="fill:url(#radialGradient6939);fill-opacity:1;fill-rule:nonzero;stroke:#000;stroke-width:1.1375;stroke-linecap:square;stroke-linejoin:bevel;stroke-miterlimit:4;stroke-dashoffset:0;stroke-opacity:1" id="rect6913" d="M 4.5312500,4.5312500 C 2.6043021,4.5312500 1.0312500,5.7139518 1.0312500,7.1875000 L 1.0312500,25.343750 C 1.0312500,26.817298 2.6043024,28.000000 4.5312500,28.000000 L 24.781250,28.000000 C 26.708198,28.000000 28.250001,26.817298 28.250000,25.343750 L 28.250000,7.1875000 C 28.250000,5.7139518 26.708198,4.5312500 24.781250,4.5312500 L 4.5312500,4.5312500 z M 8.3437500,9.6875000 L 21.218750,9.6875000 C 22.638078,9.6875000 23.781250,10.870202 23.781250,12.343750 L 23.781250,19.906250 C 23.781250,21.379799 22.638078,22.562500 21.218750,22.562500 L 8.3437500,22.562500 C 6.9244216,22.562499 5.7812500,21.379798 5.7812500,19.906250 L 5.7812500,12.343750 C 5.7812500,10.870202 6.9244218,9.6875000 8.3437500,9.6875000 z"/><path id="path6916" style="fill:none;fill-opacity:1;fill-rule:nonzero;stroke:#000;stroke-width:1.25;stroke-linecap:square;stroke-linejoin:bevel;stroke-miterlimit:4;stroke-dasharray:1.25 2.5;stroke-dashoffset:0;stroke-opacity:1" d="M 8.9692180,12.578861 L 19.676615,12.578861 L 19.676615,19.691587 L 8.9692180,19.691587 L 8.9692180,12.578861 z"/><path style="fill:#fff;fill-opacity:1;fill-rule:evenodd;stroke:none;stroke-width:1pt;stroke-linecap:butt;stroke-linejoin:miter;stroke-opacity:1" id="path6917" d="M 14.129872,6.0951740 C 9.3282245,5.6294452 4.0333406,5.8065061 3.0449017,6.6129802 C 2.4243292,7.1193096 2.0944921,12.464583 3.2187080,20.166369 C 3.9006140,10.776016 3.5847194,6.5474839 13.800508,6.6708558"/></g></g></svg>