<svg xmlns="http://www.w3.org/2000/svg" xmlns:svg="http://www.w3.org/2000/svg" id="svg4770" width="32" height="32" contentScriptType="text/ecmascript" contentStyleType="text/css" preserveAspectRatio="xMidYMid meet" version="1.0" zoomAndPan="magnify"><defs id="defs3"><linearGradient id="linearGradient12426"><stop style="stop-color:#eae8e3;stop-opacity:1" id="stop12427" offset="0"/><stop style="stop-color:#807d74;stop-opacity:1" id="stop12428" offset="1"/></linearGradient></defs><metadata id="metadata4"/><g id="layer1"><g id="g6227" transform="translate(171.05369,-482.02713)"><g id="g4497" transform="translate(10.760763,0.1079679)"><g id="g4645" transform="translate(-0.3398009,-0.1603929)"><g id="g4613" transform="translate(-7.3405311e-2,0.347825)"><path style="fill:none;fill-opacity:1;fill-rule:nonzero;stroke:#df421e;stroke-width:3.75;stroke-linecap:butt;stroke-linejoin:bevel;marker:none;marker-start:none;marker-mid:none;marker-end:none;stroke-miterlimit:4;stroke-dasharray:none;stroke-dashoffset:0;stroke-opacity:1;visibility:visible;display:inline;overflow:visible;enable-background:accumulate" id="path2397" d="M -169.0383,484.38744 C -159.87812,485.50124 -166.5191,505.90906 -153.85086,509.07602"/><path style="fill:#000;fill-opacity:1;fill-rule:nonzero;stroke:#807d74;stroke-width:0;stroke-linecap:square;stroke-linejoin:bevel;stroke-miterlimit:4;stroke-dashoffset:0;stroke-opacity:1" id="path6246" d="M -93.188063,-87.276924 A 3.4174511,3.4174511 0 1 1 -100.02297,-87.276924 A 3.4174511,3.4174511 0 1 1 -93.188063,-87.276924 z" transform="matrix(0.496913,0,0,0.496913,-106.00552,552.51167)"/><path style="fill:#000;fill-opacity:1;fill-rule:nonzero;stroke:#807d74;stroke-width:0;stroke-linecap:square;stroke-linejoin:bevel;stroke-miterlimit:4;stroke-dashoffset:0;stroke-opacity:1" id="path6248" d="M -93.188063,-87.276924 A 3.4174511,3.4174511 0 1 1 -100.02297,-87.276924 A 3.4174511,3.4174511 0 1 1 -93.188063,-87.276924 z" transform="matrix(0.496913,0,0,0.496913,-120.72305,527.8231)"/></g><g id="g4618" transform="translate(-10.474277,0.2812082)"><path id="path4499" d="M 2.0153937,2.3603147 C 11.175574,3.4741084 4.5345931,23.881926 17.202825,27.048888" transform="translate(-171.05369,482.02713)" style="opacity:1;fill:none;fill-opacity:1;fill-rule:nonzero;stroke:#000;stroke-width:1;stroke-linecap:square;stroke-linejoin:bevel;marker:none;marker-start:none;marker-mid:none;marker-end:none;stroke-miterlimit:4;stroke-dasharray:none;stroke-dashoffset:0;stroke-opacity:1;visibility:visible;display:inline;overflow:visible;enable-background:accumulate"/><path id="path4503" d="M -93.188063,-87.276924 A 3.4174511,3.4174511 0 1 1 -100.02297,-87.276924 A 3.4174511,3.4174511 0 1 1 -93.188063,-87.276924 z" transform="matrix(0.496913,0,0,0.496913,-106.00552,552.51167)" style="fill:#000;fill-opacity:1;fill-rule:nonzero;stroke:#807d74;stroke-width:0;stroke-linecap:square;stroke-linejoin:bevel;stroke-miterlimit:4;stroke-dashoffset:0;stroke-opacity:1"/><path id="path4507" d="M -93.188063,-87.276924 A 3.4174511,3.4174511 0 1 1 -100.02297,-87.276924 A 3.4174511,3.4174511 0 1 1 -93.188063,-87.276924 z" transform="matrix(0.496913,0,0,0.496913,-120.72305,527.8231)" style="fill:#000;fill-opacity:1;fill-rule:nonzero;stroke:#807d74;stroke-width:0;stroke-linecap:square;stroke-linejoin:bevel;stroke-miterlimit:4;stroke-dashoffset:0;stroke-opacity:1"/></g></g></g></g></g></svg>