<svg id="svg4770" width="32" height="32" contentScriptType="text/ecmascript" contentStyleType="text/css" preserveAspectRatio="xMidYMid meet" version="1.0" zoomAndPan="magnify"><defs id="defs3"><linearGradient id="linearGradient12426"><stop style="stop-color:#eae8e3;stop-opacity:1" id="stop12427" offset="0"/><stop style="stop-color:#807d74;stop-opacity:1" id="stop12428" offset="1"/></linearGradient><linearGradient id="linearGradient4787" x1="12.73" x2="17.817" y1="5.681" y2="19.925" gradientTransform="scale(1.075664,0.929658)" gradientUnits="userSpaceOnUse"><stop style="stop-color:#eae8e3;stop-opacity:1" id="stop12427linearGradient4787" offset="0"/><stop style="stop-color:#807d74;stop-opacity:1" id="stop12428linearGradient4787" offset="1"/></linearGradient></defs><metadata id="metadata4"><rdf:RDF xmlns:rdf="http://www.w3.org/1999/02/22-rdf-syntax-ns#" id="RDF5"><cc:Work xmlns:cc="http://web.resource.org/cc/" id="Work6"><dc:format xmlns:dc="http://purl.org/dc/elements/1.1/" id="format7">image/svg+xml</dc:format><dc:type xmlns:dc="http://purl.org/dc/elements/1.1/" id="type9" rdf:resource="http://purl.org/dc/dcmitype/StillImage"/></cc:Work></rdf:RDF></metadata><g id="layer1"><g id="g6134" transform="translate(79.35044,-475.0046)"><path style="fill:#df421e;fill-opacity:1;stroke:#000;stroke-linecap:square;stroke-linejoin:bevel;stroke-dashoffset:0" id="path6361" d="M -77.464270,480.96089 L -64.714958,488.09747 L -64.714958,501.80325 L -76.454348,493.84911 L -77.464270,480.96089 z"/><path style="fill:#df421e;fill-opacity:1;stroke:#000;stroke-width:1.2125;stroke-linecap:square;stroke-linejoin:bevel;stroke-dashoffset:0" id="path6362" d="M -64.438148,488.17128 L -52.289588,481.99144 L -53.304450,494.01372 L -64.415953,502.28045 L -64.438148,488.17128 z"/><path style="fill:#df421e;fill-opacity:1;stroke:#000;stroke-linecap:square;stroke-linejoin:bevel;stroke-dashoffset:0" id="path6363" d="M -65.942874,478.07919 L -52.018194,482.26503 L -64.400411,487.91669 L -77.575139,481.09781 L -65.942874,478.07919 z"/><path style="fill:#000;fill-opacity:1;fill-rule:nonzero;stroke:#807d74;stroke-width:0;stroke-linecap:square;stroke-linejoin:bevel;stroke-miterlimit:4;stroke-dashoffset:0;stroke-opacity:1" id="path6364" d="M -93.188063 -87.276924 A 3.4174511 3.4174511 0 1 1 -100.02297,-87.276924 A 3.4174511 3.4174511 0 1 1 -93.188063 -87.276924 z" transform="matrix(0.496913,0.000000,0.000000,0.496913,-4.788681,525.6907)"/><path style="fill:#000;fill-opacity:1;fill-rule:nonzero;stroke:#807d74;stroke-width:0;stroke-linecap:square;stroke-linejoin:bevel;stroke-miterlimit:4;stroke-dashoffset:0;stroke-opacity:1" id="path6365" d="M -93.188063 -87.276924 A 3.4174511 3.4174511 0 1 1 -100.02297,-87.276924 A 3.4174511 3.4174511 0 1 1 -93.188063 -87.276924 z" transform="matrix(0.496913,0.000000,0.000000,0.496913,-18.01968,521.3259)"/><path style="fill:#000;fill-opacity:1;fill-rule:nonzero;stroke:#807d74;stroke-width:0;stroke-linecap:square;stroke-linejoin:bevel;stroke-miterlimit:4;stroke-dashoffset:0;stroke-opacity:1" id="path6366" d="M -93.188063 -87.276924 A 3.4174511 3.4174511 0 1 1 -100.02297,-87.276924 A 3.4174511 3.4174511 0 1 1 -93.188063 -87.276924 z" transform="matrix(0.496913,0.000000,0.000000,0.496913,-28.93183,524.3267)"/><path style="fill:#000;fill-opacity:1;fill-rule:nonzero;stroke:#807d74;stroke-width:0;stroke-linecap:square;stroke-linejoin:bevel;stroke-miterlimit:4;stroke-dashoffset:0;stroke-opacity:1" id="path6367" d="M -93.188063 -87.276924 A 3.4174511 3.4174511 0 1 1 -100.02297,-87.276924 A 3.4174511 3.4174511 0 1 1 -93.188063 -87.276924 z" transform="matrix(0.496913,0.000000,0.000000,0.496913,-16.65568,531.2832)"/><path style="fill:#000;fill-opacity:1;fill-rule:nonzero;stroke:#807d74;stroke-width:0;stroke-linecap:square;stroke-linejoin:bevel;stroke-miterlimit:4;stroke-dashoffset:0;stroke-opacity:1" id="path6368" d="M -93.188063 -87.276924 A 3.4174511 3.4174511 0 1 1 -100.02297,-87.276924 A 3.4174511 3.4174511 0 1 1 -93.188063 -87.276924 z" transform="matrix(0.496913,0.000000,0.000000,0.496913,-5.470781,537.1485)"/><path style="fill:#000;fill-opacity:1;fill-rule:nonzero;stroke:#807d74;stroke-width:0;stroke-linecap:square;stroke-linejoin:bevel;stroke-miterlimit:4;stroke-dashoffset:0;stroke-opacity:1" id="path6369" d="M -93.188063 -87.276924 A 3.4174511 3.4174511 0 1 1 -100.02297,-87.276924 A 3.4174511 3.4174511 0 1 1 -93.188063 -87.276924 z" transform="matrix(0.496913,0.000000,0.000000,0.496913,-16.24648,544.6506)"/><path style="fill:#000;fill-opacity:1;fill-rule:nonzero;stroke:#807d74;stroke-width:0;stroke-linecap:square;stroke-linejoin:bevel;stroke-miterlimit:4;stroke-dashoffset:0;stroke-opacity:1" id="path6370" d="M -93.188063 -87.276924 A 3.4174511 3.4174511 0 1 1 -100.02297,-87.276924 A 3.4174511 3.4174511 0 1 1 -93.188063 -87.276924 z" transform="matrix(0.496913,0.000000,0.000000,0.496913,-28.24983,537.1485)"/></g></g></svg>