<svg xmlns="http://www.w3.org/2000/svg" xmlns:cc="http://web.resource.org/cc/" xmlns:xlink="http://www.w3.org/1999/xlink" id="svg548" width="32" height="32" x="0" y="0" version="1" viewBox="0 0 256 256"><defs id="defs573"><linearGradient id="linearGradient1591"><stop style="stop-color:#8c0000;stop-opacity:1" id="stop1592" offset="0"/><stop style="stop-color:#101010;stop-opacity:1" id="stop1595" offset="1"/></linearGradient><radialGradient id="radialGradient9004" cx=".53" cy=".172" r=".565" fx=".526" fy=".152" xlink:href="#linearGradient647"/><linearGradient id="linearGradient650" xlink:href="#linearGradient647"/><linearGradient id="linearGradient647"><stop style="stop-color:#d70000;stop-opacity:1" id="stop648" offset="0"/><stop style="stop-color:#bbc213;stop-opacity:1" id="stop1589" offset=".469"/><stop style="stop-color:#18506b;stop-opacity:1" id="stop1590" offset=".915"/><stop style="stop-color:#101010;stop-opacity:1" id="stop649" offset="1"/></linearGradient><linearGradient id="linearGradient651" xlink:href="#linearGradient647"/><radialGradient id="radialGradient1588" cx=".5" cy=".5" r=".5" fx=".5" fy=".5" xlink:href="#linearGradient1591"/></defs><metadata id="metadata1115"/><path style="font-size:12;font-style:normal;font-variant:normal;font-weight:100;font-stretch:ultra-condensed;color:#000;fill:url(#radialGradient9004);fill-opacity:1;fill-rule:evenodd;stroke:url(#radialGradient1588);stroke-width:5.2839985;stroke-linecap:butt;stroke-linejoin:miter;stroke-miterlimit:4;stroke-dashoffset:0;stroke-opacity:1;marker:none;marker-start:none;marker-mid:none;marker-end:none;font-family:Bitstream Vera Sans;letter-spacing:0;text-anchor:start;writing-mode:lr" id="path7755" d="M 121.41585,119.56591 C 75.818663,124.01138 67.481238,161.99856 51.425769,182.52501 C 42.829793,193.51474 19.541654,190.85722 14.107609,192.00000 L 14.107609,244.41718 C 26.509334,244.14536 49.105639,249.03298 65.104747,228.46272 C 81.103922,207.89239 97.417086,174.26872 121.41585,171.98317 C 123.67627,171.76788 131.44049,171.76788 133.70091,171.98317 C 157.69954,174.26872 167.30647,197.27020 183.30551,217.84053 C 199.30468,238.41079 208.82018,240.08268 240.81845,241.22546 L 240.81845,188.80829 C 208.82018,187.66551 209.94897,184.60436 193.48708,167.45967 C 177.02519,150.31499 180.73780,125.09129 133.70091,119.56591 C 131.43832,119.37243 122.91534,119.41959 121.41585,119.56591 z"/><path style="fill:#0fff13;fill-opacity:1;fill-rule:evenodd;stroke:#000;stroke-width:7.0267429;stroke-linecap:butt;stroke-linejoin:miter;stroke-miterlimit:4;stroke-opacity:1" id="path9006" d="M 160.28314,17.748224 L 110.18004,76.182975 L 145.59006,76.182975 L 145.59006,131.34237 L 174.97630,131.34237 L 174.97630,76.182975 L 210.38606,76.182975 L 160.28314,17.748224 z"/></svg>