<svg xmlns="http://www.w3.org/2000/svg" xmlns:cc="http://web.resource.org/cc/" xmlns:svg="http://www.w3.org/2000/svg" id="svg4046" width="32" height="32" contentScriptType="text/ecmascript" contentStyleType="text/css" preserveAspectRatio="xMidYMid meet" version="1.0" zoomAndPan="magnify"><metadata id="metadata4"/><g id="layer1"><g id="g15100" transform="matrix(0.860306,0,0,0.860306,-0.110763,4.218575)"><g id="g15077" transform="translate(38.58039,-4.030787)"><g style="fill:#6d6d6d;fill-opacity:1;stroke:#6e6e6e;stroke-opacity:1" id="g15015" transform="matrix(0.591953,0,0,0.591953,-23.86875,-0.181912)"><path style="fill:#6d6d6d;fill-opacity:1;fill-rule:evenodd;stroke:#6e6e6e;stroke-width:.25pt;stroke-linecap:butt;stroke-linejoin:miter;stroke-opacity:1" id="path15017" d="M -0.21480011,8.4207544 L -8.4530501,2.76646 L -8.4048431,14.334445 L -0.21480011,8.4207544 z"/><path style="fill:#6d6d6d;fill-opacity:1;fill-rule:evenodd;stroke:#6e6e6e;stroke-width:3.3182044;stroke-linecap:butt;stroke-linejoin:miter;stroke-miterlimit:4;stroke-opacity:1" id="path15019" d="M -7.8927021,8.211564 L -16.264641,8.211564"/></g><g id="g15021" transform="matrix(0.591953,0,0,0.591953,-13.72535,-0.181912)" style="fill:#6d6d6d;fill-opacity:1;stroke:#6e6e6e;stroke-opacity:1"><path id="path15023" d="M -0.21480011,8.4207544 L -8.4530501,2.76646 L -8.4048431,14.334445 L -0.21480011,8.4207544 z" style="fill:#6d6d6d;fill-opacity:1;fill-rule:evenodd;stroke:#6e6e6e;stroke-width:.25pt;stroke-linecap:butt;stroke-linejoin:miter;stroke-opacity:1"/><path id="path15025" d="M -7.8927021,8.211564 L -16.264641,8.211564" style="fill:#6d6d6d;fill-opacity:1;fill-rule:evenodd;stroke:#6e6e6e;stroke-width:3.3182044;stroke-linecap:butt;stroke-linejoin:miter;stroke-miterlimit:4;stroke-opacity:1"/></g><g style="fill:#6d6d6d;fill-opacity:1;stroke:#6e6e6e;stroke-opacity:1" id="g15027" transform="matrix(0.591953,0,0,0.591953,-3.829346,-0.181912)"><path style="fill:#6d6d6d;fill-opacity:1;fill-rule:evenodd;stroke:#6e6e6e;stroke-width:.25pt;stroke-linecap:butt;stroke-linejoin:miter;stroke-opacity:1" id="path15029" d="M -0.21480011,8.4207544 L -8.4530501,2.76646 L -8.4048431,14.334445 L -0.21480011,8.4207544 z"/><path style="fill:#6d6d6d;fill-opacity:1;fill-rule:evenodd;stroke:#6e6e6e;stroke-width:3.3182044;stroke-linecap:butt;stroke-linejoin:miter;stroke-miterlimit:4;stroke-opacity:1" id="path15031" d="M -7.8927021,8.211564 L -16.264641,8.211564"/></g><g style="fill:#6d6d6d;fill-opacity:1;stroke:#6e6e6e;stroke-opacity:1" id="g15033" transform="matrix(0.591953,0,0,0.591953,-23.80232,7.303836)"><path style="fill:#6d6d6d;fill-opacity:1;fill-rule:evenodd;stroke:#6e6e6e;stroke-width:.25pt;stroke-linecap:butt;stroke-linejoin:miter;stroke-opacity:1" id="path15035" d="M -0.21480011,8.4207544 L -8.4530501,2.76646 L -8.4048431,14.334445 L -0.21480011,8.4207544 z"/><path style="fill:#6d6d6d;fill-opacity:1;fill-rule:evenodd;stroke:#6e6e6e;stroke-width:3.3182044;stroke-linecap:butt;stroke-linejoin:miter;stroke-miterlimit:4;stroke-opacity:1" id="path15037" d="M -7.8927021,8.211564 L -16.264641,8.211564"/></g><g id="g15039" transform="matrix(0.591953,0,0,0.591953,-13.86931,7.303836)" style="fill:#6d6d6d;fill-opacity:1;stroke:#6e6e6e;stroke-opacity:1"><path id="path15041" d="M -0.21480011,8.4207544 L -8.4530501,2.76646 L -8.4048431,14.334445 L -0.21480011,8.4207544 z" style="fill:#6d6d6d;fill-opacity:1;fill-rule:evenodd;stroke:#6e6e6e;stroke-width:.25pt;stroke-linecap:butt;stroke-linejoin:miter;stroke-opacity:1"/><path id="path15043" d="M -7.8927021,8.211564 L -16.264641,8.211564" style="fill:#6d6d6d;fill-opacity:1;fill-rule:evenodd;stroke:#6e6e6e;stroke-width:3.3182044;stroke-linecap:butt;stroke-linejoin:miter;stroke-miterlimit:4;stroke-opacity:1"/></g><g style="fill:#6d6d6d;fill-opacity:1;stroke:#6e6e6e;stroke-opacity:1" id="g15045" transform="matrix(0.591953,0,0,0.591953,-4.080246,7.303836)"><path style="fill:#6d6d6d;fill-opacity:1;fill-rule:evenodd;stroke:#6e6e6e;stroke-width:.25pt;stroke-linecap:butt;stroke-linejoin:miter;stroke-opacity:1" id="path15047" d="M -0.21480011,8.4207544 L -8.4530501,2.76646 L -8.4048431,14.334445 L -0.21480011,8.4207544 z"/><path style="fill:#6d6d6d;fill-opacity:1;fill-rule:evenodd;stroke:#6e6e6e;stroke-width:3.3182044;stroke-linecap:butt;stroke-linejoin:miter;stroke-miterlimit:4;stroke-opacity:1" id="path15049" d="M -7.8927021,8.211564 L -16.264641,8.211564"/></g><g style="fill:#6d6d6d;fill-opacity:1;stroke:#6e6e6e;stroke-opacity:1" id="g15071" transform="matrix(0.591953,0,0,0.591953,-13.72535,-0.181912)"><path style="fill:#6d6d6d;fill-opacity:1;fill-rule:evenodd;stroke:#6e6e6e;stroke-width:.25pt;stroke-linecap:butt;stroke-linejoin:miter;stroke-opacity:1" id="path15073" d="M -0.21480011,8.4207544 L -8.4530501,2.76646 L -8.4048431,14.334445 L -0.21480011,8.4207544 z"/><path style="fill:#6d6d6d;fill-opacity:1;fill-rule:evenodd;stroke:#6e6e6e;stroke-width:3.3182044;stroke-linecap:butt;stroke-linejoin:miter;stroke-miterlimit:4;stroke-opacity:1" id="path15075" d="M -7.8927021,8.211564 L -16.264641,8.211564"/></g></g><g id="g15051"><g id="g14975" transform="matrix(0.591953,0,0,0.591953,9.81712,-0.181912)" style="fill:#ca0000;fill-opacity:1;stroke:#ca0000;stroke-opacity:1"><path id="path5708" d="M -0.21480011,8.4207544 L -8.4530501,2.76646 L -8.4048431,14.334445 L -0.21480011,8.4207544 z" style="fill:#ca0000;fill-opacity:1;fill-rule:evenodd;stroke:#ca0000;stroke-width:.25pt;stroke-linecap:butt;stroke-linejoin:miter;stroke-opacity:1"/><path id="path5709" d="M -7.8927021,8.211564 L -16.264641,8.211564" style="fill:#ca0000;fill-opacity:1;fill-rule:evenodd;stroke:#ca0000;stroke-width:3.3182044;stroke-linecap:butt;stroke-linejoin:miter;stroke-miterlimit:4;stroke-opacity:1"/></g><g style="fill:#000;fill-opacity:1;stroke:#000;stroke-opacity:1" id="g14979" transform="matrix(0.591953,0,0,0.591953,19.96052,-0.181912)"><path style="fill:#000;fill-opacity:1;fill-rule:evenodd;stroke:#000;stroke-width:.25pt;stroke-linecap:butt;stroke-linejoin:miter;stroke-opacity:1" id="path14981" d="M -0.21480011,8.4207544 L -8.4530501,2.76646 L -8.4048431,14.334445 L -0.21480011,8.4207544 z"/><path style="fill:#000;fill-opacity:1;fill-rule:evenodd;stroke:#000;stroke-width:3.3182044;stroke-linecap:butt;stroke-linejoin:miter;stroke-miterlimit:4;stroke-opacity:1" id="path14983" d="M -7.8927021,8.211564 L -16.264641,8.211564"/></g><g id="g14985" transform="matrix(0.591953,0,0,0.591953,29.85652,-0.181912)" style="fill:#000;fill-opacity:1;stroke:#000;stroke-opacity:1"><path id="path14987" d="M -0.21480011,8.4207544 L -8.4530501,2.76646 L -8.4048431,14.334445 L -0.21480011,8.4207544 z" style="fill:#000;fill-opacity:1;fill-rule:evenodd;stroke:#000;stroke-width:.25pt;stroke-linecap:butt;stroke-linejoin:miter;stroke-opacity:1"/><path id="path14989" d="M -7.8927021,8.211564 L -16.264641,8.211564" style="fill:#000;fill-opacity:1;fill-rule:evenodd;stroke:#000;stroke-width:3.3182044;stroke-linecap:butt;stroke-linejoin:miter;stroke-miterlimit:4;stroke-opacity:1"/></g><g id="g14997" transform="matrix(0.591953,0,0,0.591953,9.883551,7.303836)" style="fill:#000;fill-opacity:1;stroke:#000;stroke-opacity:1"><path id="path14999" d="M -0.21480011,8.4207544 L -8.4530501,2.76646 L -8.4048431,14.334445 L -0.21480011,8.4207544 z" style="fill:#000;fill-opacity:1;fill-rule:evenodd;stroke:#000;stroke-width:.25pt;stroke-linecap:butt;stroke-linejoin:miter;stroke-opacity:1"/><path id="path15001" d="M -7.8927021,8.211564 L -16.264641,8.211564" style="fill:#000;fill-opacity:1;fill-rule:evenodd;stroke:#000;stroke-width:3.3182044;stroke-linecap:butt;stroke-linejoin:miter;stroke-miterlimit:4;stroke-opacity:1"/></g><g style="fill:#000;fill-opacity:1;stroke:#000;stroke-opacity:1" id="g15003" transform="matrix(0.591953,0,0,0.591953,19.81656,7.303836)"><path style="fill:#000;fill-opacity:1;fill-rule:evenodd;stroke:#000;stroke-width:.25pt;stroke-linecap:butt;stroke-linejoin:miter;stroke-opacity:1" id="path15005" d="M -0.21480011,8.4207544 L -8.4530501,2.76646 L -8.4048431,14.334445 L -0.21480011,8.4207544 z"/><path style="fill:#000;fill-opacity:1;fill-rule:evenodd;stroke:#000;stroke-width:3.3182044;stroke-linecap:butt;stroke-linejoin:miter;stroke-miterlimit:4;stroke-opacity:1" id="path15007" d="M -7.8927021,8.211564 L -16.264641,8.211564"/></g><g id="g15009" transform="matrix(0.591953,0,0,0.591953,29.60562,7.303836)" style="fill:#000;fill-opacity:1;stroke:#000;stroke-opacity:1"><path id="path15011" d="M -0.21480011,8.4207544 L -8.4530501,2.76646 L -8.4048431,14.334445 L -0.21480011,8.4207544 z" style="fill:#000;fill-opacity:1;fill-rule:evenodd;stroke:#000;stroke-width:.25pt;stroke-linecap:butt;stroke-linejoin:miter;stroke-opacity:1"/><path id="path15013" d="M -7.8927021,8.211564 L -16.264641,8.211564" style="fill:#000;fill-opacity:1;fill-rule:evenodd;stroke:#000;stroke-width:3.3182044;stroke-linecap:butt;stroke-linejoin:miter;stroke-miterlimit:4;stroke-opacity:1"/></g></g></g></g></svg>