<svg xmlns="http://www.w3.org/2000/svg" xmlns:cc="http://web.resource.org/cc/" xmlns:svg="http://www.w3.org/2000/svg" id="svg4046" width="32" height="32" contentScriptType="text/ecmascript" contentStyleType="text/css" preserveAspectRatio="xMidYMid meet" version="1.0" zoomAndPan="magnify"><metadata id="metadata4"/><g id="layer1"><g id="g14975" transform="matrix(0.591953,0,0,0.591953,9.81712,-0.181912)" style="fill:#ca0000;fill-opacity:1;stroke:#ca0000;stroke-opacity:1"><path id="path5708" d="M -0.21480011,8.4207544 L -8.4530501,2.76646 L -8.4048431,14.334445 L -0.21480011,8.4207544 z" style="fill:#ca0000;fill-opacity:1;fill-rule:evenodd;stroke:#ca0000;stroke-width:.25pt;stroke-linecap:butt;stroke-linejoin:miter;stroke-opacity:1"/><path id="path5709" d="M -7.8927021,8.211564 L -16.264641,8.211564" style="fill:#ca0000;fill-opacity:1;fill-rule:evenodd;stroke:#ca0000;stroke-width:3.3182044;stroke-linecap:butt;stroke-linejoin:miter;stroke-miterlimit:4;stroke-opacity:1"/></g><g style="fill:#000;fill-opacity:1;stroke:#000;stroke-opacity:1" id="g14979" transform="matrix(0.591953,0,0,0.591953,19.96052,-0.181912)"><path style="fill:#000;fill-opacity:1;fill-rule:evenodd;stroke:#000;stroke-width:.25pt;stroke-linecap:butt;stroke-linejoin:miter;stroke-opacity:1" id="path14981" d="M -0.21480011,8.4207544 L -8.4530501,2.76646 L -8.4048431,14.334445 L -0.21480011,8.4207544 z"/><path style="fill:#000;fill-opacity:1;fill-rule:evenodd;stroke:#000;stroke-width:3.3182044;stroke-linecap:butt;stroke-linejoin:miter;stroke-miterlimit:4;stroke-opacity:1" id="path14983" d="M -7.8927021,8.211564 L -16.264641,8.211564"/></g><g id="g14985" transform="matrix(0.591953,0,0,0.591953,29.85652,-0.181912)" style="fill:#000;fill-opacity:1;stroke:#000;stroke-opacity:1"><path id="path14987" d="M -0.21480011,8.4207544 L -8.4530501,2.76646 L -8.4048431,14.334445 L -0.21480011,8.4207544 z" style="fill:#000;fill-opacity:1;fill-rule:evenodd;stroke:#000;stroke-width:.25pt;stroke-linecap:butt;stroke-linejoin:miter;stroke-opacity:1"/><path id="path14989" d="M -7.8927021,8.211564 L -16.264641,8.211564" style="fill:#000;fill-opacity:1;fill-rule:evenodd;stroke:#000;stroke-width:3.3182044;stroke-linecap:butt;stroke-linejoin:miter;stroke-miterlimit:4;stroke-opacity:1"/></g><g id="g14997" transform="matrix(0.591953,0,0,0.591953,9.883551,7.303836)" style="fill:#000;fill-opacity:1;stroke:#000;stroke-opacity:1"><path id="path14999" d="M -0.21480011,8.4207544 L -8.4530501,2.76646 L -8.4048431,14.334445 L -0.21480011,8.4207544 z" style="fill:#000;fill-opacity:1;fill-rule:evenodd;stroke:#000;stroke-width:.25pt;stroke-linecap:butt;stroke-linejoin:miter;stroke-opacity:1"/><path id="path15001" d="M -7.8927021,8.211564 L -16.264641,8.211564" style="fill:#000;fill-opacity:1;fill-rule:evenodd;stroke:#000;stroke-width:3.3182044;stroke-linecap:butt;stroke-linejoin:miter;stroke-miterlimit:4;stroke-opacity:1"/></g><g style="fill:#000;fill-opacity:1;stroke:#000;stroke-opacity:1" id="g15003" transform="matrix(0.591953,0,0,0.591953,19.81656,7.303836)"><path style="fill:#000;fill-opacity:1;fill-rule:evenodd;stroke:#000;stroke-width:.25pt;stroke-linecap:butt;stroke-linejoin:miter;stroke-opacity:1" id="path15005" d="M -0.21480011,8.4207544 L -8.4530501,2.76646 L -8.4048431,14.334445 L -0.21480011,8.4207544 z"/><path style="fill:#000;fill-opacity:1;fill-rule:evenodd;stroke:#000;stroke-width:3.3182044;stroke-linecap:butt;stroke-linejoin:miter;stroke-miterlimit:4;stroke-opacity:1" id="path15007" d="M -7.8927021,8.211564 L -16.264641,8.211564"/></g><g id="g15009" transform="matrix(0.591953,0,0,0.591953,29.60562,7.303836)" style="fill:#000;fill-opacity:1;stroke:#000;stroke-opacity:1"><path id="path15011" d="M -0.21480011,8.4207544 L -8.4530501,2.76646 L -8.4048431,14.334445 L -0.21480011,8.4207544 z" style="fill:#000;fill-opacity:1;fill-rule:evenodd;stroke:#000;stroke-width:.25pt;stroke-linecap:butt;stroke-linejoin:miter;stroke-opacity:1"/><path id="path15013" d="M -7.8927021,8.211564 L -16.264641,8.211564" style="fill:#000;fill-opacity:1;fill-rule:evenodd;stroke:#000;stroke-width:3.3182044;stroke-linecap:butt;stroke-linejoin:miter;stroke-miterlimit:4;stroke-opacity:1"/></g></g></svg>