<svg id="svg4668" width="32" height="32" contentScriptType="text/ecmascript" contentStyleType="text/css" preserveAspectRatio="xMidYMid meet" version="1.0" zoomAndPan="magnify"><defs id="defs3"><linearGradient id="linearGradient4664"><stop style="stop-color:#565248;stop-opacity:1" id="stop4665" offset="0"/><stop style="stop-color:#565248;stop-opacity:0" id="stop4666" offset="1"/></linearGradient><radialGradient id="radialGradient4727" cx="-39.064" cy="18.285" r="9.203" fx="-39.223" fy="18.285" gradientTransform="scale(1.252739,0.798251)" gradientUnits="userSpaceOnUse"><stop style="stop-color:#565248;stop-opacity:1" id="stop4665radialGradient4727" offset="0"/><stop style="stop-color:#565248;stop-opacity:0" id="stop4666radialGradient4727" offset="1"/></radialGradient></defs><metadata id="metadata4"><rdf:RDF xmlns:rdf="http://www.w3.org/1999/02/22-rdf-syntax-ns#" id="RDF5"><cc:Work xmlns:cc="http://web.resource.org/cc/" id="Work6"><dc:format xmlns:dc="http://purl.org/dc/elements/1.1/" id="format7">image/svg+xml</dc:format><dc:type xmlns:dc="http://purl.org/dc/elements/1.1/" id="type9" rdf:resource="http://purl.org/dc/dcmitype/StillImage"/></cc:Work></rdf:RDF></metadata><g id="layer1"><g id="g4864"><path style="fill:#eae8e3;fill-opacity:1;fill-rule:evenodd;stroke:#bab5ab;stroke-width:1.0109973;stroke-linecap:square;stroke-linejoin:round;stroke-miterlimit:4;stroke-dasharray:1.0109973 3.032992;stroke-dashoffset:0;stroke-opacity:1" id="path4618" d="M -534.69644,-189.73410 C -546.53803,-176.41643 -551.62457,-187.67605 -556.89627,-194.14266 C -562.30104,-200.77250 -564.80155,-206.52948 -562.22018,-208.28401 C -559.63882,-210.03855 -549.87486,-207.55800 -542.81742,-205.70801 C -535.80960,-203.87103 -522.75936,-203.15916 -534.69644,-189.73410 z" transform="translate(566.3500,222.2649)"/><path style="fill:#fff;fill-opacity:1;fill-rule:nonzero;stroke:#565248;stroke-width:.75;stroke-linecap:square;stroke-linejoin:bevel;stroke-miterlimit:4;stroke-dashoffset:0;stroke-opacity:1" id="path4619" d="M 8.4569097 4.5610700 A 4.0238523 4.0238523 0 1 1 0.40920496,4.5610700 A 4.0238523 4.0238523 0 1 1 8.4569097 4.5610700 z" transform="translate(0.632100,0.227900)"/><path style="fill:#bab5ab;fill-opacity:1;fill-rule:evenodd;stroke:#565248;stroke-width:1;stroke-linecap:butt;stroke-linejoin:round;stroke-miterlimit:4;stroke-opacity:1" id="path4620" d="M 21.422649,11.845971 L 12.884779,11.830641 L 8.8639794,15.302141 L 17.416479,15.473151 L 21.422649,11.845971 z"/><path style="fill:#bab5ab;fill-opacity:1;fill-rule:evenodd;stroke:none;stroke-width:.25pt;stroke-linecap:butt;stroke-linejoin:miter;stroke-opacity:1" id="path4621" d="M 9.1012294,22.009063 L 14.148095,29.503130 L 25.545329,27.823519 L 30.305681,19.850038 L 21.513790,17.780608 L 17.421737,21.872661 L 9.1012294,22.009063 z"/><path style="fill:#807d74;fill-opacity:1;fill-rule:evenodd;stroke:#565248;stroke-width:1;stroke-linecap:butt;stroke-linejoin:round;stroke-miterlimit:4;stroke-opacity:1" id="path4622" d="M 8.8088494,15.405391 L 8.8088494,21.800051 L 17.484099,21.800051 L 17.484099,15.405391 L 8.8088494,15.405391 z"/><path style="fill:#807d74;fill-opacity:1;fill-rule:evenodd;stroke:#565248;stroke-width:1;stroke-linecap:butt;stroke-linejoin:round;stroke-miterlimit:4;stroke-opacity:1" id="path4623" d="M 21.196689,17.824371 L 21.407739,11.784331 L 17.504859,15.269681 L 17.407019,21.727721 L 21.196689,17.824371 z"/></g></g></svg>