<svg id="svg4668" width="32" height="32" contentScriptType="text/ecmascript" contentStyleType="text/css" preserveAspectRatio="xMidYMid meet" version="1.0" zoomAndPan="magnify"><defs id="defs3"><linearGradient id="linearGradient1745"><stop style="stop-color:#f0f0f0;stop-opacity:1" id="stop1746" offset="0"/><stop style="stop-color:#e0e0e0;stop-opacity:1" id="stop1747" offset="1"/></linearGradient><linearGradient id="linearGradient4555" x1="8.96" x2="8.96" y1="11.382" y2="14.074" gradientTransform="matrix(-0.293923,1.205763,-1.844342,-0.449586,43.91370,1.523804)" gradientUnits="userSpaceOnUse" spreadMethod="reflect"><stop style="stop-color:#f0f0f0;stop-opacity:1" id="stop1746linearGradient4555" offset="0"/><stop style="stop-color:#e0e0e0;stop-opacity:1" id="stop1747linearGradient4555" offset="1"/></linearGradient><linearGradient id="linearGradient4509"><stop style="stop-color:#fff;stop-opacity:1" id="stop4510" offset="0"/><stop style="stop-color:#fff;stop-opacity:0" id="stop4511" offset="1"/></linearGradient><radialGradient id="radialGradient4554" cx="-50.73" cy="8.396" r="24.327" fx="-57.753" fy="1.627" gradientTransform="scale(0.933138,1.071653)" gradientUnits="userSpaceOnUse"><stop style="stop-color:#fff;stop-opacity:1" id="stop4510radialGradient4554" offset="0"/><stop style="stop-color:#fff;stop-opacity:0" id="stop4511radialGradient4554" offset="1"/></radialGradient><linearGradient id="linearGradient4664"><stop style="stop-color:#565248;stop-opacity:1" id="stop4665" offset="0"/><stop style="stop-color:#565248;stop-opacity:0" id="stop4666" offset="1"/></linearGradient><radialGradient id="radialGradient4727" cx="-39.064" cy="18.285" r="9.203" fx="-39.223" fy="18.285" gradientTransform="scale(1.252739,0.798251)" gradientUnits="userSpaceOnUse"><stop style="stop-color:#565248;stop-opacity:1" id="stop4665radialGradient4727" offset="0"/><stop style="stop-color:#565248;stop-opacity:0" id="stop4666radialGradient4727" offset="1"/></radialGradient></defs><metadata id="metadata4"><rdf:RDF xmlns:rdf="http://www.w3.org/1999/02/22-rdf-syntax-ns#" id="RDF5"><cc:Work xmlns:cc="http://web.resource.org/cc/" id="Work6"><dc:format xmlns:dc="http://purl.org/dc/elements/1.1/" id="format7">image/svg+xml</dc:format><dc:type xmlns:dc="http://purl.org/dc/elements/1.1/" id="type9" rdf:resource="http://purl.org/dc/dcmitype/StillImage"/></cc:Work></rdf:RDF></metadata><g id="layer1"><path style="fill:url(#radialGradient4554);fill-opacity:1;fill-rule:evenodd;stroke:#000;stroke-width:1.0109973;stroke-linecap:square;stroke-linejoin:round;stroke-miterlimit:4;stroke-dasharray:1.0109973 3.032992;stroke-dashoffset:0" id="path4478" d="M -36.104848,27.514826 C -58.526788,47.079580 -63.481921,-2.6479201 -60.900555,-4.4024561 C -58.319190,-6.1569931 -13.528435,7.8152826 -36.104848,27.514826 z" transform="translate(65.57330,10.57870)"/><path style="fill:#eae8e3;fill-opacity:1;fill-rule:evenodd;stroke:#000;stroke-width:1;stroke-linecap:butt;stroke-linejoin:round;stroke-miterlimit:4;stroke-opacity:1" id="path4479" d="M 22.901195,13.563512 L 14.363325,13.548182 L 10.342525,17.019682 L 18.895025,17.190692 L 22.901195,13.563512 z"/><path style="fill:#565248;fill-opacity:1;fill-rule:evenodd;stroke:none;stroke-width:.25pt;stroke-linecap:butt;stroke-linejoin:miter;stroke-opacity:1" id="path4481" d="M 10.579775,23.726604 L 15.626641,31.220671 L 27.023875,29.541060 L 31.784227,21.567579 L 22.992336,19.498149 L 18.900283,23.590202 L 10.579775,23.726604 z"/><path style="fill:#bab5ab;fill-opacity:1;fill-rule:evenodd;stroke:#000;stroke-width:1;stroke-linecap:butt;stroke-linejoin:round;stroke-miterlimit:4;stroke-opacity:1" id="path4482" d="M 10.287395,17.122932 L 10.287395,23.517592 L 18.962645,23.517592 L 18.962645,17.122932 L 10.287395,17.122932 z"/><path style="fill:#565248;fill-opacity:1;fill-rule:evenodd;stroke:#000;stroke-width:1;stroke-linecap:butt;stroke-linejoin:round;stroke-miterlimit:4;stroke-opacity:1" id="path4483" d="M 22.675235,19.541912 L 22.886285,13.501872 L 18.983405,16.987222 L 18.885565,23.445262 L 22.675235,19.541912 z"/><g id="g4527" transform="matrix(0.650710,-0.759326,0.759326,0.650710,420.8023,-144.9894)"><path style="fill:url(#linearGradient4555);fill-rule:evenodd;stroke:#000" id="path4517" d="M 11.421473,9.2775976 C 13.973196,9.5264216 16.610790,9.4229806 19.076643,10.024070 C 21.542497,10.625158 23.836611,11.930778 26.216595,12.884132 C 21.870895,12.647646 16.313464,11.418976 11.421473,9.2775976 z" transform="translate(-404.9908,-222.8687)"/><path style="fill:#807d74;fill-rule:evenodd;stroke:#000" id="path4520" d="M 24.315537,2.3187428 L 17.974772,0.77308607 L 16.686724,6.0570575 C 14.318711,6.6763133 13.006472,7.4212438 11.429108,9.2537966 C 13.980830,9.5026196 16.618425,9.3991806 19.084277,10.000268 C 21.550131,10.601358 23.844246,11.906977 26.224229,12.860330 C 25.705772,10.483967 24.837318,9.2733026 23.027490,7.6027142 L 24.315537,2.3187428 z" transform="translate(-404.9908,-222.8687)"/></g></g></svg>