<svg id="svg4668" width="32" height="32" contentScriptType="text/ecmascript" contentStyleType="text/css" preserveAspectRatio="xMidYMid meet" version="1.0" zoomAndPan="magnify"><defs id="defs3"><linearGradient id="linearGradient4664"><stop style="stop-color:#565248;stop-opacity:1" id="stop4665" offset="0"/><stop style="stop-color:#565248;stop-opacity:0" id="stop4666" offset="1"/></linearGradient><radialGradient id="radialGradient4727" cx="-39.064" cy="18.285" r="9.203" fx="-39.223" fy="18.285" gradientTransform="scale(1.252739,0.798251)" gradientUnits="userSpaceOnUse"><stop style="stop-color:#565248;stop-opacity:1" id="stop4665radialGradient4727" offset="0"/><stop style="stop-color:#565248;stop-opacity:0" id="stop4666radialGradient4727" offset="1"/></radialGradient><radialGradient id="radialGradient5115" cx="-39.064" cy="18.285" r="9.203" fx="-39.223" fy="18.285" gradientTransform="scale(1.252739,0.798251)" gradientUnits="userSpaceOnUse"><stop style="stop-color:#565248;stop-opacity:1" id="stop4665radialGradient5115" offset="0"/><stop style="stop-color:#565248;stop-opacity:0" id="stop4666radialGradient5115" offset="1"/></radialGradient></defs><metadata id="metadata4"><rdf:RDF xmlns:rdf="http://www.w3.org/1999/02/22-rdf-syntax-ns#" id="RDF5"><cc:Work xmlns:cc="http://web.resource.org/cc/" id="Work6"><dc:format xmlns:dc="http://purl.org/dc/elements/1.1/" id="format7">image/svg+xml</dc:format><dc:type xmlns:dc="http://purl.org/dc/elements/1.1/" id="type9" rdf:resource="http://purl.org/dc/dcmitype/StillImage"/></cc:Work></rdf:RDF></metadata><g id="layer1"><g id="g5020" transform="translate(599.1717,223.4617)"><path style="fill:#fff;fill-opacity:1;fill-rule:evenodd;stroke:#000;stroke-width:1.0109973;stroke-linecap:square;stroke-linejoin:round;stroke-miterlimit:4;stroke-dasharray:1.0109973 3.032992;stroke-dashoffset:0" id="path5011" d="M -568.87642,-191.46054 C -580.71801,-178.14287 -585.80455,-189.40249 -591.07625,-195.86910 C -596.48102,-202.49894 -598.98153,-208.25592 -596.40016,-210.01045 C -593.81880,-211.76499 -584.05484,-209.28444 -576.99740,-207.43445 C -569.98958,-205.59747 -556.93934,-204.88560 -568.87642,-191.46054 z"/><path style="fill:#fff;fill-opacity:1;fill-rule:nonzero;stroke:#000;stroke-width:.75;stroke-linecap:square;stroke-linejoin:bevel;stroke-miterlimit:4;stroke-dashoffset:0;stroke-opacity:1" id="path4640" d="M 8.4569097 4.5610700 A 4.0238523 4.0238523 0 1 1 0.40920496,4.5610700 A 4.0238523 4.0238523 0 1 1 8.4569097 4.5610700 z" transform="translate(-598.4537,-223.2131)"/><path style="fill:url(#radialGradient5115);fill-opacity:1;fill-rule:evenodd;stroke:none;stroke-width:.25pt;stroke-linecap:butt;stroke-linejoin:miter;stroke-opacity:1" id="path4641" d="M -61.020269,21.911228 L -35.671968,27.305608 L -29.675969,7.4932811 L -58.109513,5.0699691 L -61.020269,21.911228 z" transform="translate(-534.7305,-215.2607)"/><path style="fill:#eae8e3;fill-opacity:1;fill-rule:evenodd;stroke:#000;stroke-width:1;stroke-linecap:butt;stroke-linejoin:round;stroke-miterlimit:4;stroke-opacity:1" id="path4642" d="M -55.285905,11.761110 L -55.285905,18.155770 L -46.610655,18.155770 L -46.610655,11.761110 L -55.285905,11.761110 z" transform="translate(-534.7305,-215.2607)"/><path style="fill:#fff;fill-opacity:1;fill-rule:evenodd;stroke:#000;stroke-width:1;stroke-linecap:butt;stroke-linejoin:round;stroke-miterlimit:4;stroke-opacity:1" id="path4639" d="M -42.672105,8.2016903 L -51.209975,8.1863603 L -55.230775,11.657860 L -46.678275,11.828870 L -42.672105,8.2016903 z" transform="translate(-534.7305,-215.2607)"/><path style="fill:#bab5ab;fill-opacity:1;fill-rule:evenodd;stroke:#000;stroke-width:1;stroke-linecap:butt;stroke-linejoin:round;stroke-miterlimit:4;stroke-opacity:1" id="path4643" d="M -42.898065,14.180090 L -42.687015,8.1400503 L -46.589895,11.625400 L -46.687735,18.083440 L -42.898065,14.180090 z" transform="translate(-534.7305,-215.2607)"/></g></g></svg>