<svg id="svg5155" width="32" height="32" contentScriptType="text/ecmascript" contentStyleType="text/css" preserveAspectRatio="xMidYMid meet" version="1.0" zoomAndPan="magnify"><metadata id="metadata4"><rdf:RDF xmlns:rdf="http://www.w3.org/1999/02/22-rdf-syntax-ns#" id="RDF5"><cc:Work xmlns:cc="http://web.resource.org/cc/" id="Work6"><dc:format xmlns:dc="http://purl.org/dc/elements/1.1/" id="format7">image/svg+xml</dc:format><dc:type xmlns:dc="http://purl.org/dc/elements/1.1/" id="type9" rdf:resource="http://purl.org/dc/dcmitype/StillImage"/></cc:Work></rdf:RDF></metadata><g id="layer1"><g id="g5151" transform="translate(-0.875414,-5.670924e-2)"><path id="path5116" style="fill:none;fill-opacity:.75;fill-rule:evenodd;stroke:#000;stroke-width:.75;stroke-linecap:butt;stroke-linejoin:miter;stroke-miterlimit:4;stroke-opacity:1" d="M 8.2628359,19.980493 L 19.200734,20.002893 L 25.702834,26.867433 L 2.6687359,26.924943 L 8.2628359,19.980493 z M 11.059936,20.076943 L 7.7041359,26.836773 M 16.455336,19.992903 L 19.893434,26.845043 M 13.605936,26.899123 L 13.664136,19.980493 M 7.7323359,20.752103 L 19.939934,20.804463 M 5.1282359,24.031423 L 23.168634,24.102043 M 21.233734,22.052473 L 6.7437359,22.054183" transform="translate(2.507716,0.385802)"/><path id="path5117" style="fill:none;fill-opacity:.75;fill-rule:evenodd;stroke:#000;stroke-width:.75;stroke-linecap:butt;stroke-linejoin:miter;stroke-miterlimit:4;stroke-opacity:1" d="M 8.8834836,19.704847 L 8.8671629,8.7669489 L 3.8655249,2.2648490 L 3.8236221,25.298947 L 8.8834836,19.704847 z M 8.8132083,16.907747 L 3.8878644,20.263547 M 8.8744408,11.512347 L 3.8818387,8.0742490 M 3.8424349,14.361747 L 8.8834836,14.303547 M 8.3212736,20.235347 L 8.2831229,8.0277490 M 5.9318964,22.839447 L 5.8804417,4.7990488 M 7.3737982,6.7339488 L 7.3725519,21.223947"/><path id="path5120" style="fill:none;fill-opacity:.75;fill-rule:evenodd;stroke:#000;stroke-width:.75;stroke-linecap:butt;stroke-linejoin:miter;stroke-miterlimit:4;stroke-opacity:1" d="M 14.205541,8.5167334 L 14.262656,18.397455 M 17.860837,18.454570 L 17.746610,8.2311623 M 10.939590,8.3529447 L 21.069666,8.3529447 L 21.069666,18.618365 L 10.939590,18.618365 L 10.939590,8.3529447 z M 11.136720,15.220885 L 21.017597,15.235945 M 21.100993,11.638276 L 10.877024,11.677825"/></g></g></svg>