<svg id="svg10039" width="32" height="32" contentScriptType="text/ecmascript" contentStyleType="text/css" preserveAspectRatio="xMidYMid meet" version="1.0" zoomAndPan="magnify"><metadata id="metadata4"><rdf:RDF xmlns:rdf="http://www.w3.org/1999/02/22-rdf-syntax-ns#" id="RDF5"><cc:Work xmlns:cc="http://web.resource.org/cc/" id="Work6"><dc:format xmlns:dc="http://purl.org/dc/elements/1.1/" id="format7">image/svg+xml</dc:format><dc:type xmlns:dc="http://purl.org/dc/elements/1.1/" id="type9" rdf:resource="http://purl.org/dc/dcmitype/StillImage"/></cc:Work></rdf:RDF></metadata><g id="layer1"><g id="g10125" transform="translate(72.95951,-140.7268)"><path style="fill:#bab5ab;stroke:#000;stroke-linecap:square;stroke-linejoin:bevel;stroke-dashoffset:0" id="path3131" d="M 44.738081,32.591033 L 57.487393,39.727613 L 57.487393,53.433392 L 45.748003,45.479248 L 44.738081,32.591033 z" transform="translate(-114.5928,115.3538)"/><path style="fill:#bab5ab;stroke:#000;stroke-width:1.2125;stroke-linecap:square;stroke-linejoin:bevel;stroke-dashoffset:0" id="path3132" d="M 57.764203,39.801420 L 69.912763,33.621586 L 68.897901,45.643866 L 57.786398,53.910593 L 57.764203,39.801420 z" transform="translate(-114.5928,115.3538)"/><path style="fill:#900;fill-opacity:1;fill-rule:evenodd;stroke:#000;stroke-width:1;stroke-linecap:butt;stroke-linejoin:round;stroke-miterlimit:4;stroke-opacity:1;display:block" id="path3133" d="M 56.479187,28.297650 L 45.928916,30.731766 L 58.550284,35.453103 L 67.461512,31.516990 L 56.479187,28.297650 z" transform="translate(-114.5928,115.3538)"/><path style="fill:#900;fill-opacity:1;fill-rule:evenodd;stroke:#000;stroke-width:1;stroke-linecap:butt;stroke-linejoin:round;stroke-miterlimit:4;stroke-opacity:1;display:block" id="path3134" d="M 46.125166,30.722029 L 44.764766,32.667936 L 57.646520,39.772537 L 58.208828,35.404799 L 46.125166,30.722029 z" transform="translate(-114.5928,115.3538)"/><path style="fill:#900;fill-opacity:1;fill-rule:evenodd;stroke:#000;stroke-width:1;stroke-linecap:butt;stroke-linejoin:round;stroke-miterlimit:4;stroke-opacity:1;display:block" id="path3140" d="M 67.423239,31.424163 L 58.329655,35.547409 L 57.742263,39.886610 L 69.656627,33.640843 L 67.423239,31.424163 z" transform="translate(-114.5928,115.3538)"/></g></g></svg>