<svg xmlns="http://www.w3.org/2000/svg" xmlns:cc="http://web.resource.org/cc/" xmlns:svg="http://www.w3.org/2000/svg" id="svg4046" width="32" height="32" contentScriptType="text/ecmascript" contentStyleType="text/css" preserveAspectRatio="xMidYMid meet" version="1.0" zoomAndPan="magnify"><metadata id="metadata4"/><g id="layer1"><path style="opacity:1;fill:none;fill-opacity:1;fill-rule:evenodd;stroke:#000;stroke-width:7.5;stroke-linecap:butt;stroke-linejoin:miter;stroke-miterlimit:4;stroke-dasharray:none;stroke-dashoffset:0;stroke-opacity:1" id="path15196" d="M 253.15108 149.89499 A 48.7672 48.7672 0 1 1 155.61668,149.89499 A 48.7672 48.7672 0 1 1 253.15108 149.89499 z" transform="matrix(0.205543,0,0,0.201005,-30.56605,-15.44155)"/><path id="path15198" d="M 253.15108 149.89499 A 48.7672 48.7672 0 1 1 155.61668,149.89499 A 48.7672 48.7672 0 1 1 253.15108 149.89499 z" style="opacity:1;fill:none;fill-opacity:1;fill-rule:evenodd;stroke:#000;stroke-width:7.5;stroke-linecap:butt;stroke-linejoin:miter;stroke-miterlimit:4;stroke-dasharray:none;stroke-dashoffset:0;stroke-opacity:1" transform="matrix(0.205543,0,0,0.201005,-23.16648,-15.44155)"/><g id="g2674" transform="translate(38.94511,1.649141)"><path id="path2560" d="M -20.212724,12.798082 L -18.445583,12.798082 L -22.960531,19.703628 L -24.572319,19.703628 L -29.087269,12.798082 L -27.320126,12.798082 L -23.776137,18.346221 L -20.212724,12.798082" style="font-size:58.64286041px;font-style:normal;font-weight:400;fill:#b70000;fill-opacity:1;stroke:none;stroke-width:1px;stroke-linecap:butt;stroke-linejoin:miter;stroke-opacity:1;font-family:Bitstream Vera Sans"/><path style="opacity:1;fill:#b70000;fill-opacity:1;fill-rule:evenodd;stroke:none;stroke-width:7.5;stroke-linecap:butt;stroke-linejoin:miter;stroke-miterlimit:4;stroke-dasharray:none;stroke-dashoffset:0;stroke-opacity:1" id="path2562" d="M 404.38306 206.68594 A 6.5135527 6.5135527 0 1 1 391.35595,206.68594 A 6.5135527 6.5135527 0 1 1 404.38306 206.68594 z" transform="matrix(0.256738,0,0,0.250821,-125.8422,-37.66419)"/></g></g></svg>