<svg xmlns="http://www.w3.org/2000/svg" xmlns:cc="http://web.resource.org/cc/" xmlns:svg="http://www.w3.org/2000/svg" id="svg4046" width="32" height="32" contentScriptType="text/ecmascript" contentStyleType="text/css" preserveAspectRatio="xMidYMid meet" version="1.0" zoomAndPan="magnify"><metadata id="metadata4"/><g id="layer1"><path style="opacity:1;fill:#b70000;fill-opacity:1;fill-rule:evenodd;stroke:none;stroke-width:7.5;stroke-linecap:butt;stroke-linejoin:miter;stroke-miterlimit:4;stroke-dasharray:none;stroke-dashoffset:0;stroke-opacity:1" id="path1342" d="M 16.98689 14.164763 A 3.0230906 3.0230906 0 1 1 10.940709,14.164763 A 3.0230906 3.0230906 0 1 1 16.98689 14.164763 z" transform="translate(1.151654,0.575827)"/><path id="path2483" d="M 16.98689 14.164763 A 3.0230906 3.0230906 0 1 1 10.940709,14.164763 A 3.0230906 3.0230906 0 1 1 16.98689 14.164763 z" transform="matrix(1.904762,0,0,1.904762,-11.48226,-12.23991)" style="opacity:1;fill:none;fill-opacity:1;fill-rule:evenodd;stroke:#000;stroke-width:.52499997;stroke-linecap:butt;stroke-linejoin:miter;stroke-miterlimit:4;stroke-dasharray:none;stroke-dashoffset:0;stroke-opacity:1"/><path style="opacity:1;fill:none;fill-opacity:1;fill-rule:evenodd;stroke:#000;stroke-width:.3238599;stroke-linecap:butt;stroke-linejoin:miter;stroke-miterlimit:4;stroke-dasharray:none;stroke-dashoffset:0;stroke-opacity:1" id="path2485" d="M 16.98689 14.164763 A 3.0230906 3.0230906 0 1 1 10.940709,14.164763 A 3.0230906 3.0230906 0 1 1 16.98689 14.164763 z" transform="matrix(3.087755,0,0,3.087755,-28.00134,-28.99673)"/><path id="path2487" d="M 16.98689 14.164763 A 3.0230906 3.0230906 0 1 1 10.940709,14.164763 A 3.0230906 3.0230906 0 1 1 16.98689 14.164763 z" transform="matrix(4.443696,0,0,4.443696,-46.93543,-48.20332)" style="opacity:1;fill:none;fill-opacity:1;fill-rule:evenodd;stroke:#000;stroke-width:.22503789;stroke-linecap:butt;stroke-linejoin:miter;stroke-miterlimit:4;stroke-dasharray:none;stroke-dashoffset:0;stroke-opacity:1"/></g></svg>