<svg xmlns="http://www.w3.org/2000/svg" xmlns:cc="http://web.resource.org/cc/" xmlns:svg="http://www.w3.org/2000/svg" id="svg4046" width="32" height="32" contentScriptType="text/ecmascript" contentStyleType="text/css" preserveAspectRatio="xMidYMid meet" version="1.0" zoomAndPan="magnify"><metadata id="metadata4"/><g id="layer1"><path style="opacity:1;fill:none;fill-opacity:1;fill-rule:evenodd;stroke:#000;stroke-width:7.5;stroke-linecap:butt;stroke-linejoin:miter;stroke-miterlimit:4;stroke-dasharray:none;stroke-dashoffset:0;stroke-opacity:1" id="path15196" d="M 253.15108 149.89499 A 48.7672 48.7672 0 1 1 155.61668,149.89499 A 48.7672 48.7672 0 1 1 253.15108 149.89499 z" transform="matrix(0.205543,0,0,0.201005,-30.56605,-15.44155)"/><path id="path15198" d="M 253.15108 149.89499 A 48.7672 48.7672 0 1 1 155.61668,149.89499 A 48.7672 48.7672 0 1 1 253.15108 149.89499 z" style="opacity:1;fill:none;fill-opacity:1;fill-rule:evenodd;stroke:#000;stroke-width:7.5;stroke-linecap:butt;stroke-linejoin:miter;stroke-miterlimit:4;stroke-dasharray:none;stroke-dashoffset:0;stroke-opacity:1" transform="matrix(0.205543,0,0,0.201005,-23.16648,-15.44155)"/><g id="g2665" transform="translate(32.10459,-15.60948)"><path id="text15252" d="M -19.901133,34.407319 L -21.320967,34.407319 L -17.693367,27.502847 L -16.398352,27.502847 L -12.77075,34.407319 L -14.190587,34.407319 L -17.038057,28.860044 L -19.901133,34.407319" style="font-size:58.64286041px;font-style:normal;font-weight:400;fill:#b70000;fill-opacity:1;stroke:none;stroke-width:1px;stroke-linecap:butt;stroke-linejoin:miter;stroke-opacity:1;font-family:Bitstream Vera Sans"/><path id="path1685" d="M 404.38306 206.68594 A 6.5135527 6.5135527 0 1 1 391.35595,206.68594 A 6.5135527 6.5135527 0 1 1 404.38306 206.68594 z" transform="matrix(0.256704,0,0,0.250782,-119.1083,-26.71328)" style="opacity:1;fill:#b70000;fill-opacity:1;fill-rule:evenodd;stroke:none;stroke-width:7.5;stroke-linecap:butt;stroke-linejoin:miter;stroke-miterlimit:4;stroke-dasharray:none;stroke-dashoffset:0;stroke-opacity:1"/></g></g></svg>