<svg id="svg4098" width="32" height="32" contentScriptType="text/ecmascript" contentStyleType="text/css" preserveAspectRatio="xMidYMid meet" version="1.0" zoomAndPan="magnify"><metadata id="metadata4"><rdf:RDF xmlns:rdf="http://www.w3.org/1999/02/22-rdf-syntax-ns#" id="RDF5"><cc:Work xmlns:cc="http://web.resource.org/cc/" id="Work6"><dc:format xmlns:dc="http://purl.org/dc/elements/1.1/" id="format7">image/svg+xml</dc:format><dc:type xmlns:dc="http://purl.org/dc/elements/1.1/" id="type9" rdf:resource="http://purl.org/dc/dcmitype/StillImage"/></cc:Work></rdf:RDF></metadata><g id="layer1"><g id="g4396" transform="translate(-0.905508,-0.155802)"><path style="fill:#bab5ab;fill-opacity:1;fill-rule:nonzero;stroke:#000;stroke-width:1;stroke-linecap:square;stroke-linejoin:bevel;stroke-miterlimit:4;stroke-dashoffset:0;stroke-opacity:1" id="path4174" d="M 23.446670 5.0481038 A 9.2335644 2.5899436 0 1 1 4.9795408,5.0481038 A 9.2335644 2.5899436 0 1 1 23.446670 5.0481038 z" transform="matrix(0.776756,0.000000,0.000000,1.000000,5.104339,-0.279731)"/><path style="fill:#bab5ab;fill-opacity:1;fill-rule:nonzero;stroke:#000;stroke-width:.88133764;stroke-linecap:square;stroke-linejoin:bevel;stroke-miterlimit:4;stroke-dashoffset:0;stroke-opacity:1" id="path4175" d="M 8.9484089,4.8797494 C 11.172789,7.6591994 20.953509,7.7855394 23.276019,4.8797494 L 16.235124,16.649606 L 23.276019,26.104649 C 20.855379,29.010439 11.270919,29.389459 8.9484089,26.104649 L 16.085754,16.649606 L 8.9484089,4.8797494 z"/><path style="fill:none;fill-opacity:.75;fill-rule:evenodd;stroke:#000;stroke-width:.88133764;stroke-linecap:butt;stroke-linejoin:miter;stroke-miterlimit:4;stroke-opacity:1" id="path4176" d="M 15.856279,28.308439 L 16.047109,7.0913794"/><path style="fill:#000;fill-opacity:1;fill-rule:nonzero;stroke:#807d74;stroke-width:0;stroke-linecap:square;stroke-linejoin:bevel;stroke-miterlimit:4;stroke-dashoffset:0;stroke-opacity:1" id="path4177" d="M -93.188063 -87.276924 A 3.4174511 3.4174511 0 1 1 -100.02297,-87.276924 A 3.4174511 3.4174511 0 1 1 -93.188063 -87.276924 z" transform="matrix(0.496913,0.000000,0.000000,0.496913,57.12123,47.97360)"/><path style="fill:#000;fill-opacity:1;fill-rule:nonzero;stroke:#807d74;stroke-width:0;stroke-linecap:square;stroke-linejoin:bevel;stroke-miterlimit:4;stroke-dashoffset:0;stroke-opacity:1" id="path4180" d="M -93.188063 -87.276924 A 3.4174511 3.4174511 0 1 1 -100.02297,-87.276924 A 3.4174511 3.4174511 0 1 1 -93.188063 -87.276924 z" transform="matrix(0.496913,0.000000,0.000000,0.496913,71.35304,48.34570)"/><path style="fill:#000;fill-opacity:1;fill-rule:nonzero;stroke:#807d74;stroke-width:0;stroke-linecap:square;stroke-linejoin:bevel;stroke-miterlimit:4;stroke-dashoffset:0;stroke-opacity:1" id="path4210" d="M -93.188063 -87.276924 A 3.4174511 3.4174511 0 1 1 -100.02297,-87.276924 A 3.4174511 3.4174511 0 1 1 -93.188063 -87.276924 z" transform="matrix(0.496913,0.000000,0.000000,0.496913,57.11953,69.41610)"/><path style="fill:#000;fill-opacity:1;fill-rule:nonzero;stroke:#807d74;stroke-width:0;stroke-linecap:square;stroke-linejoin:bevel;stroke-miterlimit:4;stroke-dashoffset:0;stroke-opacity:1" id="path4211" d="M -93.188063 -87.276924 A 3.4174511 3.4174511 0 1 1 -100.02297,-87.276924 A 3.4174511 3.4174511 0 1 1 -93.188063 -87.276924 z" transform="matrix(0.496913,0.000000,0.000000,0.496913,71.35124,69.78820)"/><path style="fill:#000;fill-opacity:1;fill-rule:nonzero;stroke:#807d74;stroke-width:0;stroke-linecap:square;stroke-linejoin:bevel;stroke-miterlimit:4;stroke-dashoffset:0;stroke-opacity:1" id="path4212" d="M -93.188063 -87.276924 A 3.4174511 3.4174511 0 1 1 -100.02297,-87.276924 A 3.4174511 3.4174511 0 1 1 -93.188063 -87.276924 z" transform="matrix(0.496913,0.000000,0.000000,0.496913,64.01353,50.34910)"/><path style="fill:#000;fill-opacity:1;fill-rule:nonzero;stroke:#807d74;stroke-width:0;stroke-linecap:square;stroke-linejoin:bevel;stroke-miterlimit:4;stroke-dashoffset:0;stroke-opacity:1" id="path4214" d="M -93.188063 -87.276924 A 3.4174511 3.4174511 0 1 1 -100.02297,-87.276924 A 3.4174511 3.4174511 0 1 1 -93.188063 -87.276924 z" transform="matrix(0.496913,0.000000,0.000000,0.496913,64.10793,60.30266)"/><path style="fill:#000;fill-opacity:1;fill-rule:nonzero;stroke:#807d74;stroke-width:0;stroke-linecap:square;stroke-linejoin:bevel;stroke-miterlimit:4;stroke-dashoffset:0;stroke-opacity:1" id="path4215" d="M -93.188063 -87.276924 A 3.4174511 3.4174511 0 1 1 -100.02297,-87.276924 A 3.4174511 3.4174511 0 1 1 -93.188063 -87.276924 z" transform="matrix(0.496913,0.000000,0.000000,0.496913,64.01173,71.79160)"/><path style="fill:#000;fill-opacity:1;fill-rule:nonzero;stroke:#807d74;stroke-width:0;stroke-linecap:square;stroke-linejoin:bevel;stroke-miterlimit:4;stroke-dashoffset:0;stroke-opacity:1" id="path4216" d="M -93.188063 -87.276924 A 3.4174511 3.4174511 0 1 1 -100.02297,-87.276924 A 3.4174511 3.4174511 0 1 1 -93.188063 -87.276924 z" transform="matrix(0.496913,0.000000,0.000000,0.496913,64.25183,45.48370)"/><path style="fill:none;fill-opacity:1;fill-rule:nonzero;stroke:#000;stroke-width:1;stroke-linecap:square;stroke-linejoin:bevel;stroke-miterlimit:4;stroke-dasharray:1 3;stroke-dashoffset:0;stroke-opacity:1" id="path4367" d="M 9.2044076,26.083253 L 9.3408094,4.5855500 M 23.532017,4.8583535 L 23.532017,26.083253"/><g id="g4368" transform="translate(0.354388,1.621459)"><path style="fill:#900;fill-opacity:1;fill-rule:evenodd;stroke:none;stroke-width:.25pt;stroke-linecap:butt;stroke-linejoin:miter;stroke-opacity:1" id="path4369" d="M 18.195367,15.210356 L 26.433617,12.000747 L 26.385410,18.567209 L 18.195367,15.210356 z"/><path style="fill:none;fill-opacity:.75;fill-rule:evenodd;stroke:#900;stroke-width:2.5;stroke-linecap:butt;stroke-linejoin:miter;stroke-miterlimit:4;stroke-opacity:1" id="path4370" d="M 25.873269,15.091611 L 30.201511,15.091611"/></g><g id="g4371" transform="matrix(-1.000000,0.000000,0.000000,1.000000,31.73997,1.638001)"><path style="fill:#900;fill-opacity:1;fill-rule:evenodd;stroke:none;stroke-width:.25pt;stroke-linecap:butt;stroke-linejoin:miter;stroke-opacity:1" id="path4372" d="M 18.195367,15.210356 L 26.433617,12.000747 L 26.385410,18.567209 L 18.195367,15.210356 z"/><path style="fill:none;fill-opacity:.75;fill-rule:evenodd;stroke:#900;stroke-width:2.5;stroke-linecap:butt;stroke-linejoin:miter;stroke-miterlimit:4;stroke-opacity:1" id="path4373" d="M 25.873269,15.091611 L 30.201511,15.091611"/></g></g></g></svg>