<svg id="svg8827" width="32" height="32" contentScriptType="text/ecmascript" contentStyleType="text/css" preserveAspectRatio="xMidYMid meet" version="1.0" zoomAndPan="magnify"><metadata id="metadata4"><rdf:RDF xmlns:rdf="http://www.w3.org/1999/02/22-rdf-syntax-ns#" id="RDF5"><cc:Work xmlns:cc="http://web.resource.org/cc/" id="Work6"><dc:format xmlns:dc="http://purl.org/dc/elements/1.1/" id="format7">image/svg+xml</dc:format><dc:type xmlns:dc="http://purl.org/dc/elements/1.1/" id="type9" rdf:resource="http://purl.org/dc/dcmitype/StillImage"/></cc:Work></rdf:RDF></metadata><g id="layer1"><g id="g8977" transform="translate(-0.220685,0.166019)"><path style="font-size:180;font-style:normal;font-variant:normal;font-weight:700;font-stretch:normal;fill:#000;fill-opacity:1;stroke:#000;stroke-width:.62629706;stroke-linecap:butt;stroke-linejoin:miter;stroke-miterlimit:4;stroke-opacity:1;display:block;font-family:Bitstream Vera Sans;text-anchor:start;writing-mode:lr" id="path8992" d="M 23.647757,11.812033 L 25.799660,13.983095 L 25.822070,16.033725 L 23.560042,18.226314 L 24.984638,19.696028 L 29.717618,15.108340 L 25.129930,10.375361 L 23.647757,11.812033 z"/><path id="path8993" style="fill:none;fill-opacity:.75;fill-rule:evenodd;stroke:#000;stroke-width:2.5;stroke-linecap:butt;stroke-linejoin:miter;stroke-miterlimit:4;stroke-opacity:1" d="M 0.92602820,4.4881574 C 3.0999729,4.4970433 5.2739177,4.5059293 7.4478624,4.5148152 C 14.845172,4.5148152 16.867063,14.880590 20.273260,14.880590 C 24.257411,14.898361 23.029214,14.916133 27.013365,14.933905 M 0.93751315,25.532670 C 3.1114579,25.523784 5.2854027,25.514898 7.4593474,25.506012 C 14.828058,25.506012 16.875897,14.947336 20.284745,14.947336 C 24.268896,14.929564 23.040699,14.911793 27.024850,14.894021"/><g id="g8973" transform="translate(0.000000,-0.409205)"><path style="font-size:180;font-style:normal;font-variant:normal;font-weight:700;font-stretch:normal;fill:#000;fill-opacity:1;stroke:#000;stroke-width:.625;stroke-linecap:butt;stroke-linejoin:miter;stroke-miterlimit:4;stroke-opacity:1;display:block;font-family:Bitstream Vera Sans;text-anchor:start;writing-mode:lr" id="path8995" d="M 2.0536766,19.386819 L 3.5010066,20.834149 L 13.341036,10.994119 L 11.893706,9.5467898 L 2.0536766,19.386819 z"/><path style="fill:none;fill-opacity:1;fill-rule:nonzero;stroke:#000;stroke-width:2.25;stroke-linecap:square;stroke-linejoin:bevel;stroke-miterlimit:4;stroke-dashoffset:0;stroke-opacity:1" id="path8970" d="M 6.2062805 7.9711142 A 2.1142275 2.1142275 0 1 1 1.9778254,7.9711142 A 2.1142275 2.1142275 0 1 1 6.2062805 7.9711142 z" transform="translate(0.409205,4.092052)"/><path style="fill:none;fill-opacity:1;fill-rule:nonzero;stroke:#000;stroke-width:2.25;stroke-linecap:square;stroke-linejoin:bevel;stroke-miterlimit:4;stroke-dashoffset:0;stroke-opacity:1" id="path8972" d="M 6.2062805 7.9711142 A 2.1142275 2.1142275 0 1 1 1.9778254,7.9711142 A 2.1142275 2.1142275 0 1 1 6.2062805 7.9711142 z" transform="translate(6.615486,10.57113)"/></g></g></g></svg>