<svg xmlns="http://www.w3.org/2000/svg" xmlns:cc="http://web.resource.org/cc/" xmlns:svg="http://www.w3.org/2000/svg" xmlns:xlink="http://www.w3.org/1999/xlink" id="svg4046" width="32" height="32" contentScriptType="text/ecmascript" contentStyleType="text/css" preserveAspectRatio="xMidYMid meet" version="1.0" zoomAndPan="magnify"><defs id="defs3"><linearGradient id="linearGradient3204"><stop id="stop3206" offset="0" style="stop-color:#5c5c5c;stop-opacity:1"/><stop id="stop3208" offset="1" style="stop-color:#bab5ab;stop-opacity:0"/></linearGradient><marker id="Arrow2Lend" orient="auto" refX="0" refY="0" style="overflow:visible"><path id="path3133" style="font-size:12;fill-rule:evenodd;stroke-width:.625;stroke-linejoin:round" d="M 8.7185878,4.0337352 L -2.2072895,0.016013256 L 8.7185884,-4.0017078 C 6.9730900,-1.6296469 6.9831476,1.6157441 8.7185878,4.0337352 z" transform="scale(1.1) rotate(180) translate(-5,0)"/></marker><linearGradient id="linearGradient12426"><stop id="stop12427" offset="0" style="stop-color:#eae8e3;stop-opacity:1"/><stop id="stop12428" offset="1" style="stop-color:#807d74;stop-opacity:1"/></linearGradient><linearGradient id="linearGradient3202" x1="2.836" x2="26.753" y1="3.152" y2="26.597" gradientUnits="userSpaceOnUse" xlink:href="#linearGradient3204"/><linearGradient id="linearGradient3216" x1="2.836" x2="26.753" y1="3.152" y2="26.597" gradientUnits="userSpaceOnUse" xlink:href="#linearGradient3204"/></defs><metadata id="metadata4"/><g id="layer1"><g id="g3210" transform="matrix(0.999185,0,0,0.999984,1.195148e-2,-8.562857e-3)"><rect id="rect2944" width="28.686" height="28.662" x=".657" y=".678" style="fill:url(#linearGradient3216);fill-opacity:1;fill-rule:evenodd;stroke:#000;stroke-width:1.33834088;stroke-linecap:round;stroke-linejoin:round;stroke-miterlimit:4;stroke-dasharray:none;stroke-dashoffset:0;stroke-opacity:1"/><g id="g3192" transform="translate(0.472669,-0.472669)"><path style="fill:none;fill-opacity:.75;fill-rule:evenodd;stroke:#f10000;stroke-width:1.875;stroke-linecap:butt;stroke-linejoin:miter;stroke-miterlimit:4;stroke-dasharray:none;stroke-opacity:1" id="path3172" d="M 9.4837205,3.054703 C 15.45894,0.7539291 22.375713,3.8248963 24.676487,9.8001153 C 26.977261,15.775334 23.906293,22.692108 17.931074,24.992881 C 11.955855,27.293655 5.0390822,24.222688 2.7383082,18.247469 C 1.3977577,14.765996 1.8142865,10.763116 3.8429012,7.6322292" transform="matrix(0.858258,0,0,0.858258,3.265679,3.216701)"/><path style="fill:#f60000;fill-opacity:1;fill-rule:evenodd;stroke:#f10000;stroke-width:1px;stroke-linecap:butt;stroke-linejoin:miter;stroke-opacity:1" id="path3190" d="M 7.2791006,8.257232 L 2.2688106,11.660448 L 7.8463032,13.929258 L 7.2791006,8.257232 z"/></g></g></g></svg>