<svg id="svg5862" width="32" height="32" contentScriptType="text/ecmascript" contentStyleType="text/css" preserveAspectRatio="xMidYMid meet" version="1.0" zoomAndPan="magnify"><metadata id="metadata4"><rdf:RDF xmlns:rdf="http://www.w3.org/1999/02/22-rdf-syntax-ns#" id="RDF5"><cc:Work xmlns:cc="http://web.resource.org/cc/" id="Work6"><dc:format xmlns:dc="http://purl.org/dc/elements/1.1/" id="format7">image/svg+xml</dc:format><dc:type xmlns:dc="http://purl.org/dc/elements/1.1/" id="type9" rdf:resource="http://purl.org/dc/dcmitype/StillImage"/></cc:Work></rdf:RDF></metadata><g id="layer1"><g id="g5855" transform="translate(0.275615,-0.100832)"><path style="fill:#000;fill-opacity:1;fill-rule:nonzero;stroke:#807d74;stroke-width:0;stroke-linecap:square;stroke-linejoin:bevel;stroke-miterlimit:4;stroke-dashoffset:0;stroke-opacity:1" id="path5838" d="M -93.188063 -87.276924 A 3.4174511 3.4174511 0 1 1 -100.02297,-87.276924 A 3.4174511 3.4174511 0 1 1 -93.188063 -87.276924 z" transform="matrix(0.496913,0.000000,0.000000,0.496913,52.30814,51.12109)"/><path style="fill:#000;fill-opacity:1;fill-rule:nonzero;stroke:#807d74;stroke-width:0;stroke-linecap:square;stroke-linejoin:bevel;stroke-miterlimit:4;stroke-dashoffset:0;stroke-opacity:1" id="path5839" d="M -93.188063 -87.276924 A 3.4174511 3.4174511 0 1 1 -100.02297,-87.276924 A 3.4174511 3.4174511 0 1 1 -93.188063 -87.276924 z" transform="matrix(0.496913,0.000000,0.000000,0.496913,73.92154,50.27331)"/><path style="fill:#000;fill-opacity:1;fill-rule:nonzero;stroke:#807d74;stroke-width:0;stroke-linecap:square;stroke-linejoin:bevel;stroke-miterlimit:4;stroke-dashoffset:0;stroke-opacity:1" id="path5840" d="M -93.188063 -87.276924 A 3.4174511 3.4174511 0 1 1 -100.02297,-87.276924 A 3.4174511 3.4174511 0 1 1 -93.188063 -87.276924 z" transform="matrix(0.496913,0.000000,0.000000,0.496913,62.45973,64.87336)"/><path style="fill:#000;fill-opacity:1;fill-rule:nonzero;stroke:#807d74;stroke-width:0;stroke-linecap:square;stroke-linejoin:bevel;stroke-miterlimit:4;stroke-dashoffset:0;stroke-opacity:1" id="path5841" d="M -93.188063 -87.276924 A 3.4174511 3.4174511 0 1 1 -100.02297,-87.276924 A 3.4174511 3.4174511 0 1 1 -93.188063 -87.276924 z" transform="matrix(0.496913,0.000000,0.000000,0.496913,55.07001,60.23812)"/><path style="fill:#000;fill-opacity:1;fill-rule:nonzero;stroke:#807d74;stroke-width:0;stroke-linecap:square;stroke-linejoin:bevel;stroke-miterlimit:4;stroke-dashoffset:0;stroke-opacity:1" id="path5842" d="M -93.188063 -87.276924 A 3.4174511 3.4174511 0 1 1 -100.02297,-87.276924 A 3.4174511 3.4174511 0 1 1 -93.188063 -87.276924 z" transform="matrix(0.496913,0.000000,0.000000,0.496913,70.62304,60.55641)"/><path id="path5837" style="fill:none;fill-opacity:1;fill-rule:nonzero;stroke:#000;stroke-width:1.25;stroke-linecap:square;stroke-linejoin:bevel;stroke-miterlimit:4;stroke-dashoffset:0;stroke-opacity:1" d="M 21.483266,4.9373033 L 26.153819,7.1197845 M 4.3002747,8.3637057 L 7.8430886,5.6193122 M 6.8504651,17.233608 L 4.1638730,8.1591031 M 6.7215027,17.399963 L 2.4174076,18.052019 M 14.375281,21.622775 L 6.6533018,17.263561 M 14.160228,21.517090 L 14.238879,28.852069 M 22.574391,17.054133 L 14.160228,21.585291 M 26.511131,17.861828 L 22.506190,17.054133 M 25.881015,7.1197845 L 22.691881,17.043418 M 5.1953552,4.2784285 L 4.1753218,8.3899228 M 19.025983,8.5108518 L 17.453731,12.177341 M 22.599188,17.039749 L 17.525565,12.261900 M 12.649297,11.954636 L 12.028050,8.3782374 M 12.528174,11.948993 L 6.6476192,17.137903 M 27.999326,3.7956044 L 26.100151,7.2431325 M 4.2037588,8.2562472 L 2.0402415,5.1979230 M 25.121653,3.2780402 L 26.014534,7.2105202"/></g></g></svg>