<svg id="svg9760" width="32" height="32" contentScriptType="text/ecmascript" contentStyleType="text/css" preserveAspectRatio="xMidYMid meet" version="1.0" zoomAndPan="magnify"><defs id="defs3"><linearGradient id="linearGradient1904"><stop style="stop-color:#b8b7b3;stop-opacity:1" id="stop1905" offset="0"/><stop style="stop-color:#807d74;stop-opacity:1" id="stop1906" offset="1"/></linearGradient><linearGradient id="linearGradient9741" x1="1.558" x2="20.319" y1="20.979" y2="20.979" gradientTransform="matrix(1.069815,0.000000,0.000000,0.934741,2.444282,-4.300117)" gradientUnits="userSpaceOnUse"><stop style="stop-color:#b8b7b3;stop-opacity:1" id="stop1905linearGradient9741" offset="0"/><stop style="stop-color:#807d74;stop-opacity:1" id="stop1906linearGradient9741" offset="1"/></linearGradient></defs><metadata id="metadata4"><rdf:RDF xmlns:rdf="http://www.w3.org/1999/02/22-rdf-syntax-ns#" id="RDF5"><cc:Work xmlns:cc="http://web.resource.org/cc/" id="Work6"><dc:format xmlns:dc="http://purl.org/dc/elements/1.1/" id="format7">image/svg+xml</dc:format><dc:type xmlns:dc="http://purl.org/dc/elements/1.1/" id="type9" rdf:resource="http://purl.org/dc/dcmitype/StillImage"/></cc:Work></rdf:RDF></metadata><g id="layer1"><g id="g10179" transform="translate(-0.198675,2.687193e-2)"><g id="g9633" transform="matrix(-0.707107,-0.707107,-0.707107,0.707107,14.49735,9.174307)"><rect style="fill:#bab5ab;fill-opacity:1;fill-rule:nonzero;stroke:#000;stroke-width:1.0000014;stroke-linecap:square;stroke-linejoin:miter;stroke-miterlimit:4;stroke-dashoffset:0;stroke-opacity:1" id="rect9634" width="4.092" height="12.549" x="-11.332" y="-6.088" transform="matrix(-0.707107,-0.707107,-0.707107,0.707107,0.000000,0.000000)"/><path style="fill:#bab5ab;fill-opacity:1;fill-rule:evenodd;stroke:#000;stroke-width:1;stroke-linecap:butt;stroke-linejoin:bevel;stroke-miterlimit:4;stroke-opacity:1" id="path9635" d="M 9.3074846,0.70312494 L 12.731482,0.58256167 L 15.215085,3.9101080 L 12.466243,3.8377700 L 9.3074846,0.70312494 z"/><path style="fill:#bab5ab;fill-opacity:1;fill-rule:evenodd;stroke:#000;stroke-width:1;stroke-linecap:butt;stroke-linejoin:bevel;stroke-miterlimit:4;stroke-opacity:1" id="path9636" d="M 12.056327,3.7654320 L 15.239197,3.7654321 L 6.6550926,12.445987 L 3.3998843,12.687114 L 12.056327,3.7654320 z"/></g><g id="g9629" transform="matrix(-0.707107,-0.707107,0.707107,-0.707107,17.37443,14.47503)"><rect style="fill:#bab5ab;fill-opacity:1;fill-rule:nonzero;stroke:#000;stroke-width:1.0000014;stroke-linecap:square;stroke-linejoin:miter;stroke-miterlimit:4;stroke-dashoffset:0;stroke-opacity:1" id="rect9575" width="4.092" height="12.549" x="-11.332" y="-6.088" transform="matrix(-0.707107,-0.707107,-0.707107,0.707107,0.000000,0.000000)"/><path style="fill:#bab5ab;fill-opacity:1;fill-rule:evenodd;stroke:#000;stroke-width:1;stroke-linecap:butt;stroke-linejoin:bevel;stroke-miterlimit:4;stroke-opacity:1" id="path9627" d="M 9.3074846,0.70312494 L 12.731482,0.58256167 L 15.215085,3.9101080 L 12.466243,3.8377700 L 9.3074846,0.70312494 z"/><path style="fill:#bab5ab;fill-opacity:1;fill-rule:evenodd;stroke:#000;stroke-width:1;stroke-linecap:butt;stroke-linejoin:bevel;stroke-miterlimit:4;stroke-opacity:1" id="path9628" d="M 12.056327,3.7654320 L 15.239197,3.7654321 L 6.6550926,12.445987 L 3.3998843,12.687114 L 12.056327,3.7654320 z"/></g><g id="g10175" transform="translate(-33.07743,6.547285)"><path id="rect10122" style="fill:#bab5ab;fill-opacity:1;fill-rule:nonzero;stroke:#000;stroke-width:1.0000024;stroke-linecap:square;stroke-linejoin:miter;stroke-miterlimit:4;stroke-dashoffset:0;stroke-opacity:1" d="M 50.396226,14.555793 L 62.889733,14.564524 L 62.889733,10.472461 L 46.248767,10.512777 L 46.255942,23.102070 L 50.348001,23.102070 L 50.396226,14.555793 z"/><path id="path10124" style="fill:#bab5ab;fill-opacity:1;fill-rule:evenodd;stroke:#000;stroke-width:1;stroke-linecap:butt;stroke-linejoin:bevel;stroke-miterlimit:4;stroke-opacity:1" d="M 63.091785,10.526161 L 60.619502,8.3948829 L 44.161302,8.7432316 L 46.156178,10.635806 L 63.091785,10.526161 z"/><path style="fill:#bab5ab;fill-opacity:1;fill-rule:evenodd;stroke:#000;stroke-width:1;stroke-linecap:butt;stroke-linejoin:bevel;stroke-miterlimit:4;stroke-opacity:1" id="path10120" d="M 12.056327,3.7654320 L 15.239197,3.7654321 L 6.6550926,12.445987 L 3.3998843,12.687114 L 12.056327,3.7654320 z" transform="matrix(-0.707107,-0.707107,-0.707107,0.707107,57.68486,16.73706)"/></g><g id="g9624" transform="matrix(-0.707107,-0.707107,0.707107,-0.707107,22.23806,41.51529)"><path style="fill:#900;fill-opacity:1;fill-rule:evenodd;stroke:none;stroke-width:.25pt;stroke-linecap:butt;stroke-linejoin:miter;stroke-opacity:1" id="path9625" d="M 18.195367,15.210356 L 26.433617,12.000747 L 26.385410,18.567209 L 18.195367,15.210356 z"/><path style="fill:none;fill-opacity:.75;fill-rule:evenodd;stroke:#900;stroke-width:2.5;stroke-linecap:butt;stroke-linejoin:miter;stroke-miterlimit:4;stroke-opacity:1" id="path9626" d="M 25.873269,15.091611 L 30.201511,15.091611"/></g></g></g></svg>