<svg id="svg5517" width="32" height="32" contentScriptType="text/ecmascript" contentStyleType="text/css" preserveAspectRatio="xMidYMid meet" version="1.0" zoomAndPan="magnify"><metadata id="metadata4"><rdf:RDF xmlns:rdf="http://www.w3.org/1999/02/22-rdf-syntax-ns#" id="RDF5"><cc:Work xmlns:cc="http://web.resource.org/cc/" id="Work6"><dc:format xmlns:dc="http://purl.org/dc/elements/1.1/" id="format7">image/svg+xml</dc:format><dc:type xmlns:dc="http://purl.org/dc/elements/1.1/" id="type9" rdf:resource="http://purl.org/dc/dcmitype/StillImage"/></cc:Work></rdf:RDF></metadata><g id="layer1"><g id="g5758" transform="translate(-0.237311,-0.442310)"><path style="fill:#bab5ab;fill-opacity:1;fill-rule:nonzero;stroke:#000;stroke-width:1;stroke-linecap:square;stroke-linejoin:bevel;stroke-miterlimit:4;stroke-dashoffset:0;stroke-opacity:1" id="path5701" d="M 21.617086,4.7225386 C 19.787916,2.4208182 19.391496,6.1247386 16.784206,4.7661286 C 14.597426,3.6266486 17.302516,0.85131823 14.863586,1.2146882 C 11.955656,1.6479282 14.980446,3.8304486 12.500216,5.4091286 C 10.419996,6.7331986 9.3756457,3.0115482 8.4708657,5.3054186 C 7.3921057,8.0403786 10.776776,6.5138186 10.903836,9.4510882 C 11.010406,11.914648 7.2609557,10.968328 8.7951157,12.898818 C 10.624276,15.200538 11.005016,11.475768 13.612306,12.834368 C 15.799086,13.973858 13.093996,16.749188 15.532926,16.385808 C 18.440856,15.952568 15.431756,13.790898 17.911986,12.212228 C 19.992206,10.888158 21.036556,14.609808 21.941336,12.315938 C 23.020096,9.5809782 19.635426,11.107538 19.508366,8.1702582 C 19.401796,5.7067086 23.151246,6.6530286 21.617086,4.7225386 z M 17.455716,7.1346486 C 18.417916,8.4136782 18.161346,10.228578 16.882316,11.190778 C 15.603296,12.152968 13.788386,11.896408 12.826196,10.617378 C 11.863996,9.3383482 12.120566,7.5234486 13.399596,6.5612486 C 14.678616,5.5990486 16.493526,5.8556186 17.455716,7.1346486 z" transform="translate(-0.181403,0.659043)"/><g id="g5753" transform="translate(0.964506,0.000000)"><path style="fill:#bab5ab;stroke:#000;stroke-width:3.1034405;stroke-linecap:square;stroke-linejoin:bevel;stroke-dashoffset:0" id="path5703" d="M 23.446670 5.0481038 A 9.2335644 2.5899436 0 1 1 4.9795408,5.0481038 A 9.2335644 2.5899436 0 1 1 23.446670 5.0481038 z" transform="matrix(0.349179,0.000000,0.000000,0.297348,-0.772900,18.95650)"/><path style="fill:#bab5ab;stroke:#000;stroke-linecap:square;stroke-linejoin:bevel;stroke-dashoffset:0" id="path5704" d="M 12.403883,12.139277 C 13.403820,12.965741 17.800603,13.003308 18.844654,12.139277 L 18.844654,18.450462 C 17.756488,19.314494 13.447935,19.427195 12.403883,18.450462 L 12.403883,12.139277 z" transform="translate(-11.44860,8.351400)"/><path style="fill:none;fill-opacity:.75;fill-rule:evenodd;stroke:#000" id="path5705" d="M 15.509216,19.105755 L 15.595001,12.796901" transform="translate(-11.44860,8.351400)"/><path style="stroke:#807d74;stroke-width:0;stroke-linecap:square;stroke-linejoin:bevel;stroke-dashoffset:0" id="path5706" d="M -93.188063 -87.276924 A 3.4174511 3.4174511 0 1 1 -100.02297,-87.276924 A 3.4174511 3.4174511 0 1 1 -93.188063 -87.276924 z" transform="matrix(0.223380,0.000000,0.000000,0.147756,25.70810,40.38680)"/></g><g id="g5749" transform="translate(0.964506,0.000000)"><path style="fill:#bab5ab;stroke:#000;stroke-width:2.7598431;stroke-linecap:square;stroke-linejoin:bevel;stroke-miterlimit:4;stroke-dashoffset:0" id="path5712" d="M 44.738081,32.591033 L 57.487393,39.727613 L 57.487393,53.433392 L 45.748003,45.479248 L 44.738081,32.591033 z" transform="matrix(9.378045e-2,0.349993,-0.349993,9.378045e-2,32.48687,-0.251162)"/><path style="fill:#bab5ab;stroke:#000;stroke-width:2.7598431;stroke-linecap:square;stroke-linejoin:bevel;stroke-miterlimit:4;stroke-dashoffset:0" id="path5713" d="M 57.764203,39.801420 L 69.912763,33.621586 L 68.897901,45.643866 L 57.786398,53.910593 L 57.764203,39.801420 z" transform="matrix(9.378045e-2,0.349993,-0.349993,9.378045e-2,32.48687,-0.251162)"/><path style="fill:#bab5ab;stroke:#000;stroke-width:2.7598431;stroke-linecap:square;stroke-linejoin:bevel;stroke-miterlimit:4;stroke-dashoffset:0" id="path5714" d="M -76.639263,201.91183 L -62.714583,206.09767 L -75.096800,211.74933 L -88.271528,204.93045 L -76.639263,201.91183 z" transform="matrix(9.378045e-2,0.349993,-0.349993,9.378045e-2,105.2197,30.11323)"/></g><g id="g5707" transform="matrix(-1.000000,-3.140459e-16,-5.872988e-16,1.761677,41.33824,-2.940372)"><path style="fill:#900;fill-opacity:1;fill-rule:evenodd;stroke:none;stroke-width:.25pt;stroke-linecap:butt;stroke-linejoin:miter;stroke-opacity:1" id="path5708" d="M 18.195367,15.210356 L 26.433617,12.000747 L 26.385410,18.567209 L 18.195367,15.210356 z"/><path style="fill:none;fill-opacity:.75;fill-rule:evenodd;stroke:#900;stroke-width:2.5;stroke-linecap:butt;stroke-linejoin:miter;stroke-miterlimit:4;stroke-opacity:1" id="path5709" d="M 25.873269,15.091611 L 34.245208,15.091611"/></g></g></g></svg>