<svg id="svg5525" width="32" height="32" contentScriptType="text/ecmascript" contentStyleType="text/css" preserveAspectRatio="xMidYMid meet" version="1.0" zoomAndPan="magnify"><metadata id="metadata4"><rdf:RDF xmlns:rdf="http://www.w3.org/1999/02/22-rdf-syntax-ns#" id="RDF5"><cc:Work xmlns:cc="http://web.resource.org/cc/" id="Work6"><dc:format xmlns:dc="http://purl.org/dc/elements/1.1/" id="format7">image/svg+xml</dc:format><dc:type xmlns:dc="http://purl.org/dc/elements/1.1/" id="type9" rdf:resource="http://purl.org/dc/dcmitype/StillImage"/></cc:Work></rdf:RDF></metadata><g id="layer1"><g id="g6688" transform="translate(170.7944,-427.7193)"><g id="g6857" transform="translate(-170.3180,427.7014)" style="opacity:.40000001"><path style="fill:#bab5ab;fill-opacity:1;fill-rule:nonzero;stroke:#000;stroke-width:1.4454792;stroke-linecap:square;stroke-linejoin:bevel;stroke-miterlimit:4;stroke-dashoffset:0;stroke-opacity:1" id="path6858" d="M 23.446670 5.0481038 A 9.2335644 2.5899436 0 1 1 4.9795408,5.0481038 A 9.2335644 2.5899436 0 1 1 23.446670 5.0481038 z" transform="matrix(0.609720,0.000000,0.000000,0.784957,-2.147814,2.119215)"/><path style="fill:#bab5ab;fill-opacity:1;fill-rule:nonzero;stroke:#000;stroke-width:1.2739551;stroke-linecap:square;stroke-linejoin:bevel;stroke-miterlimit:4;stroke-dashoffset:0;stroke-opacity:1" id="path6859" d="M -145.42693,95.018750 C -143.20255,97.798200 -133.42183,97.924540 -131.09932,95.018750 L -131.09932,116.24365 C -133.51996,119.14944 -143.10442,119.52846 -145.42693,116.24365 L -145.42693,95.018750 z" transform="matrix(0.784957,0.000000,0.000000,0.784957,115.0235,-68.41639)"/><path style="fill:none;fill-opacity:.75;fill-rule:evenodd;stroke:#000;stroke-width:1.2739551;stroke-linecap:butt;stroke-linejoin:miter;stroke-miterlimit:4;stroke-opacity:1" id="path6860" d="M -138.51906,118.44744 L -138.32823,97.230380" transform="matrix(0.784957,0.000000,0.000000,0.784957,115.0235,-68.41639)"/></g><g id="g6861" transform="translate(-154.0645,428.4967)" style="opacity:.40000001"><path style="fill:#bab5ab;fill-opacity:1;fill-rule:nonzero;stroke:#000;stroke-width:1.4454792;stroke-linecap:square;stroke-linejoin:bevel;stroke-miterlimit:4;stroke-dashoffset:0;stroke-opacity:1" id="path6862" d="M 23.446670 5.0481038 A 9.2335644 2.5899436 0 1 1 4.9795408,5.0481038 A 9.2335644 2.5899436 0 1 1 23.446670 5.0481038 z" transform="matrix(0.609720,0.000000,0.000000,0.784957,-2.147814,2.119215)"/><path style="fill:#bab5ab;fill-opacity:1;fill-rule:nonzero;stroke:#000;stroke-width:1.2739551;stroke-linecap:square;stroke-linejoin:bevel;stroke-miterlimit:4;stroke-dashoffset:0;stroke-opacity:1" id="path6863" d="M -145.42693,95.018750 C -143.20255,97.798200 -133.42183,97.924540 -131.09932,95.018750 L -131.09932,116.24365 C -133.51996,119.14944 -143.10442,119.52846 -145.42693,116.24365 L -145.42693,95.018750 z" transform="matrix(0.784957,0.000000,0.000000,0.784957,115.0235,-68.41639)"/><path style="fill:none;fill-opacity:.75;fill-rule:evenodd;stroke:#000;stroke-width:1.2739551;stroke-linecap:butt;stroke-linejoin:miter;stroke-miterlimit:4;stroke-opacity:1" id="path6864" d="M -138.51906,118.44744 L -138.32823,97.230380" transform="matrix(0.784957,0.000000,0.000000,0.784957,115.0235,-68.41639)"/></g><g id="g6865" transform="matrix(-1.751148,0.000000,0.000000,1.751148,-114.3839,415.9497)" style="stroke:#000;stroke-opacity:1"><path style="fill:#000;fill-opacity:1;fill-rule:evenodd;stroke-width:.25pt;stroke-linecap:butt;stroke-linejoin:miter" id="path6866" d="M 16.928561,15.210356 L 26.433617,10.293313 L 26.385410,20.164486 L 16.928561,15.210356 z"/><path style="fill:none;fill-opacity:.75;fill-rule:evenodd;stroke-width:2.5;stroke-linecap:butt;stroke-linejoin:miter;stroke-miterlimit:4" id="path6867" d="M 25.873269,15.091611 L 31.027689,15.091611"/></g></g></g></svg>