<svg id="svg4805" width="32" height="32" contentScriptType="text/ecmascript" contentStyleType="text/css" preserveAspectRatio="xMidYMid meet" version="1.0" zoomAndPan="magnify"><metadata id="metadata4"><rdf:RDF xmlns:rdf="http://www.w3.org/1999/02/22-rdf-syntax-ns#" id="RDF5"><cc:Work xmlns:cc="http://web.resource.org/cc/" id="Work6"><dc:format xmlns:dc="http://purl.org/dc/elements/1.1/" id="format7">image/svg+xml</dc:format><dc:type xmlns:dc="http://purl.org/dc/elements/1.1/" id="type9" rdf:resource="http://purl.org/dc/dcmitype/StillImage"/></cc:Work></rdf:RDF></metadata><g id="layer1"><g id="g4786" transform="matrix(-1.000000,0.000000,0.000000,-1.000000,30.28697,32.86966)"><path style="fill:#bab5ab;fill-opacity:1;fill-rule:nonzero;stroke:#000;stroke-width:1;stroke-linecap:square;stroke-linejoin:miter;stroke-miterlimit:4;stroke-dashoffset:0;stroke-opacity:1" id="path4624" d="M 7.2035963,3.5312724 C 15.245574,3.5312724 21.612199,-0.22320365 29.654176,-0.22320365 C 27.608149,9.1538360 26.598257,14.921075 28.644284,23.479704 C 19.826687,16.096284 11.140987,28.696069 6.7818580,21.875980 C 10.601107,10.316512 2.0203290,8.6798579 7.2035963,3.5312724 z" transform="translate(-2.854058,5.362011)"/><path style="fill:none;fill-opacity:.75;fill-rule:evenodd;stroke:#565248;stroke-width:1;stroke-linecap:butt;stroke-linejoin:miter;stroke-miterlimit:4;stroke-opacity:1" id="path4625" d="M 21.626181,20.637213 C 21.535499,12.521143 20.178669,8.6774942 22.134013,1.2434327" transform="translate(-2.854058,5.362011)"/><path style="fill:none;fill-opacity:.75;fill-rule:evenodd;stroke:#807d74;stroke-width:1;stroke-linecap:butt;stroke-linejoin:miter;stroke-miterlimit:4;stroke-opacity:1" id="path4626" d="M 12.273143,18.168043 L 18.819643,18.378845 M 17.972428,10.445788 L 11.095328,10.176160" transform="translate(-0.192901,2.989969)"/><path style="fill:none;fill-opacity:.75;fill-rule:evenodd;stroke:#807d74;stroke-width:1;stroke-linecap:butt;stroke-linejoin:miter;stroke-miterlimit:4;stroke-opacity:1" id="path4644" d="M 10.386616,5.9133390 C 8.2481907,9.2271847 15.670178,13.223040 10.577719,24.977247" transform="translate(-0.192901,2.989969)"/><path style="fill:none;fill-opacity:.75;fill-rule:evenodd;stroke:#565248;stroke-width:1;stroke-linecap:butt;stroke-linejoin:miter;stroke-miterlimit:4;stroke-opacity:1" id="path4650" d="M 22.224029,22.798720 L 24.382028,22.720170 M 24.595770,14.594212 L 22.203621,14.421035"/><path style="fill:none;fill-opacity:.75;fill-rule:evenodd;stroke:#565248;stroke-width:1;stroke-linecap:butt;stroke-linejoin:miter;stroke-miterlimit:4;stroke-opacity:1" id="path4698" d="M 18.066231,21.394885 L 21.526313,21.171659 M 21.740055,13.142152 L 18.190499,13.354777"/><path style="fill:none;fill-opacity:.75;fill-rule:evenodd;stroke:#565248;stroke-width:1;stroke-linecap:butt;stroke-linejoin:miter;stroke-miterlimit:4;stroke-opacity:1" id="path4699" d="M 21.968940,26.242028 C 21.878258,18.125958 21.051906,13.462481 23.007250,6.0284187"/><path style="fill:none;fill-opacity:.75;fill-rule:evenodd;stroke:#565248;stroke-width:1;stroke-linecap:butt;stroke-linejoin:miter;stroke-miterlimit:4;stroke-opacity:1" id="path4700" d="M 22.034615,18.260241 L 24.192614,18.422817 M 25.274412,9.9592816 L 22.544686,9.4485273"/><path style="fill:#000;fill-opacity:1;fill-rule:nonzero;stroke:#807d74;stroke-width:0;stroke-linecap:square;stroke-linejoin:bevel;stroke-miterlimit:4;stroke-dashoffset:0;stroke-opacity:1" id="path4776" d="M -93.188063 -87.276924 A 3.4174511 3.4174511 0 1 1 -100.02297,-87.276924 A 3.4174511 3.4174511 0 1 1 -93.188063 -87.276924 z" transform="matrix(0.496913,0.000000,0.000000,0.496913,74.87568,48.54392)"/><path style="fill:#000;fill-opacity:1;fill-rule:nonzero;stroke:#807d74;stroke-width:0;stroke-linecap:square;stroke-linejoin:bevel;stroke-miterlimit:4;stroke-dashoffset:0;stroke-opacity:1" id="path4777" d="M -93.188063 -87.276924 A 3.4174511 3.4174511 0 1 1 -100.02297,-87.276924 A 3.4174511 3.4174511 0 1 1 -93.188063 -87.276924 z" transform="matrix(0.496913,0.000000,0.000000,0.496913,74.33008,72.00503)"/><path style="fill:#565248;fill-opacity:1;fill-rule:nonzero;stroke:#807d74;stroke-width:0;stroke-linecap:square;stroke-linejoin:bevel;stroke-miterlimit:4;stroke-dashoffset:0;stroke-opacity:1" id="path4778" d="M -93.188063 -87.276924 A 3.4174511 3.4174511 0 1 1 -100.02297,-87.276924 A 3.4174511 3.4174511 0 1 1 -93.188063 -87.276924 z" transform="matrix(0.496913,0.000000,0.000000,0.496913,69.69241,69.82259)"/><path style="fill:#565248;fill-opacity:1;fill-rule:nonzero;stroke:#807d74;stroke-width:0;stroke-linecap:square;stroke-linejoin:bevel;stroke-miterlimit:4;stroke-dashoffset:0;stroke-opacity:1" id="path4779" d="M -93.188063 -87.276924 A 3.4174511 3.4174511 0 1 1 -100.02297,-87.276924 A 3.4174511 3.4174511 0 1 1 -93.188063 -87.276924 z" transform="matrix(0.496913,0.000000,0.000000,0.496913,71.05643,49.22592)"/><path style="fill:#565248;fill-opacity:1;fill-rule:nonzero;stroke:#565248;stroke-width:0;stroke-linecap:square;stroke-linejoin:bevel;stroke-miterlimit:4;stroke-dashoffset:0;stroke-opacity:1" id="path4780" d="M -93.188063 -87.276924 A 3.4174511 3.4174511 0 1 1 -100.02297,-87.276924 A 3.4174511 3.4174511 0 1 1 -93.188063 -87.276924 z" transform="matrix(0.496913,0.000000,0.000000,0.496913,69.14681,55.90961)"/><path style="fill:#000;fill-opacity:1;fill-rule:nonzero;stroke:#807d74;stroke-width:0;stroke-linecap:square;stroke-linejoin:bevel;stroke-miterlimit:4;stroke-dashoffset:0;stroke-opacity:1" id="path4781" d="M -93.188063 -87.276924 A 3.4174511 3.4174511 0 1 1 -100.02297,-87.276924 A 3.4174511 3.4174511 0 1 1 -93.188063 -87.276924 z" transform="matrix(0.496913,0.000000,0.000000,0.496913,73.37527,57.68283)"/><path style="fill:#565248;fill-opacity:1;fill-rule:nonzero;stroke:#807d74;stroke-width:0;stroke-linecap:square;stroke-linejoin:bevel;stroke-miterlimit:4;stroke-dashoffset:0;stroke-opacity:1" id="path4782" d="M -93.188063 -87.276924 A 3.4174511 3.4174511 0 1 1 -100.02297,-87.276924 A 3.4174511 3.4174511 0 1 1 -93.188063 -87.276924 z" transform="matrix(0.496913,0.000000,0.000000,0.496913,69.69242,64.09373)"/><path style="fill:#000;fill-opacity:1;fill-rule:nonzero;stroke:#807d74;stroke-width:0;stroke-linecap:square;stroke-linejoin:bevel;stroke-miterlimit:4;stroke-dashoffset:0;stroke-opacity:1" id="path4783" d="M -93.188063 -87.276924 A 3.4174511 3.4174511 0 1 1 -100.02297,-87.276924 A 3.4174511 3.4174511 0 1 1 -93.188063 -87.276924 z" transform="matrix(0.496913,0.000000,0.000000,0.496913,73.10246,66.00335)"/><path style="fill:#807d74;fill-opacity:1;fill-rule:nonzero;stroke:#807d74;stroke-width:0;stroke-linecap:square;stroke-linejoin:bevel;stroke-miterlimit:4;stroke-dashoffset:0;stroke-opacity:1" id="path4784" d="M -93.188063 -87.276924 A 3.4174511 3.4174511 0 1 1 -100.02297,-87.276924 A 3.4174511 3.4174511 0 1 1 -93.188063 -87.276924 z" transform="matrix(0.496913,0.000000,0.000000,0.496913,60.14430,64.63932)"/><path style="fill:#807d74;fill-opacity:1;fill-rule:nonzero;stroke:#807d74;stroke-width:0;stroke-linecap:square;stroke-linejoin:bevel;stroke-miterlimit:4;stroke-dashoffset:0;stroke-opacity:1" id="path4785" d="M -93.188063 -87.276924 A 3.4174511 3.4174511 0 1 1 -100.02297,-87.276924 A 3.4174511 3.4174511 0 1 1 -93.188063 -87.276924 z" transform="matrix(0.496913,0.000000,0.000000,0.496913,58.78028,56.31882)"/></g></g></svg>