<svg id="svg6159" width="32" height="32" contentScriptType="text/ecmascript" contentStyleType="text/css" preserveAspectRatio="xMidYMid meet" version="1.0" zoomAndPan="magnify"><defs id="defs3"><linearGradient id="linearGradient6891" x1="44.796" x2="55.531" y1="7.639" y2="7.639" gradientTransform="matrix(0.460193,0.000000,0.000000,2.173002,355.2436,-189.7157)" gradientUnits="userSpaceOnUse"><stop style="stop-color:#eae8e3;stop-opacity:1" id="stop12427linearGradient6891" offset="0"/><stop style="stop-color:#807d74;stop-opacity:1" id="stop12428linearGradient6891" offset="1"/></linearGradient><linearGradient id="linearGradient6890" x1=".831" x2="14.044" y1="15.888" y2="15.888" gradientTransform="matrix(1.814531,0.000000,0.000000,0.551107,355.2436,-189.7157)" gradientUnits="userSpaceOnUse"><stop style="stop-color:#eae8e3;stop-opacity:1" id="stop12427linearGradient6890" offset="0"/><stop style="stop-color:#807d74;stop-opacity:1" id="stop12428linearGradient6890" offset="1"/></linearGradient><linearGradient id="linearGradient6889" x1="1.558" x2="20.319" y1="20.979" y2="20.979" gradientTransform="matrix(1.069815,0.000000,0.000000,0.934741,355.2436,-189.7157)" gradientUnits="userSpaceOnUse"><stop style="stop-color:#eae8e3;stop-opacity:1" id="stop12427linearGradient6889" offset="0"/><stop style="stop-color:#807d74;stop-opacity:1" id="stop12428linearGradient6889" offset="1"/></linearGradient><linearGradient id="linearGradient3229" x1="44.796" x2="55.531" y1="7.639" y2="7.639" gradientTransform="matrix(0.460193,0.000000,0.000000,2.173002,2.247606,-3.341543)" gradientUnits="userSpaceOnUse"><stop style="stop-color:#eae8e3;stop-opacity:1" id="stop12427linearGradient3229" offset="0"/><stop style="stop-color:#807d74;stop-opacity:1" id="stop12428linearGradient3229" offset="1"/></linearGradient><linearGradient id="linearGradient3228" x1=".831" x2="14.044" y1="15.888" y2="15.888" gradientTransform="matrix(1.814531,0.000000,0.000000,0.551107,2.247606,-3.341543)" gradientUnits="userSpaceOnUse"><stop style="stop-color:#eae8e3;stop-opacity:1" id="stop12427linearGradient3228" offset="0"/><stop style="stop-color:#807d74;stop-opacity:1" id="stop12428linearGradient3228" offset="1"/></linearGradient><linearGradient id="linearGradient12426"><stop style="stop-color:#eae8e3;stop-opacity:1" id="stop12427" offset="0"/><stop style="stop-color:#807d74;stop-opacity:1" id="stop12428" offset="1"/></linearGradient><linearGradient id="linearGradient3227" x1="1.558" x2="20.319" y1="20.979" y2="20.979" gradientTransform="matrix(1.069815,0.000000,0.000000,0.934741,2.247606,-3.341543)" gradientUnits="userSpaceOnUse"><stop style="stop-color:#eae8e3;stop-opacity:1" id="stop12427linearGradient3227" offset="0"/><stop style="stop-color:#807d74;stop-opacity:1" id="stop12428linearGradient3227" offset="1"/></linearGradient></defs><metadata id="metadata4"><rdf:RDF xmlns:rdf="http://www.w3.org/1999/02/22-rdf-syntax-ns#" id="RDF5"><cc:Work xmlns:cc="http://web.resource.org/cc/" id="Work6"><dc:format xmlns:dc="http://purl.org/dc/elements/1.1/" id="format7">image/svg+xml</dc:format><dc:type xmlns:dc="http://purl.org/dc/elements/1.1/" id="type9" rdf:resource="http://purl.org/dc/dcmitype/StillImage"/></cc:Work></rdf:RDF></metadata><g id="layer1"><g id="g6883" transform="translate(-419.7953,208.0144)"><g id="g6859" transform="translate(0.272801,-0.272804)"><path transform="translate(65.63886,-19.25320)" style="fill:url(#linearGradient6889);fill-opacity:1;fill-rule:nonzero;stroke:#000;stroke-width:1;stroke-linecap:square;stroke-linejoin:miter;stroke-miterlimit:4;stroke-dashoffset:0;stroke-opacity:1" id="rect6153" d="M 356.92144,-178.14622 C 357.81936,-178.88428 373.21942,-180.96401 376.35625,-178.24953 C 379.49308,-175.53505 377.58346,-163.44953 376.49265,-162.37189 C 375.19724,-161.77163 359.70434,-161.86963 357.73985,-162.50829 C 357.10105,-164.24455 355.98222,-177.37421 356.92144,-178.14622 z"/><path style="fill:url(#linearGradient6890);fill-opacity:1;fill-rule:nonzero;stroke:#000;stroke-width:1;stroke-linecap:square;stroke-linejoin:bevel;stroke-miterlimit:4;stroke-dashoffset:0;stroke-opacity:1" id="path6154" d="M 362.57908,-183.90718 C 366.36664,-184.78945 377.87230,-184.70724 380.10131,-183.70195 C 382.33031,-182.69666 379.20354,-178.29063 376.63512,-177.94362 C 374.14338,-177.60697 359.33217,-177.74407 356.69396,-178.34016 C 358.21601,-180.70947 361.58776,-182.95672 362.57908,-183.90718 z" transform="translate(65.63886,-19.25320)"/><path style="fill:url(#linearGradient6891);fill-opacity:1;fill-rule:nonzero;stroke:#000;stroke-width:1;stroke-linecap:square;stroke-linejoin:bevel;stroke-miterlimit:4;stroke-dashoffset:0;stroke-opacity:1" id="path6155" d="M 375.82765,-178.01061 C 377.30805,-180.19172 379.32931,-182.78381 380.63917,-182.63930 C 381.26703,-181.26717 381.15307,-172.35647 380.75218,-169.30045 C 379.52886,-167.44135 378.22849,-163.54892 376.44122,-162.32942 C 375.81336,-163.70154 375.19545,-174.96231 375.82765,-178.01061 z" transform="translate(65.63886,-19.25320)"/></g><path id="path6853" style="fill:none;fill-opacity:.75;fill-rule:evenodd;stroke:#000;stroke-width:.75;stroke-linecap:butt;stroke-linejoin:miter;stroke-miterlimit:4;stroke-opacity:1" d="M 422.16348,-195.88133 L 441.25973,-195.33573 L 446.44300,-201.20100 M 423.11830,-183.46877 L 441.66894,-183.05957 L 446.57940,-190.56166 M 424.89152,-181.69555 L 424.07311,-197.38175 L 430.48399,-203.11063 M 439.89571,-181.55914 L 439.07730,-196.69974 L 443.44216,-203.38343 M 422.70909,-198.88217 L 442.07814,-198.88217 L 442.07814,-181.83195"/></g></g></svg>