<svg id="svg8858" width="32" height="32" contentScriptType="text/ecmascript" contentStyleType="text/css" preserveAspectRatio="xMidYMid meet" version="1.0" zoomAndPan="magnify"><defs id="defs3"><linearGradient id="linearGradient12426"><stop style="stop-color:#eae8e3;stop-opacity:1" id="stop12427" offset="0"/><stop style="stop-color:#807d74;stop-opacity:1" id="stop12428" offset="1"/></linearGradient><radialGradient id="radialGradient1736" cx="3.24" cy="2.04" r="17.311" fx="3.071" fy="2.209" gradientTransform="translate(-62.60346,-88.08295)" gradientUnits="userSpaceOnUse"><stop style="stop-color:#eae8e3;stop-opacity:1" id="stop12427radialGradient1736" offset="0"/><stop style="stop-color:#807d74;stop-opacity:1" id="stop12428radialGradient1736" offset="1"/></radialGradient></defs><metadata id="metadata4"><rdf:RDF xmlns:rdf="http://www.w3.org/1999/02/22-rdf-syntax-ns#" id="RDF5"><cc:Work xmlns:cc="http://web.resource.org/cc/" id="Work6"><dc:format xmlns:dc="http://purl.org/dc/elements/1.1/" id="format7">image/svg+xml</dc:format><dc:type xmlns:dc="http://purl.org/dc/elements/1.1/" id="type9" rdf:resource="http://purl.org/dc/dcmitype/StillImage"/></cc:Work></rdf:RDF></metadata><g id="layer1"><g id="g1741" transform="translate(62.45212,88.32426)"><path id="path1071" style="fill:url(#radialGradient1736);fill-opacity:1;fill-rule:evenodd;stroke:#000;stroke-width:1.25;stroke-linecap:square;stroke-linejoin:round;stroke-miterlimit:4;stroke-dashoffset:0;stroke-opacity:1" d="M -33.369667,-73.259760 C -33.369667,-65.500310 -39.667192,-59.202785 -47.426642,-59.202785 C -55.186092,-59.202785 -61.483617,-65.500310 -61.483617,-73.259760 C -61.483617,-81.019211 -55.186092,-87.316735 -47.426642,-87.316735 C -39.667192,-87.316735 -33.369667,-81.019211 -33.369667,-73.259760 z M -41.031749,-73.171352 C -41.031749,-69.755242 -43.804245,-66.982746 -47.220355,-66.982746 C -50.636465,-66.982746 -53.408960,-69.755242 -53.408960,-73.171352 C -53.408960,-76.587462 -50.636465,-79.359957 -47.220355,-79.359957 C -43.804245,-79.359957 -41.031749,-76.587462 -41.031749,-73.171352 z"/><path style="fill:#fff;fill-opacity:1;fill-rule:evenodd;stroke:#000;stroke-width:0;stroke-linecap:butt;stroke-linejoin:miter;stroke-miterlimit:4;stroke-opacity:1" id="path1072" d="M -50.433999,-85.047467 C -53.219888,-84.634691 -55.906245,-82.377097 -57.264976,-79.972178 C -57.753340,-79.141744 -58.091560,-78.234156 -58.381601,-77.320544 C -58.810336,-76.290922 -59.192704,-75.211179 -59.269047,-74.091356 C -59.173483,-73.443481 -59.143522,-74.525201 -59.038905,-74.733501 C -58.457439,-76.994140 -56.669914,-78.722945 -54.725107,-79.893145 C -53.136510,-80.925056 -51.492804,-82.506307 -49.898392,-83.525741 C -48.041916,-84.532643 -42.372381,-84.080425 -41.681465,-83.738802 C -44.268337,-85.211511 -47.448505,-85.323800 -50.433999,-85.047467 z"/><path style="fill:#fff;fill-opacity:1;fill-rule:evenodd;stroke:#000;stroke-width:0;stroke-linecap:butt;stroke-linejoin:miter;stroke-miterlimit:4;stroke-opacity:1" id="path1073" d="M -39.705621,-75.469976 C -39.188074,-67.876383 -42.902037,-65.341809 -49.103856,-65.187271 C -41.845445,-63.579375 -38.087002,-68.516376 -39.705621,-75.469976 z"/></g></g></svg>