<svg id="svg6188" width="32" height="32" contentScriptType="text/ecmascript" contentStyleType="text/css" preserveAspectRatio="xMidYMid meet" version="1.0" zoomAndPan="magnify"><defs id="defs3"><linearGradient id="linearGradient6330"><stop style="stop-color:#807d74;stop-opacity:1" id="stop6331" offset="0"/><stop style="stop-color:#807d74;stop-opacity:0" id="stop6332" offset="1"/></linearGradient><linearGradient id="linearGradient6337" x1="5.114" x2="18.354" y1="25.095" y2="26.363" gradientTransform="scale(1.342888,0.744664)" gradientUnits="userSpaceOnUse"><stop style="stop-color:#807d74;stop-opacity:1" id="stop6331linearGradient6337" offset="0"/><stop style="stop-color:#807d74;stop-opacity:0" id="stop6332linearGradient6337" offset="1"/></linearGradient><linearGradient id="linearGradient6283"><stop style="stop-color:#887fa3;stop-opacity:1" id="stop6284" offset="0"/><stop style="stop-color:#887fa3;stop-opacity:0" id="stop6285" offset="1"/></linearGradient><linearGradient id="linearGradient6297" x1="-362.942" x2="-344.165" y1="-75.922" y2="-75.922" gradientTransform="scale(1.004123,0.995894)" gradientUnits="userSpaceOnUse"><stop style="stop-color:#887fa3;stop-opacity:1" id="stop6284linearGradient6297" offset="0"/><stop style="stop-color:#887fa3;stop-opacity:0" id="stop6285linearGradient6297" offset="1"/></linearGradient></defs><metadata id="metadata4"><rdf:RDF xmlns:rdf="http://www.w3.org/1999/02/22-rdf-syntax-ns#" id="RDF5"><cc:Work xmlns:cc="http://web.resource.org/cc/" id="Work6"><dc:format xmlns:dc="http://purl.org/dc/elements/1.1/" id="format7">image/svg+xml</dc:format><dc:type xmlns:dc="http://purl.org/dc/elements/1.1/" id="type9" rdf:resource="http://purl.org/dc/dcmitype/StillImage"/></cc:Work></rdf:RDF></metadata><g id="layer1"><g id="g6498" transform="translate(-9.753859e-2,0.220685)"><path id="path6451" style="fill:none;fill-opacity:1;fill-rule:evenodd;stroke:#445632;stroke-width:1.25;stroke-linecap:square;stroke-linejoin:round;stroke-miterlimit:4;stroke-dashoffset:0;stroke-opacity:1" d="M 92.550185,-83.258379 C 92.550185,-75.498929 86.252665,-69.201398 78.493215,-69.201398 C 70.733765,-69.201398 64.436235,-75.498929 64.436235,-83.258379 C 64.436235,-91.017829 70.733765,-97.315347 78.493215,-97.315347 C 86.252665,-97.315347 92.550185,-91.017829 92.550185,-83.258379 z" transform="translate(-63.25400,98.40498)"/><path style="fill:none;fill-opacity:1;fill-rule:nonzero;stroke:#83a67f;stroke-width:1;stroke-linecap:square;stroke-linejoin:round;stroke-miterlimit:4;stroke-dashoffset:0;stroke-opacity:1" id="path6452" d="M 27.135039 14.829850 A 12.131595 12.131595 0 1 1 2.8718500,14.829850 A 12.131595 12.131595 0 1 1 27.135039 14.829850 z" transform="translate(0.237300,0.206077)"/><path style="fill:none;fill-opacity:1;fill-rule:nonzero;stroke:#000;stroke-width:1;stroke-linecap:square;stroke-linejoin:round;stroke-miterlimit:4;stroke-dashoffset:0;stroke-opacity:1" id="path6454" d="M 20.411941 14.829850 A 5.4084964 5.4084964 0 1 1 9.5949483,14.829850 A 5.4084964 5.4084964 0 1 1 20.411941 14.829850 z" transform="translate(0.262100,0.186177)"/><path style="fill:#83a67f;fill-opacity:1;stroke:#000;stroke-width:1.649139;stroke-linecap:square;stroke-linejoin:bevel;stroke-miterlimit:4;stroke-dashoffset:0" id="path6456" d="M 44.738081,32.591033 L 57.487393,39.727613 L 57.487393,53.433392 L 45.748003,45.479248 L 44.738081,32.591033 z" transform="matrix(0.557672,0.000000,0.000000,0.557672,-16.70962,-7.469010)"/><path style="fill:#5d7555;fill-opacity:1;stroke:#000;stroke-width:1.649139;stroke-linecap:square;stroke-linejoin:bevel;stroke-miterlimit:4;stroke-dashoffset:0" id="path6457" d="M 57.764203,39.801420 L 69.912763,33.621586 L 68.897901,45.643866 L 57.786398,53.910593 L 57.764203,39.801420 z" transform="matrix(0.557672,0.000000,0.000000,0.557672,-16.70962,-7.469010)"/><path style="fill:#c5d2c8;fill-opacity:1;stroke:#000;stroke-width:1.649139;stroke-linecap:square;stroke-linejoin:bevel;stroke-miterlimit:4;stroke-dashoffset:0" id="path6458" d="M -76.639263,201.91183 L -62.714583,206.09767 L -75.096800,211.74933 L -88.271528,204.93045 L -76.639263,201.91183 z" transform="matrix(0.557672,0.000000,0.000000,0.557672,57.40420,-103.5013)"/><path style="fill:none;fill-opacity:1;fill-rule:nonzero;stroke:#c5d2c8;stroke-width:1;stroke-linecap:square;stroke-linejoin:round;stroke-miterlimit:4;stroke-dashoffset:0;stroke-opacity:1" id="path6482" d="M 25.361816 14.829850 A 10.358372 10.358372 0 1 1 4.6450729,14.829850 A 10.358372 10.358372 0 1 1 25.361816 14.829850 z" transform="translate(0.235753,0.248554)"/></g></g></svg>