<svg id="svg4628" width="32" height="32" contentScriptType="text/ecmascript" contentStyleType="text/css" preserveAspectRatio="xMidYMid meet" version="1.0" zoomAndPan="magnify"><metadata id="metadata4"><rdf:RDF xmlns:rdf="http://www.w3.org/1999/02/22-rdf-syntax-ns#" id="RDF5"><cc:Work xmlns:cc="http://web.resource.org/cc/" id="Work6"><dc:format xmlns:dc="http://purl.org/dc/elements/1.1/" id="format7">image/svg+xml</dc:format><dc:type xmlns:dc="http://purl.org/dc/elements/1.1/" id="type9" rdf:resource="http://purl.org/dc/dcmitype/StillImage"/></cc:Work></rdf:RDF></metadata><g id="layer1"><g id="g5306" transform="translate(-1.453840e-2,-0.622031)"><text xml:space="preserve" style="font-size:12;font-style:normal;font-variant:normal;font-weight:700;font-stretch:normal;fill:#000;fill-opacity:1;stroke:none;stroke-width:3pt;stroke-linecap:butt;stroke-linejoin:miter;stroke-opacity:1;font-family:Verdana;text-anchor:start;writing-mode:lr" id="text5396" x="1.347" y="20.574" transform="translate(0.380469,9.218793)"><tspan id="tspan5397" x="1.347" y="20.574">CSG</tspan></text><g id="g5257" transform="matrix(1.049390,0.000000,0.000000,0.591292,188.7365,-0.693058)"><path style="fill:#deced0;fill-opacity:0;fill-rule:evenodd;stroke:#000;stroke-width:1;stroke-linecap:butt;stroke-linejoin:round;stroke-miterlimit:4;stroke-dasharray:1 2;stroke-dashoffset:1.6000001;stroke-opacity:1" id="path5268" d="M 21.379286,0.95424510 L 5.9261041,0.93890871 L 1.9053077,4.4104107 L 17.373121,4.5814216 L 21.379286,0.95424510 z" transform="translate(-180.6392,3.264564)"/><path style="fill:#deced0;fill-opacity:0;fill-rule:evenodd;stroke:#000;stroke-width:1;stroke-linecap:butt;stroke-linejoin:round;stroke-miterlimit:4;stroke-dasharray:1 2;stroke-dashoffset:1.6000001;stroke-opacity:1" id="path5269" d="M 28.214841,10.072251 L 12.761659,10.056915 L 8.7408626,13.528417 L 24.208675,13.699426 L 28.214841,10.072251 z" transform="translate(-180.6392,3.264564)"/><rect style="fill:#deced0;fill-opacity:0;fill-rule:evenodd;stroke:#000;stroke-width:1;stroke-linecap:butt;stroke-linejoin:round;stroke-miterlimit:4;stroke-dasharray:1 2;stroke-dashoffset:1.6000001;stroke-opacity:1" id="rect5270" width="15.512" height="15.512" x="8.685" y="13.632" transform="translate(-180.6392,3.264564)"/><path style="fill:#deced0;fill-opacity:0;fill-rule:evenodd;stroke:#000;stroke-width:1;stroke-linecap:butt;stroke-linejoin:round;stroke-miterlimit:4;stroke-dasharray:1 2;stroke-dashoffset:2.8;stroke-opacity:1" id="path5271" d="M 28.093660,25.166292 L 28.199934,10.115388 L 24.297048,13.600737 L 24.303991,29.069640 L 28.093660,25.166292 z" transform="translate(-180.6392,3.264564)"/><rect style="fill:#deced0;fill-opacity:0;fill-rule:evenodd;stroke:#000;stroke-width:1;stroke-linecap:butt;stroke-linejoin:round;stroke-miterlimit:4;stroke-dasharray:1 2;stroke-dashoffset:1.6000001;stroke-opacity:1" id="rect5272" width="15.512" height="15.512" x="1.849" y="4.514" transform="translate(-180.6392,3.264564)"/><path style="fill:#deced0;fill-opacity:0;fill-rule:evenodd;stroke:#000;stroke-width:1;stroke-linecap:butt;stroke-linejoin:round;stroke-miterlimit:4;stroke-dasharray:1 2;stroke-dashoffset:2.8;stroke-opacity:1" id="path5273" d="M 21.258106,16.048286 L 21.364380,0.99738247 L 17.461494,4.4827310 L 17.468437,19.951634 L 21.258106,16.048286 z" transform="translate(-180.6392,3.264564)"/><path style="fill:#bab5ab;fill-opacity:1;fill-rule:evenodd;stroke:#000;stroke-width:1;stroke-linecap:butt;stroke-linejoin:round;stroke-miterlimit:4;stroke-opacity:1" id="path5274" d="M 21.623979,10.233871 L 13.086109,10.218534 L 9.0653130,13.690036 L 17.617813,13.861047 L 21.623979,10.233871 z" transform="translate(-180.6392,3.264564)"/><path style="fill:#bab5ab;fill-opacity:1;fill-rule:evenodd;stroke:#000;stroke-width:1;stroke-linecap:butt;stroke-linejoin:round;stroke-miterlimit:4;stroke-opacity:1" id="path5275" d="M 9.0101774,13.793290 L 9.0101774,20.187950 L 17.685428,20.187950 L 17.685428,13.793290 L 9.0101774,13.793290 z" transform="translate(-180.6392,3.264564)"/><path style="fill:#bab5ab;fill-opacity:1;fill-rule:evenodd;stroke:#000;stroke-width:1;stroke-linecap:butt;stroke-linejoin:round;stroke-miterlimit:4;stroke-opacity:1" id="path5280" d="M 21.398020,16.212272 L 21.609072,10.172230 L 17.706186,13.657579 L 17.608352,20.115620 L 21.398020,16.212272 z" transform="translate(-180.6392,3.264564)"/></g></g></g></svg>