<svg id="svg5525" width="32" height="32" contentScriptType="text/ecmascript" contentStyleType="text/css" preserveAspectRatio="xMidYMid meet" version="1.0" zoomAndPan="magnify"><metadata id="metadata4"><rdf:RDF xmlns:rdf="http://www.w3.org/1999/02/22-rdf-syntax-ns#" id="RDF5"><cc:Work xmlns:cc="http://web.resource.org/cc/" id="Work6"><dc:format xmlns:dc="http://purl.org/dc/elements/1.1/" id="format7">image/svg+xml</dc:format><dc:type xmlns:dc="http://purl.org/dc/elements/1.1/" id="type9" rdf:resource="http://purl.org/dc/dcmitype/StillImage"/></cc:Work></rdf:RDF></metadata><g id="layer1"><g id="g6712" transform="translate(74.42802,-428.8533)"><g id="g6881" transform="translate(-75.01856,428.6715)"><path style="opacity:.40000001;fill:#bab5ab;fill-opacity:1;fill-rule:nonzero;stroke:#000;stroke-width:1.1050783;stroke-linecap:square;stroke-linejoin:bevel;stroke-miterlimit:4;stroke-dashoffset:0;stroke-opacity:1" id="path6882" d="M 23.446670 5.0481038 A 9.2335644 2.5899436 0 1 1 4.9795408,5.0481038 A 9.2335644 2.5899436 0 1 1 23.446670 5.0481038 z" transform="matrix(0.797534,0.000000,0.000000,1.026750,-1.884074,-0.118154)"/><path style="opacity:.40000001;fill:#bab5ab;fill-opacity:1;fill-rule:nonzero;stroke:#000;stroke-width:.97394693;stroke-linecap:square;stroke-linejoin:bevel;stroke-miterlimit:4;stroke-dashoffset:0;stroke-opacity:1" id="path6883" d="M -145.42693,95.018750 C -143.20255,97.798200 -133.42183,97.924540 -131.09932,95.018750 L -131.09932,116.24365 C -133.51996,119.14944 -143.10442,119.52846 -145.42693,116.24365 L -145.42693,95.018750 z" transform="matrix(1.026750,0.000000,0.000000,1.026750,151.3800,-92.38112)"/><path style="opacity:.40000001;fill:none;fill-opacity:.75;fill-rule:evenodd;stroke:#000;stroke-width:.97394693;stroke-linecap:butt;stroke-linejoin:miter;stroke-miterlimit:4;stroke-opacity:1" id="path6884" d="M -138.51906,118.44744 L -138.32823,97.230380" transform="matrix(1.026750,0.000000,0.000000,1.026750,151.3800,-92.38112)"/></g><g id="g6885" transform="translate(-75.01856,428.6715)" style="opacity:.40000001"><path style="fill:#bab5ab;fill-opacity:1;fill-rule:nonzero;stroke:#000;stroke-width:2.4765294;stroke-linecap:square;stroke-linejoin:bevel;stroke-miterlimit:4;stroke-dashoffset:0;stroke-opacity:1" id="path6886" d="M 23.446670 5.0481038 A 9.2335644 2.5899436 0 1 1 4.9795408,5.0481038 A 9.2335644 2.5899436 0 1 1 23.446670 5.0481038 z" transform="matrix(0.355876,0.000000,0.000000,0.458157,8.257225e-2,15.45770)"/><path style="fill:#bab5ab;fill-opacity:1;fill-rule:nonzero;stroke:#000;stroke-width:2.182658;stroke-linecap:square;stroke-linejoin:bevel;stroke-miterlimit:4;stroke-dashoffset:0;stroke-opacity:1" id="path6887" d="M -145.42693,95.018750 C -143.20255,97.798200 -133.42183,97.924540 -131.09932,95.018750 L -131.09932,116.24365 C -133.51996,119.14944 -143.10442,119.52846 -145.42693,116.24365 L -145.42693,95.018750 z" transform="matrix(0.458157,0.000000,0.000000,0.458157,68.47207,-25.71188)"/><path style="fill:none;fill-opacity:.75;fill-rule:evenodd;stroke:#000;stroke-width:2.182658;stroke-linecap:butt;stroke-linejoin:miter;stroke-miterlimit:4;stroke-opacity:1" id="path6888" d="M -138.51906,118.44744 L -138.32823,97.230380" transform="matrix(0.458157,0.000000,0.000000,0.458157,68.47207,-25.71188)"/></g><g id="g6889" transform="matrix(-1.238249,1.238249,1.238249,1.238249,-43.02475,389.6068)"><path style="fill:#000;fill-opacity:1;fill-rule:evenodd;stroke:none;stroke-width:.25pt;stroke-linecap:butt;stroke-linejoin:miter;stroke-opacity:1" id="path6890" d="M 16.928561,15.210356 L 26.433617,10.293313 L 26.385410,20.164486 L 16.928561,15.210356 z"/><path style="fill:none;fill-opacity:.75;fill-rule:evenodd;stroke:#000;stroke-width:2.5;stroke-linecap:butt;stroke-linejoin:miter;stroke-miterlimit:4;stroke-opacity:1" id="path6891" d="M 25.873269,15.091611 L 31.027689,15.091611"/></g></g></g></svg>