<svg id="svg6159" width="32" height="32" contentScriptType="text/ecmascript" contentStyleType="text/css" preserveAspectRatio="xMidYMid meet" version="1.0" zoomAndPan="magnify"><defs id="defs3"><linearGradient id="linearGradient6891" x1="44.796" x2="55.531" y1="7.639" y2="7.639" gradientTransform="matrix(0.460193,0.000000,0.000000,2.173002,355.2436,-189.7157)" gradientUnits="userSpaceOnUse"><stop style="stop-color:#eae8e3;stop-opacity:1" id="stop12427linearGradient6891" offset="0"/><stop style="stop-color:#807d74;stop-opacity:1" id="stop12428linearGradient6891" offset="1"/></linearGradient><linearGradient id="linearGradient6890" x1=".831" x2="14.044" y1="15.888" y2="15.888" gradientTransform="matrix(1.814531,0.000000,0.000000,0.551107,355.2436,-189.7157)" gradientUnits="userSpaceOnUse"><stop style="stop-color:#eae8e3;stop-opacity:1" id="stop12427linearGradient6890" offset="0"/><stop style="stop-color:#807d74;stop-opacity:1" id="stop12428linearGradient6890" offset="1"/></linearGradient><linearGradient id="linearGradient6889" x1="1.558" x2="20.319" y1="20.979" y2="20.979" gradientTransform="matrix(1.069815,0.000000,0.000000,0.934741,355.2436,-189.7157)" gradientUnits="userSpaceOnUse"><stop style="stop-color:#eae8e3;stop-opacity:1" id="stop12427linearGradient6889" offset="0"/><stop style="stop-color:#807d74;stop-opacity:1" id="stop12428linearGradient6889" offset="1"/></linearGradient><linearGradient id="linearGradient3229" x1="44.796" x2="55.531" y1="7.639" y2="7.639" gradientTransform="matrix(0.460193,0.000000,0.000000,2.173002,2.247606,-3.341543)" gradientUnits="userSpaceOnUse"><stop style="stop-color:#eae8e3;stop-opacity:1" id="stop12427linearGradient3229" offset="0"/><stop style="stop-color:#807d74;stop-opacity:1" id="stop12428linearGradient3229" offset="1"/></linearGradient><linearGradient id="linearGradient3228" x1=".831" x2="14.044" y1="15.888" y2="15.888" gradientTransform="matrix(1.814531,0.000000,0.000000,0.551107,2.247606,-3.341543)" gradientUnits="userSpaceOnUse"><stop style="stop-color:#eae8e3;stop-opacity:1" id="stop12427linearGradient3228" offset="0"/><stop style="stop-color:#807d74;stop-opacity:1" id="stop12428linearGradient3228" offset="1"/></linearGradient><linearGradient id="linearGradient12426"><stop style="stop-color:#eae8e3;stop-opacity:1" id="stop12427" offset="0"/><stop style="stop-color:#807d74;stop-opacity:1" id="stop12428" offset="1"/></linearGradient><linearGradient id="linearGradient3227" x1="1.558" x2="20.319" y1="20.979" y2="20.979" gradientTransform="matrix(1.069815,0.000000,0.000000,0.934741,2.247606,-3.341543)" gradientUnits="userSpaceOnUse"><stop style="stop-color:#eae8e3;stop-opacity:1" id="stop12427linearGradient3227" offset="0"/><stop style="stop-color:#807d74;stop-opacity:1" id="stop12428linearGradient3227" offset="1"/></linearGradient></defs><metadata id="metadata4"><rdf:RDF xmlns:rdf="http://www.w3.org/1999/02/22-rdf-syntax-ns#" id="RDF5"><cc:Work xmlns:cc="http://web.resource.org/cc/" id="Work6"><dc:format xmlns:dc="http://purl.org/dc/elements/1.1/" id="format7">image/svg+xml</dc:format><dc:type xmlns:dc="http://purl.org/dc/elements/1.1/" id="type9" rdf:resource="http://purl.org/dc/dcmitype/StillImage"/></cc:Work></rdf:RDF></metadata><g id="layer1"><g id="g7606" transform="translate(8.997293e-2,-0.539838)"><path style="fill:#bab5ab;stroke:#000;stroke-linecap:square;stroke-linejoin:bevel;stroke-dashoffset:0" id="path7445" d="M 2.2536120,8.1648544 L 15.002924,15.301434 L 15.002924,29.007214 L 3.2635340,21.053064 L 2.2536120,8.1648544 z" transform="translate(-0.117436,0.350639)"/><path style="fill:#bab5ab;stroke:#000;stroke-width:1.2125;stroke-linecap:square;stroke-linejoin:bevel;stroke-dashoffset:0" id="path7446" d="M 15.279734,15.375234 L 27.428294,9.1954044 L 26.413432,21.217684 L 15.301929,29.484414 L 15.279734,15.375234 z" transform="translate(-0.117436,0.350639)"/><path style="fill:#bab5ab;fill-opacity:1;stroke:#000;stroke-linecap:square;stroke-linejoin:bevel;stroke-dashoffset:0" id="path7447" d="M 13.775028,5.2831044 L 27.699708,9.4689444 L 15.317491,15.120604 L 2.1427630,8.3017244 L 13.775028,5.2831044 z" transform="translate(-0.117436,0.350639)"/><text xml:space="preserve" style="font-size:10;font-style:normal;font-variant:normal;font-weight:700;font-stretch:normal;fill:#000;fill-opacity:1;stroke:none;stroke-width:1pt;stroke-linecap:butt;stroke-linejoin:miter;stroke-opacity:1;font-family:Verdana;text-anchor:start;writing-mode:lr" id="text7448" x="-.282" y="9.248" transform="matrix(1.250206,0.000000,0.000000,1.421288,13.80139,-2.285704)"><tspan id="tspan7449" x="-.282" y="9.248">1</tspan></text><text xml:space="preserve" style="font-size:10;font-style:normal;font-variant:normal;font-weight:700;font-stretch:normal;fill:#000;fill-opacity:1;stroke:none;stroke-width:1pt;stroke-linecap:butt;stroke-linejoin:miter;stroke-opacity:1;font-family:Verdana;text-anchor:start;writing-mode:lr" id="text7451" x="-.282" y="9.248" transform="matrix(1.250206,0.000000,0.000000,1.421288,15.25376,8.113213)"><tspan id="tspan7452" x="-.282" y="9.248">2</tspan></text><text xml:space="preserve" style="font-size:10;font-style:normal;font-variant:normal;font-weight:700;font-stretch:normal;fill:#000;fill-opacity:1;stroke:none;stroke-width:1pt;stroke-linecap:butt;stroke-linejoin:miter;stroke-opacity:1;font-family:Verdana;text-anchor:start;writing-mode:lr" id="text7454" x="-.282" y="9.248" transform="matrix(1.250206,0.000000,0.000000,1.421288,3.486791,13.17687)"><tspan id="tspan7455" x="-.282" y="9.248">3</tspan></text><path style="fill:#900;fill-opacity:1;fill-rule:nonzero;stroke:#807d74;stroke-width:0;stroke-linecap:square;stroke-linejoin:bevel;stroke-miterlimit:4;stroke-dashoffset:0;stroke-opacity:1" id="path7536" d="M -93.188063 -87.276924 A 3.4174511 3.4174511 0 1 1 -100.02297,-87.276924 A 3.4174511 3.4174511 0 1 1 -93.188063 -87.276924 z" transform="matrix(0.863812,0.000000,0.000000,0.863812,98.77118,90.86944)"/><path style="fill:#000;fill-opacity:1;fill-rule:nonzero;stroke:#807d74;stroke-width:0;stroke-linecap:square;stroke-linejoin:bevel;stroke-miterlimit:4;stroke-dashoffset:0;stroke-opacity:1" id="path7537" d="M -93.188063 -87.276924 A 3.4174511 3.4174511 0 1 1 -100.02297,-87.276924 A 3.4174511 3.4174511 0 1 1 -93.188063 -87.276924 z" transform="matrix(0.496913,0.000000,0.000000,0.496913,61.49422,49.00971)"/><path style="fill:#000;fill-opacity:1;fill-rule:nonzero;stroke:#807d74;stroke-width:0;stroke-linecap:square;stroke-linejoin:bevel;stroke-miterlimit:4;stroke-dashoffset:0;stroke-opacity:1" id="path7538" d="M -93.188063 -87.276924 A 3.4174511 3.4174511 0 1 1 -100.02297,-87.276924 A 3.4174511 3.4174511 0 1 1 -93.188063 -87.276924 z" transform="matrix(0.496913,0.000000,0.000000,0.496913,75.06961,53.42229)"/><path style="fill:#000;fill-opacity:1;fill-rule:nonzero;stroke:#807d74;stroke-width:0;stroke-linecap:square;stroke-linejoin:bevel;stroke-miterlimit:4;stroke-dashoffset:0;stroke-opacity:1" id="path7539" d="M -93.188063 -87.276924 A 3.4174511 3.4174511 0 1 1 -100.02297,-87.276924 A 3.4174511 3.4174511 0 1 1 -93.188063 -87.276924 z" transform="matrix(0.496913,0.000000,0.000000,0.496913,50.45059,52.19255)"/><path style="fill:#000;fill-opacity:1;fill-rule:nonzero;stroke:#807d74;stroke-width:0;stroke-linecap:square;stroke-linejoin:bevel;stroke-miterlimit:4;stroke-dashoffset:0;stroke-opacity:1" id="path7540" d="M -93.188063 -87.276924 A 3.4174511 3.4174511 0 1 1 -100.02297,-87.276924 A 3.4174511 3.4174511 0 1 1 -93.188063 -87.276924 z" transform="matrix(0.496913,0.000000,0.000000,0.496913,63.23030,72.20317)"/><path style="fill:#000;fill-opacity:1;fill-rule:nonzero;stroke:#807d74;stroke-width:0;stroke-linecap:square;stroke-linejoin:bevel;stroke-miterlimit:4;stroke-dashoffset:0;stroke-opacity:1" id="path7541" d="M -93.188063 -87.276924 A 3.4174511 3.4174511 0 1 1 -100.02297,-87.276924 A 3.4174511 3.4174511 0 1 1 -93.188063 -87.276924 z" transform="matrix(0.496913,0.000000,0.000000,0.496913,74.22567,64.53822)"/><path style="fill:#000;fill-opacity:1;fill-rule:nonzero;stroke:#807d74;stroke-width:0;stroke-linecap:square;stroke-linejoin:bevel;stroke-miterlimit:4;stroke-dashoffset:0;stroke-opacity:1" id="path7542" d="M -93.188063 -87.276924 A 3.4174511 3.4174511 0 1 1 -100.02297,-87.276924 A 3.4174511 3.4174511 0 1 1 -93.188063 -87.276924 z" transform="matrix(0.496913,0.000000,0.000000,0.496913,50.83639,64.73113)"/><path style="fill:#000;fill-opacity:1;fill-rule:nonzero;stroke:#807d74;stroke-width:0;stroke-linecap:square;stroke-linejoin:bevel;stroke-miterlimit:4;stroke-dashoffset:0;stroke-opacity:1" id="path7543" d="M -93.188063 -87.276924 A 3.4174511 3.4174511 0 1 1 -100.02297,-87.276924 A 3.4174511 3.4174511 0 1 1 -93.188063 -87.276924 z" transform="matrix(0.496913,0.000000,0.000000,0.496913,51.31864,64.39355)"/></g></g></svg>