<svg id="svg9404" width="32" height="32" contentScriptType="text/ecmascript" contentStyleType="text/css" preserveAspectRatio="xMidYMid meet" version="1.0" zoomAndPan="magnify"><defs id="defs3"><linearGradient id="linearGradient12426"><stop style="stop-color:#eae8e3;stop-opacity:1" id="stop12427" offset="0"/><stop style="stop-color:#807d74;stop-opacity:1" id="stop12428" offset="1"/></linearGradient><radialGradient id="radialGradient9392" cx="105.968" cy="-33.376" r="13.189" fx="100.869" fy="-40.098" gradientTransform="matrix(0.479736,0.000000,0.000000,0.479736,-508.7098,-45.57899)" gradientUnits="userSpaceOnUse"><stop style="stop-color:#eae8e3;stop-opacity:1" id="stop12427radialGradient9392" offset="0"/><stop style="stop-color:#807d74;stop-opacity:1" id="stop12428radialGradient9392" offset="1"/></radialGradient></defs><metadata id="metadata4"><rdf:RDF xmlns:rdf="http://www.w3.org/1999/02/22-rdf-syntax-ns#" id="RDF5"><cc:Work xmlns:cc="http://web.resource.org/cc/" id="Work6"><dc:format xmlns:dc="http://purl.org/dc/elements/1.1/" id="format7">image/svg+xml</dc:format><dc:type xmlns:dc="http://purl.org/dc/elements/1.1/" id="type9" rdf:resource="http://purl.org/dc/dcmitype/StillImage"/></cc:Work></rdf:RDF></metadata><g id="layer1"><g id="g9393" transform="translate(514.1306,74.52946)"><g id="g9385" transform="translate(-37.63434,-0.214950)"><rect style="fill:#83a67f;fill-opacity:1;fill-rule:nonzero;stroke:#000;stroke-width:.5;stroke-linecap:square;stroke-linejoin:bevel;stroke-miterlimit:4;stroke-dashoffset:0;stroke-opacity:1" id="rect9386" width="7.523" height="7.523" x="-475.765" y="-73.435"/><rect style="fill:#ada7c8;fill-opacity:1;fill-rule:nonzero;stroke:#000;stroke-width:.5;stroke-linecap:square;stroke-linejoin:bevel;stroke-miterlimit:4;stroke-dashoffset:0;stroke-opacity:1" id="rect9387" width="7.523" height="7.523" x="-475.765" y="-62.825"/><rect style="fill:#445632;fill-opacity:1;fill-rule:nonzero;stroke:#000;stroke-width:.5;stroke-linecap:square;stroke-linejoin:bevel;stroke-miterlimit:4;stroke-dashoffset:0;stroke-opacity:1" id="rect9388" width="7.523" height="7.523" x="-475.765" y="-52.409"/><path id="path9389" style="fill:url(#radialGradient9392);fill-opacity:1;fill-rule:evenodd;stroke:#000;stroke-width:1;stroke-linecap:square;stroke-linejoin:round;stroke-miterlimit:4;stroke-dashoffset:0;stroke-opacity:1" d="M -447.96604,-59.129794 C -447.96604,-55.407306 -450.98719,-52.386154 -454.70967,-52.386154 C -458.43216,-52.386154 -461.45331,-55.407306 -461.45331,-59.129794 C -461.45331,-62.852281 -458.43216,-65.873424 -454.70967,-65.873424 C -450.98719,-65.873424 -447.96604,-62.852281 -447.96604,-59.129794 z"/><path style="fill:#fff;fill-opacity:1;fill-rule:evenodd;stroke:#000;stroke-width:0;stroke-linecap:butt;stroke-linejoin:miter;stroke-miterlimit:4;stroke-opacity:1" id="path9390" d="M -459.91103,-56.608005 C -459.52292,-60.289518 -458.39025,-59.882822 -456.90630,-61.540365 C -455.46424,-63.151123 -454.81468,-64.054191 -452.34149,-64.090240 C -456.91927,-66.212368 -461.35706,-61.366982 -459.91103,-56.608005 z"/><path style="fill:#fff;fill-opacity:1;fill-rule:evenodd;stroke:#000;stroke-width:0;stroke-linecap:butt;stroke-linejoin:miter;stroke-miterlimit:4;stroke-opacity:1" id="path9391" d="M -448.96106,-61.396106 C -450.21398,-58.185586 -453.36104,-54.717350 -456.24211,-53.483500 C -451.99260,-53.249477 -448.42211,-56.209381 -448.96106,-61.396106 z"/></g><g id="g9375" transform="matrix(-1.000000,-3.140459e-16,-5.872988e-16,1.761677,-475.7263,-86.03740)"><path style="fill:#900;fill-opacity:1;fill-rule:evenodd;stroke:none;stroke-width:.25pt;stroke-linecap:butt;stroke-linejoin:miter;stroke-opacity:1" id="path9376" d="M 18.195367,15.210356 L 26.433617,12.000747 L 26.385410,18.567209 L 18.195367,15.210356 z"/><path style="fill:none;fill-opacity:.75;fill-rule:evenodd;stroke:#900;stroke-width:2.5;stroke-linecap:butt;stroke-linejoin:miter;stroke-miterlimit:4;stroke-opacity:1" id="path9377" d="M 25.873269,15.091611 L 34.245208,15.091611"/></g></g></g></svg>