<svg id="svg5716" width="32" height="32" contentScriptType="text/ecmascript" contentStyleType="text/css" preserveAspectRatio="xMidYMid meet" version="1.0" zoomAndPan="magnify"><defs id="defs3"><radialGradient id="radialGradient8779" cx="13.958" cy="13.695" r="16.335" fx="14.228" fy="13.575" gradientTransform="scale(0.939089,1.064861)" gradientUnits="userSpaceOnUse" spreadMethod="reflect"><stop style="stop-color:#eae8e3;stop-opacity:1" id="stop12427radialGradient8779" offset="0"/><stop style="stop-color:#807d74;stop-opacity:1" id="stop12428radialGradient8779" offset="1"/></radialGradient><linearGradient id="linearGradient8778" x1="-.212" x2="11.281" y1="12.855" y2="12.855" gradientTransform="matrix(-0.738611,0.000000,0.000000,1.353893,26.26216,-0.519814)" gradientUnits="userSpaceOnUse"><stop style="stop-color:#eae8e3;stop-opacity:1" id="stop12427linearGradient8778" offset="0"/><stop style="stop-color:#807d74;stop-opacity:1" id="stop12428linearGradient8778" offset="1"/></linearGradient><linearGradient id="linearGradient8777" x1="-.212" x2="11.281" y1="12.855" y2="12.855" gradientTransform="scale(0.738611,1.353893)" gradientUnits="userSpaceOnUse"><stop style="stop-color:#eae8e3;stop-opacity:1" id="stop12427linearGradient8777" offset="0"/><stop style="stop-color:#807d74;stop-opacity:1" id="stop12428linearGradient8777" offset="1"/></linearGradient><linearGradient id="linearGradient12426"><stop style="stop-color:#eae8e3;stop-opacity:1" id="stop12427" offset="0"/><stop style="stop-color:#807d74;stop-opacity:1" id="stop12428" offset="1"/></linearGradient><linearGradient id="linearGradient8776" x1="2.401" x2="13.47" y1="9.041" y2="9.041" gradientTransform="matrix(0.454344,0.000000,0.000000,0.558328,9.605800,2.787487)" gradientUnits="userSpaceOnUse"><stop style="stop-color:#eae8e3;stop-opacity:1" id="stop12427linearGradient8776" offset="0"/><stop style="stop-color:#807d74;stop-opacity:1" id="stop12428linearGradient8776" offset="1"/></linearGradient></defs><metadata id="metadata4"><rdf:RDF xmlns:rdf="http://www.w3.org/1999/02/22-rdf-syntax-ns#" id="RDF5"><cc:Work xmlns:cc="http://web.resource.org/cc/" id="Work6"><dc:format xmlns:dc="http://purl.org/dc/elements/1.1/" id="format7">image/svg+xml</dc:format><dc:type xmlns:dc="http://purl.org/dc/elements/1.1/" id="type9" rdf:resource="http://purl.org/dc/dcmitype/StillImage"/></cc:Work></rdf:RDF></metadata><g id="layer1"><g id="g8770" transform="translate(0.232404,-1.111075)"><path style="fill:url(#linearGradient8776);fill-opacity:1;fill-rule:nonzero;stroke:#000;stroke-width:1;stroke-linecap:square;stroke-linejoin:bevel;stroke-miterlimit:4;stroke-dashoffset:0;stroke-opacity:1" id="path8121" d="M 16.989898,5.4877753 C 15.829801,6.1440262 15.004503,8.4920394 13.321766,8.4920394 C 11.652818,8.4920394 11.366160,5.9368660 9.9850916,5.4877753 C 9.9850916,4.0581264 11.434752,3.4640696 13.321766,3.4640696 C 15.236399,3.4640696 16.989898,4.0581264 16.989898,5.4877753 z"/><path style="fill:url(#linearGradient8777);fill-opacity:1;fill-rule:evenodd;stroke:#000;stroke-width:.75;stroke-linecap:butt;stroke-linejoin:miter;stroke-miterlimit:4;stroke-opacity:1" id="path8760" d="M 8.1759222,10.112622 C 6.9421682,9.8548226 0.80244033,7.5296182 0.50781250,10.015540 C 0.21318467,12.501463 5.4690290,23.113074 6.4081552,25.028155 C 7.3472814,26.943236 6.2864997,21.735259 5.4394447,19.396651 C 4.5923897,17.058043 2.4765099,13.122537 2.7711377,11.465256 C 3.0657655,9.8079735 6.1436538,11.944026 7.2853366,11.796712 C 8.4270194,11.649398 9.4096762,10.370421 8.1759222,10.112622 z"/><path style="fill:url(#linearGradient8778);fill-opacity:1;fill-rule:evenodd;stroke:#000;stroke-width:.75;stroke-linecap:butt;stroke-linejoin:miter;stroke-miterlimit:4;stroke-opacity:1" id="path8768" d="M 26.769976,12.230101 C 25.990400,14.001082 26.243367,23.584405 21.416509,22.633341 L 22.228969,18.564337 C 23.843230,16.503073 24.028459,12.783983 25.287901,10.320442 C 26.563133,7.8260158 29.102885,7.2835870 28.898702,8.7768980 C 28.705000,10.193557 27.578257,10.393910 26.769976,12.230101 z"/><path id="path8122" style="fill:url(#radialGradient8779);fill-opacity:1;fill-rule:nonzero;stroke:#000;stroke-width:1;stroke-linecap:square;stroke-linejoin:bevel;stroke-miterlimit:4;stroke-dashoffset:0;stroke-opacity:1" d="M 19.689011,26.997074 C 17.690510,29.351945 9.7091393,29.220893 7.5449101,26.935376 C 4.6722888,21.849146 3.9541335,15.823790 9.8098615,8.5830935 C 11.900434,7.7197761 15.499216,7.9613131 17.424060,8.6447918 C 23.279788,15.885488 22.561633,21.910844 19.689011,26.997074 z"/><path style="fill:#fff;fill-opacity:1;fill-rule:evenodd;stroke:none;stroke-width:1pt;stroke-linecap:butt;stroke-linejoin:miter;stroke-opacity:1" id="path8123" d="M 10.835384,10.111191 C 10.550156,12.519133 9.0122010,13.674835 9.3737180,18.564902 C 9.4146370,21.193475 8.1854330,22.413432 10.208993,26.845765 C 8.3962990,25.272702 7.5469017,22.001275 7.4832177,18.230932 C 7.5582387,15.465077 9.0975984,12.982993 10.835384,10.111191 z"/></g></g></svg>