<svg id="svg4668" width="32" height="32" contentScriptType="text/ecmascript" contentStyleType="text/css" preserveAspectRatio="xMidYMid meet" version="1.0" zoomAndPan="magnify"><metadata id="metadata4"><rdf:RDF xmlns:rdf="http://www.w3.org/1999/02/22-rdf-syntax-ns#" id="RDF5"><cc:Work xmlns:cc="http://web.resource.org/cc/" id="Work6"><dc:format xmlns:dc="http://purl.org/dc/elements/1.1/" id="format7">image/svg+xml</dc:format><dc:type xmlns:dc="http://purl.org/dc/elements/1.1/" id="type9" rdf:resource="http://purl.org/dc/dcmitype/StillImage"/></cc:Work></rdf:RDF></metadata><g id="layer1"><g id="g5013" transform="translate(667.2695,224.2701)"><path style="fill:#fff;fill-opacity:1;fill-rule:evenodd;stroke:#000;stroke-width:1.0109973;stroke-linecap:square;stroke-linejoin:round;stroke-miterlimit:4;stroke-dasharray:1.0109973 3.032992;stroke-dashoffset:0" id="path5012" d="M -636.59990,-192.48356 C -648.44149,-179.16589 -653.52803,-190.42551 -658.79973,-196.89212 C -664.20450,-203.52196 -666.70501,-209.27894 -664.12364,-211.03347 C -661.54228,-212.78801 -651.77832,-210.30746 -644.72088,-208.45747 C -637.71306,-206.62049 -624.66282,-205.90862 -636.59990,-192.48356 z"/><path style="fill:#fff;fill-opacity:1;fill-rule:evenodd;stroke:#000;stroke-width:1;stroke-linecap:butt;stroke-linejoin:round;stroke-miterlimit:4;stroke-opacity:1" id="path4465" d="M -42.672105,8.2016903 L -51.209975,8.1863603 L -55.230775,11.657860 L -46.678275,11.828870 L -42.672105,8.2016903 z" transform="translate(-602.6936,-216.1089)"/><path style="fill:#fff;fill-opacity:1;fill-rule:nonzero;stroke:#000;stroke-width:.75;stroke-linecap:square;stroke-linejoin:bevel;stroke-miterlimit:4;stroke-dashoffset:0;stroke-opacity:1" id="path4466" d="M 8.4569097 4.5610700 A 4.0238523 4.0238523 0 1 1 0.40920496,4.5610700 A 4.0238523 4.0238523 0 1 1 8.4569097 4.5610700 z" transform="translate(-666.4169,-224.0613)"/><path style="fill:#565248;fill-opacity:1;fill-rule:evenodd;stroke:none;stroke-width:.25pt;stroke-linecap:butt;stroke-linejoin:miter;stroke-opacity:1" id="path4467" d="M -54.993525,18.364782 L -49.946659,21.229219 L -40.671339,21.092818 L -37.261295,16.591559 L -42.580964,14.136327 L -46.673017,18.228380 L -54.993525,18.364782 z" transform="translate(-602.6936,-216.1089)"/><path style="fill:#eae8e3;fill-opacity:1;fill-rule:evenodd;stroke:#000;stroke-width:1;stroke-linecap:butt;stroke-linejoin:round;stroke-miterlimit:4;stroke-opacity:1" id="path4468" d="M -55.285905,11.761110 L -55.285905,18.155770 L -46.610655,18.155770 L -46.610655,11.761110 L -55.285905,11.761110 z" transform="translate(-602.6936,-216.1089)"/><path style="fill:#bab5ab;fill-opacity:1;fill-rule:evenodd;stroke:#000;stroke-width:1;stroke-linecap:butt;stroke-linejoin:round;stroke-miterlimit:4;stroke-opacity:1" id="path4469" d="M -42.898065,14.180090 L -42.687015,8.1400503 L -46.589895,11.625400 L -46.687735,18.083440 L -42.898065,14.180090 z" transform="translate(-602.6936,-216.1089)"/></g></g></svg>