<svg xmlns="http://www.w3.org/2000/svg" xmlns:cc="http://web.resource.org/cc/" xmlns:svg="http://www.w3.org/2000/svg" id="svg1694" width="249.25" height="116" version="1.0" viewBox="0 0 249.25 116" xml:space="preserve"><metadata id="metadata1951"/><g id="Strokes"><line id="line1699" x1="11.5" x2="11.5" y1="11.5" y2="70" style="fill:none;stroke:#0ab14b;stroke-width:23;stroke-linecap:round;stroke-linejoin:round"/><line id="line1701" x1="37.5" x2="62.917" y1="63" y2="88.417" style="fill:none;stroke:#0ab14b;stroke-width:23;stroke-linecap:round;stroke-linejoin:round"/><line id="line1703" x1="71" x2="90.917" y1="57.5" y2="57.5" style="fill:none;stroke:#0ab14b;stroke-width:23;stroke-linecap:round;stroke-linejoin:round"/><line id="line1705" x1="172" x2="172" y1="29" y2="104.5" style="fill:none;stroke:#0ab14b;stroke-width:23;stroke-linecap:round;stroke-linejoin:round"/><path d="M 98.5,80.25 C 98.5,93.367 109.133,104.001 122.25,104.001 C 135.367,104.001 146.001,93.367 146.001,80.25 C 146.001,67.134 135.367,56.5 122.25,56.5 C 120.785,56.5 119.351,56.633 117.959,56.887 L 117.959,57.041 L 145,30 L 100.5,30" style="fill:none;stroke:#0ab14b;stroke-width:23;stroke-linecap:round;stroke-linejoin:round" id="path1707"/><path d="M 197.5,29.5 C 218.072,29.5 237.75,46.178 237.75,66.75 C 237.75,87.322 218.072,104 197.5,104" style="fill:none;stroke:#0ab14b;stroke-width:23;stroke-linecap:round;stroke-linejoin:round" id="path1709"/><circle cx="47" cy="39" r="11.5" style="fill:#0ab14b" id="circle1711"/></g><g id="Centers"><polyline id="polyline1714" points="2.5 11.5 11.5 11.5 11.5 2.5 11.5 20.5 11.5 11.5 20.5 11.5" style="fill:none;stroke:#ed1b23"/><polyline id="polyline1716" points="2.5 70 11.5 70 11.5 61 11.5 79 11.5 70 20.5 70" style="fill:none;stroke:#ed1b23"/><polyline id="polyline1718" points="38 39 47 39 47 30 47 48 47 39 56 39" style="fill:none;stroke:#ed1b23"/><polyline id="polyline1720" points="28.5 63 37.5 63 37.5 54 37.5 72 37.5 63 46.5 63" style="fill:none;stroke:#ed1b23"/><polyline id="polyline1722" points="53.25 87.75 62.25 87.75 62.25 78.75 62.25 96.75 62.25 87.75 71.25 87.75" style="fill:none;stroke:#ed1b23"/><polyline id="polyline1724" points="62 57.5 71 57.5 71 48.5 71 66.5 71 57.5 80 57.5" style="fill:none;stroke:#ed1b23"/><polyline id="polyline1726" points="81 57.5 90 57.5 90 48.5 90 66.5 90 57.5 99 57.5" style="fill:none;stroke:#ed1b23"/><polyline id="polyline1728" points="91.5 30 100.5 30 100.5 21 100.5 39 100.5 30 109.5 30" style="fill:none;stroke:#ed1b23"/><polyline id="polyline1730" points="136 30 145 30 145 21 145 39 145 30 154 30" style="fill:none;stroke:#ed1b23"/><polyline id="polyline1732" points="108.959 57.041 117.959 57.041 117.959 48.041 117.959 66.041 117.959 57.041 126.959 57.041" style="fill:none;stroke:#ed1b23"/><polyline id="polyline1734" points="89.5 81 98.5 81 98.5 72 98.5 90 98.5 81 107.5 81" style="fill:none;stroke:#ed1b23"/><polyline id="polyline1736" points="188.5 29.5 197.5 29.5 197.5 20.5 197.5 38.5 197.5 29.5 206.5 29.5" style="fill:none;stroke:#ed1b23"/><polyline id="polyline1738" points="163 29 172 29 172 20 172 38 172 29 181 29" style="fill:none;stroke:#ed1b23"/><polyline id="polyline1740" points="163 104.5 172 104.5 172 95.5 172 113.5 172 104.5 181 104.5" style="fill:none;stroke:#ed1b23"/><polyline id="polyline1742" points="188.5 104 197.5 104 197.5 95 197.5 113 197.5 104 206.5 104" style="fill:none;stroke:#ed1b23"/></g><g id="Lines"><line id="line1745" x1="11.5" x2="11.5" y1="11.5" y2="70" style="fill:none;stroke:#ec008c"/><line id="line1747" x1="37.5" x2="62.917" y1="63" y2="88.417" style="fill:none;stroke:#ec008c"/><line id="line1749" x1="71" x2="90.917" y1="57.5" y2="57.5" style="fill:none;stroke:#ec008c"/><path style="fill:none;stroke:#ec008c" id="path1751"/><line id="line1753" x1="172" x2="172" y1="29" y2="104.5" style="fill:none;stroke:#ec008c"/><path d="M 98.5,80.25 C 98.5,93.367 109.133,104.001 122.25,104.001 C 135.367,104.001 146.001,93.367 146.001,80.25 C 146.001,67.134 135.367,56.5 122.25,56.5 C 120.785,56.5 119.351,56.633 117.959,56.887 L 117.959,57.041 L 145,30 L 100.5,30" style="fill:none;stroke:#ec008c" id="path1755"/><path d="M 197.5,29.5 C 218.072,29.5 234.75,46.178 234.75,66.75 C 234.75,87.322 218.072,104 197.5,104" style="fill:none;stroke:#ec008c" id="path1757"/></g></svg>